<?xml version="1.0" encoding="UTF-8"?>
<svg id="Layer_1" xmlns="http://www.w3.org/2000/svg" version="1.1" viewBox="0 0 1123.2 573.04">
  <!-- Generator: Adobe Illustrator 30.4.0, SVG Export Plug-In . SVG Version: 2.1.4 Build 226)  -->
  <path id="BookOpen2" d="M874.5,345.6c-26.35-21.44-68.01-17.81-66.81-7.51,1.27,10.88,31.27,1.79,49.39,22.37,3.04,3.45,6.52,9.15,5.99,12.46-4.1,25.55-54.62,33.82-87.3,11.71,15.45-82.93-37.11-161.41-120.62-179.77l12.94-26.58c8.43-17.31,7.43-44.35.16-65.24-4.07-11.7-10.35-19.74-19.67-28.59-26.02-24.71-61.79-23.75-91.77-2.77-20.87,14.61-22.05,31.11-26.89,28.57l-7.03-3.69c-7.01-7.54-15.98-10.79-26.09-8.79-11.55-7.87-24.56-9.77-37.54-4.84-7.31-2.49-14.8-2.25-21.23,2.74-4.38,3.4-14.16,2.38-14.14-1.73.06-10.74-3.99-17.92-7.68-26.92-12.19-29.77-42.02-46.88-75.97-39.41-24.08,5.3-34.2,16.07-46.12,35.23-17.71,28.45-17.28,59.88-2.55,90.5,8.07,16.78,24.91,28.98,43.68,35.13l-12.84,41.25-4.91,29.51c-1.97,11.83,1.18,23.62-2.08,35.67-23.13-13.3-45.49-24.39-72.07-23.84-.81,1.04-2.98,3.77-2.92,3.74,7.29-3.16,54.97,11.36,73.61,26.36l.75,15.04c-25.61-5.41-51.54-9.79-73.48,4.39,26.68-2,52.59-6.81,75.27,3.84.57,7.33,3.92,14.31,6.68,21.06,2.94,7.17,4.43,11.62,9.88,18.05l-20.27,13.76c-12.01,8.15-38.2.74-52.54,28.95l-69.03,21.27-78.51,27.59-8.61,29.64c-2.82,9.7,4.67,28.1,12.15,34.57,7.77,6.72,20.92,6.22,29.39,9.4l46.55,17.44,80.24,26.04c10.51,3.41,24.99,10.56,35.75,10.52l52.74-18.51,77.29-26.95,31.75-11.11c2.84-1,8.38-5.52,7.41-8.19-.81-2.22-3.44-5.29-6.38-8.67-4.49-5.16-6.34-19.35-1.71-25.99,4.09-5.85,14.59-5.87,21.32-5.68,16.64.45,45.43-8.16,55.83-16.27,6.22-4.84,11.51-5.71,21.35-5.04l21.57,1.46,37.29-3.88,8.72,16.25c8.95,1.63,13.69,3.29,20.9,6.32,10.89,4.56,22.1-5.65,31.71-7.43,32.1-5.95,53.27-11.49,70.26-39.42l9.8-16.11c35.9,12.92,79.25,14.77,107.07-10.33,17.68-15.95,17.14-43.05-.72-57.57ZM328.61,326.7c-3.72-8.4-3.12-15.42-2.59-24.39.63-10.72-4.69-23.08.05-33.57,2.44-31.73,8.87-62,25.94-89.92l-2.63-6.32c-.65-1.56-3.98,1.8-6.22,3.61-8.96,7.21-40.44-13.23-47.98-40.76-9.88-36.07-1.13-65.65,26.63-90.25,5.23-3.08,17.09-8.06,22.98-8.64,42.97-4.22,66.29,24.29,70.01,65.62l-12.38,7.47c-8.19,4.94-18,11.1-15.52,23.29,40.08-32.83,97.52-43.3,138.91-11.87l-4.79,15.13c-.45,1.44.45,6.37,1.12,7.77.67,1.39,4.95,1.9,5.6,1.06l8.98-23.22c3.71-9.61,8.08-16.14,15.51-23.38,23.24-22.65,52.25-28.28,81.44-12.98,8.58,4.5,12.68,10.49,17.67,18.17,17.99,27.68,17,65.6-1.84,89.62-9.54,12.16-18.89,23.19-33.52,28.11-15.36,5.17-28.66,7.5-43.83-2.13l-7.98,8.92c8.82,4.7,13.65,7.05,15.18,12.5,1.76,6.28-1.34,12.9-3.35,19.84l-7.57,26.14-10.68,23.27c-2.8,6.11-2.3,17.76-8.85,23.85l-34.44,32.02c-20.25-5.34-37.74-13.21-59.13-7.45l52.79,10.37c-18.98,13.81-55.9,21.09-76.81,20.14l-32.94-1.5c-10.59-.48-21.73-4.4-30.46-8.22l14.94-16.88c-12.4-10.93-17.72,10.55-23.4,11.19-4.71.54-16.78-11.87-20.59-23.94-7.12-6.31-11.02-13.48-10.27-22.68ZM439.97,409.25l22.85,14.93c-13.11,10.31-26.41,3.91-40.08,20.29l-58-17.58,22.98-8.34,27.02-11.13c10.11-4.16,16.02-4.17,25.23,1.84ZM301.95,391.78c6.46-.09,12.18-3.17,16.85-6.52l18.84-13.5,15.47,11.01c9.22,6.56,19.34,9.76,31.06,12.17l24.46,5.02-47.39,17.68c-13.72,5.12-27.99,3.11-37.53-8.82l-14.59,11.26-3.73,2.87c-1.07.82-4.11-2.57-3.49-3.75l4.41-8.34c-3.42-1.86-11.27,1.23-14.56,5.34l-3.16,3.96c-.63.78-4.83-.57-4.4-1.48l2.39-4.99,3.13-5.11c.68-1.1-.74-4.82-2.01-4.61l-7.27,1.24-9.23,10.12c.14-16.62,15.73-23.34,30.73-23.55ZM190.84,439.13l69.72-22.44c1.84,3.67,3.71,8.48,5.74,8.65l8.49.7c1.8,1.12,4.95,7.42,7.09,6.57l11.55-4.57c2.16,3.67,10.63,6.85,14.94,4.14l12.56-7.89,91.74,28.33-2.55,15.14c-.62,3.7,5.93,6.76,12.41,13.05l-102.98,36.83c-10.82,3.87-11.83,1.08-21.25-2.11l-165.48-56,57.99-20.39ZM124.05,509.48c-2.16,0-8.51-5.04-8.53-7.56l-.27-29.01c-.01-1.33,2.47-6.42,3.75-5.97l7.36,2.58c-5.41,13.49-4.83,25.44-2.3,39.96ZM299.53,569.1l-113-37.35-50.02-18.07c-6.25-3.82-6.89-21.13-5.02-26.62,8.37,2.73,15.11,4.85,24.25,5.6l-20.56-9.81c-1.33-.64-3.65-3.94-3.43-5.21.29-1.69,2.86-4.27,4.48-4.57l141.99,47.59,23.03,9.83c-5.88,12.94-6,24.98-1.73,38.61ZM436.76,524.39l-39.97,14.64-21.25,7.1-43.37,14.43c-3.82,1.27-13.46.41-17,2.27l-5.34,2.81c-.98.51-3-3.14-2.68-3.68l12.47-9.26-12.45.74c.1.61-.6-3.68-.83-5.13-.3-1.82,3.43-3.21,5.61-4.31l14.63-7.42-17.08,1.21c-1.28-2.14,3.63-8.54,8.25-10.11l120.22-40.96c5.36,3.33,11.46,3.03,18.24.89.02,8.75,2.04,18.2,6.71,27.48l-26.18,9.3ZM760.14,403.48l-7.12,16.54c-6.19,14.39-29.51,31.38-49.78,35.42l-22.75,4.53c-5.63,1.12-14.33,10.84-21.48,7.28l7.12-12.45-22.65,8.85,8.58-15.52c-5.64,1.5-8.83,3.06-15.81,6.69,3.87-13.82,16.51-20.1,32.73-18.29.56-6.43-5.63-11.3-8.19-16.58-10.13-20.86-.75-44.08,13.82-62.31-5.7-2.13-9.66,3.26-13.57,7.94-14.64,17.47-19.12,40.34-7.79,59.75-7.18,3.52-13.14,8.06-20.92,13.7-10.35,7.51-46.81,10.07-64.31,7.08,6.35-8.7,8.76-10.53,9.32-19.92-10.79,5.5-17.33,11.3-25.76,19.29-16.66,15.78-52.47,25.95-77.22,22.33l-20.93,10.91c-1.11.58-5.72-1.28-6.82-1.87-3.13-1.69,8.36-6.37,5.31-13.37l-20.71,10.99c-4.52-9.73,19.25-19.66,1.2-18.54l-12.54,6.99c4.75-10.64,14.21-17.48,24.57-20.14,8.99-2.31,15.29-5.61,23.93-10,43.97-22.32,39.12-39.68,31.63-33.93l-25.24,19.39-30.07-19.22c28.58-3.94,51.78-10.14,74.18-25.12l19.18,7.9c-2.49-6.63-7.36-8.31-13.65-11.38l26.07-25.15,3.27.69c.66.14,3.89.17,3.43-.32l-4.68-5.01,12.16-17.23c11.73-16.61,8.3-24.17,13.95-32.88,3.24-4.99,3.81-9.21,3.27-15.45l6.61-17.24c-.52-7.38-.74-15.65.88-21.8,22.8-.28,40.28-7.56,55.82-20.64,20.62-.48,42.74,9.21,58.93,21.49,13.59,10.31,26.01,19.4,35.68,33.23,27.37,39.13,39.51,88.76,20.32,133.34ZM807.53,412.62l-28.93-4.92c-1.57-.27-7.24-2.07-6.83-3.42l2.56-8.51,14.77,4.82c23.15,7.56,49.99,8.09,70.42-6.34,9.29-6.56,13.64-18.27,10.89-28.75-2.41-9.2-11.33-14.95-21.84-22.55,15.5,2.01,28.62,13.1,30.33,30.02,2.73,27.03-41.3,44.76-71.38,39.64ZM458.23,264.78c3.76-4.99,15.89-6.83,18.54-1.43,14.08,28.7-8.61,66.6-23.36,58.3-15.49-8.71-8.48-39.2,4.83-56.87ZM354.09,254.46c2.73-4.54,12.07-7.97,17.03-5.61,8.75,23.31,1.97,59.57-11.61,60.29-14.43.77-19.86-30.61-5.42-54.68ZM452.42,341.21c25.99-8.99,54.11-16.37,80.56-3.28-25.05-1.31-46.09-2.38-70.63,5.36-3.35,1.06-8.13.45-9.92-2.08ZM254.66,530.94l17.44,15.23-122.71-40.03c-3.61-1.18-8.72-5.56-10.79-8.68l109.44,36.59c-20.64-17.17-46.77-17.61-69.46-34.39l91.59,31.05-.06,3.33-15.45-3.09ZM337.64,548.28c36.44-18.02,71.95-29,110.9-40.45-11.94,10.21-26.92,13.26-41.3,17.6-23.73,7.17-44.46,20.38-69.6,22.85ZM416.46,503.89c-23.13,13-46.53,19.49-71.14,25.52,23.45-11.58,45.73-19.82,71.14-25.52Z"/>
  <g id="extra">
    <path d="M1035.02,431.81c-.53-.52-2.36-.74-3.03-.37l-27.1,14.93c-3.66-10.58-7.27-20.11-12.25-29.83-.61-1.19-3.24-.83-3.92-.12l-3.85,3c-.27,7.99.89,15.92,1.44,24.04l.54,8.05-23.92-4.73-9.04-2.81c-.75-.23-2.69.2-3.11.84-.35.53-.47,1.77-.41,2.52l30.77,16.38-15.21,22.09c-.39.56-.59,2.18-.4,2.79.57,1.85,8.65-1.31,12.22-4.3l15.38-12.88,7.86,27.98c2.56-.22,3.46-2.08,2.88-4.33l-5.48-21.58c-.1-.19,1.04-2.25.91-1.9l7.71,2.48,2.35,14.19c.14.84,1.81,2.04,2.51,1.7.56-.28,1.11-1.68,1.06-2.31l-.92-11.77,12.97,3.19c2.53.62,5.94-1.06,6.75-3.5l-17.69-21.07,20.58-19.66c.57-.54.94-2.52.42-3.04ZM981.56,472.74c-.19-1.8.66-3.43,1.87-4.72l1.71-1.83c.46-.49,1.99.68,3.32,1.94-1.73,1.87-3.69,3.26-6.9,4.61ZM992.45,451.37l-.54-19.22c.33-.28,1.77-1.19,2.01-1.18l6.95,16.79c-2.62,1.73-4.49,2.56-8.42,3.61ZM996.18,462.84c-.82-1.13-1.85-3.24-1.42-4.13.64-1.32,3.43-1.59,5.33.37l-3.91,3.76ZM1000.14,465.98l4.13-3.47,1.37,5.52-5.49-2.05ZM1024.58,472.98c-5.39-.37-9-1.37-13.66-2.69l-1.79-11.06,2.32-1.39,13.13,15.13Z"/>
    <path d="M92.91,139.63l-9.35,1.26-3.77-17.33,6.54-1.98c.6-.18,1.47-1.84,1.16-2.29-.31-.45-1.51-.99-2.09-.89l-6.44,1.17-5.28-23.36c-.19-.84-2.32-2.55-2.79-1.95l-1.74,2.25,5.44,23.98-19.9,5.1-5.25-23.56c-.21-.92-1.93-2.2-2.67-2.04-2.4.51-1.97,5.32-.82,10.05l4.1,16.83-18.78,5.5-3.84-20.06c-.41-2.13-1.52-4.58-3.02-6.36-1.41-.1-3.17,2.26-2.87,3.68l5.02,24.38-18.86,5.58c-.99.29-2.31,2.2-2,3.02.31.82,1.82,1.41,3.1,1.7l18.88-5.99,3.55,18.34-19.5,8.38c-.8.34-1.78,2.1-1.5,2.86.23.64,2.11,1.28,2.77,1.03l19.62-7.4c3.3,12.53,2.78,23.73,7.88,36.64.27.69,2.08,2.45,2.43,1.82l1.43-2.57-7.14-37.84,18.84-6.75,7.93,33.12,2.44,1.61c.44.29,1.15-1.77,1.23-2.2l-6.87-33.54,19.38-6.04,3.97,18.03c.15.67,1.63,2.06,2.18,1.7.56-.36,1.5-2.13,1.36-2.9l-3.26-17.66,8.51-2.16c.59-.15,1.54-1.08,1.73-1.59.19-.51-1.15-1.64-1.76-1.56ZM36,155.13l-3.85-18.13,18.94-5.99,4.09,17.58-19.17,6.54ZM59.43,147.28l-3.81-17.13,19.88-5.7,3.83,17.14-19.91,5.69Z"/>
  </g>
</svg>