<?xml version="1.0" encoding="UTF-8"?>
<svg id="Layer_1" xmlns="http://www.w3.org/2000/svg" version="1.1" viewBox="0 0 1123.2 573.04">
  <!-- Generator: Adobe Illustrator 30.4.0, SVG Export Plug-In . SVG Version: 2.1.4 Build 226)  -->
  <path id="BookOpen3" d="M870.68,306c-27.66-25.95-72.58-21.8-70.12-9.93,2.1,10.14,29.02,1.94,50.54,22.58,7.11,6.81,12.39,17.33,11.84,26.66-.51,8.67-6.52,18.62-14.68,24.56-19.09,13.88-44.49,13.29-65.94,2.91,5.23-30.84,3.27-60.85-10.79-87.79l-13.78-26.39c-6.62-12.67-34.43-37.24-47.96-43.92l-19.58-9.67-24.16-6.55,10.86-24.44c2.91-6.56,3.19-15.53,3.84-22.78,2.26-25.09-6.09-48.42-24.36-65.84-26.95-25.69-65.11-24.21-94.11-2.02-20.4,15.61-20.61,27.91-24.12,26.72l-5.82-1.97c-6.05-9.14-16.33-12.06-26.85-10.07-13.11-9.05-26.27-8.91-40.96-5.38-12.74-6.69-19.24,6.52-33.07,3.45-5.25-45.99-40.9-78.9-84.99-68.25-23.45,5.66-31.65,14.02-44.18,32.44-17.89,26.29-19.37,61.1-4.3,90.26,3.13,6.05,6.95,12.56,11.89,16.36l14.08,10.85c4.74,3.66,12.44,6.8,18.68,8.47-8.74,22.2-21.73,62.2-19.45,79.1,1.22,9.06.65,17.65-2.26,24.84-24.36-12.73-46.54-27.11-73.78-21.37,27.14,5.42,49.69,11.62,71.59,27.56l.18,15.09c-24.97-4.24-47.78-9.61-69.96,3.13,25.37-.94,49.77-4.74,72.58,4.95.78,7.66,3.3,15,8.78,20.8.24,2-2.17,8.94-4.46,10.1l-17.93,9-30.06-18.37c-20.09-12.28-43.34-16.44-66.62-22.54l-124.74,52.69c7.25,36.75-21.12,27.15-15.76,41.85l123.85,42.12c7.02,2.39,8.39,4.68,13.48,11.36,5.43,7.12,23.72,12.69,32.72,10.61,10.2-2.36,15.48-1.91,25.26,1.29l122.87,40.25,77.19-40.19,7.54,4.74c13.42,6.6,22.63-8.36,31.71-11.23l36.41-11.48c9.97-3.14,16.88-8.56,26.21-14.59,7.89-5.09,23.28.88,32.45-.46l35.36-5.16c1.7,5.22,6.62,15.65,10.33,18.16,8.49.62,11.35,2.06,16.42,4.95,12.19,6.95,24.12-5.9,34.06-8.17l28.58-6.53c19.26-4.4,29.91-17.49,39.37-33.37l9.8-16.46c33.36,12.21,72.82,9.74,98.04-16.18,22.01-22.62,20.64-55.77-1.71-76.74ZM331.55,298.74l.45-33.76c3.41-31.46,9.56-60.16,27.11-87.78-.46-1.96-3.76-6.67-4.94-7.12-5.1,6.78-11.34,8.32-17.91,3.84l-16.69-11.39c-11.66-7.96-21.09-33.49-21.8-49.19-1.71-37.72,20.36-70.65,56.2-76.99,35.6-2.29,57.43,18.44,66.33,51.98.74,2.78,2.1,10.34.55,12.7-5.05,7.66-32.47,12.74-26.44,30.8,37.85-34.04,100.52-40.33,139.68-11.59l-6.49,19.48c-.4,1.22,3.33,5.24,4.43,5.9,1.47.89,3.35-2.67,4.15-4.72l7.39-18.89c7.03-17.99,18.43-28.46,35.75-38.12,18.98-10.58,42.75-8.51,62.75,1.94,6.98,3.65,10.73,9.77,15.02,15.91,12.71,18.16,17.46,40.78,12,62.28-1.79,7.05-3.29,15.36-7.35,20.79l-11.37,15.19c-7.22,9.65-16.67,15.58-27.72,19.75-34.92,13.16-43.96-9.04-52.26,5.45l11.52,8.69c6.42,4.84,2.17,19.68-2.93,25.72.46,9.65-.97,14.84-4.72,22.5-2.31,7.36-6.8,16.06-10.57,22.47-1.49,11.92-4.34,20.65-13.7,29.24l-30.75,28.21c-21.52-4.58-39.13-13.4-59.13-6.78,19.6,4.43,35.59,4.53,52.48,11.55-21.97,12.5-55.18,19.71-77.04,18.28l-30.89-2.02c-11.36-.74-21.77-3.36-30.67-8.95,4.9-4.73,11.3-10.79,12.37-14.98.43-1.68-5.31-6.55-6.59-5.37l-6.63,6.16-7.83,8.19c-3.35,3.5-14.32-9.47-22.77-23.56-11.02-18.36-11.24-25.99-10.98-45.8ZM336.54,356.09c4.46,6.81,10.3,13.87,16.98,17.93l16.17,9.84c-12.09.6-22.15,2.83-33.02,7.3l4.41-13.02-21.3,9.05,7.26-11.62-13.14-9.08,22.64-10.4ZM94.57,385.51c38.1,3.7,71,18.07,100.55,38.95-19.75-6.35-35.09-17.78-55.78-20.66,18,11.83,38.62,14.48,54.91,30.19l-100.58-38.01,24.88,1.18c-9.85-4.99-16.67-6.05-23.99-11.64ZM85.3,407.8l8.53-6.1,62.15,21.14c16.54,7.72,33.71,11.85,48.01,25.48l-118.69-40.52ZM230.82,445.93c-29.03-41.11-80.19-59.22-127.79-73.05l101.18-42.37c8.53-3.57,17.97-1.51,26.08,1.35,27.16,9.58,53.73,19.74,76.08,38.79-3.61,5.47-6.37,12.51-4.23,16.39,3.06,5.54,10.89,8.26,18.46,7.82-30.99,14.74-61.5,31.39-89.79,51.08ZM246.16,463.04c20.95-2.31,42.24-1.17,61.27,7.17l42.28,18.53,31.34,16.47-134.89-42.16ZM377.06,492.33c1.44.62.78,5.15-.1,4.2l-32.06-14.27-37.94-16.57-44.6-12.09c43.14-1.37,81.63,15.63,118.2,33.67l-8.94,2.71,5.44,2.35ZM245.95,445.21l66.93-37.02c10.76-5.95,50.28-15.42,66.06-14.46,34.89,2.13,67.13,12.6,98.6,26.84l6.23,2.82c1.19.54-4.02,3.87-5.46,4.33-5.55,1.75-13.66,7.03-20.52,10.82l-73.56,40.6c-45.52-23.39-85.78-39.93-138.29-33.93ZM446.24,459.97l-51.55,27.23-2.06-2.79,49.45-26.93,4.17-2.27c.9-.49.31,4.08-.02,4.76ZM390.85,506.28l9.56-12.4-11.55,3.6.24-2.44,30.57-16.68,1.71,2.02-7.68,4.54.51,3.39,36.31-16.92,3.19,2.79-62.86,32.11ZM761.31,402.88c-8.42,18.61-26.68,33.52-47.64,38.6l-26.49,6.42c-5.41,1.31-14.5,10.24-19.25,6.95l6.02-11.88-21.29,8.51,6.15-11.83c.96-.08-3.05-3.92-4.42-2.95l-8.09,5.7c1.45-20.54,22.29-15.32,30.16-19,5.45-2.55-11.72-10.4-13.42-27.56-1.87-18.9,5.84-31.28,17.12-49.34-25.71,11.31-32.7,44.98-20.81,67.63l-19,12.19c-5.31,3.41-18.21,6.93-24.51,7.24l-37.23,1.82c6.06-8.22,10.31-12.75,6.01-20.55-16.48,17.12-31.26,30.92-51.48,39.28l-31.51,7.85c-6.08,6.13-14.85,12.65-21.39,12.55l6.25-15.34-22.37,12.47,9.37-20.01c-6.19.88-10.02,3.34-16.69,8.71.68-13.48,13.17-17.26,24.68-23.66,11.95-6.64,33.73-29.09,36.12-39.28.26-1.12-2.61-3.78-3.58-3.17-1.3.81-3.97,3.03-5.21,4.46l-13.88,16.06c-12.17-2.47-23.71-7.51-34.99-14.55l-17.19-4.36c28.64-2.17,57.19-9.06,82.33-25.1l18.2,6.67c-3.2-5.5-7.62-7.98-13.06-10.6l25.08-24.72,4.68.82,3.46-.04c1.11-.01-2.68-4.34-4.36-5.94l18.99-33.69,8.37-22.69c1.49-4.04,1.5-12.62,4.09-17.16,6.74-11.82-.74-19.92,3.69-26.33,3.01-4.35,37.5.54,62.77-29.09,14,.75,32.44,5.63,44.84,13.93l14.62,9.79,19.05,15.75c38.7,44.72,50.38,101.14,25.82,155.43ZM849.65,388.05c-19.41,9.32-42.36,11.12-64.63,5.24l-6.75-2.93c-1.53-.66.41-6.96,2.07-7.02,10.77-.4,39.37,16.14,71.92-4.82,20.62-13.27,25.56-38.25,11.45-58.8-8.41-10.92-21.02-16.92-33.81-22.2,16.31-.06,32.44,8.91,41.05,21.99,16.8,25.53,5.61,55.61-21.3,68.53ZM463.94,261.98c1.99-2.62,9.77-5.39,12.97-5.35,3.66.05,8.63,6.37,9.29,10.92,5.06,34.48-15.62,57.42-26.56,51.31-15.6-8.71-8.48-40.04,4.3-56.89ZM361.93,249.45c2.57-3.9,14.85-6.37,16.27-2.15,9.05,26.88-.84,59.54-12.19,58.86-15.73-.94-19.3-33.6-4.08-56.71ZM457.14,341.04c23.05-14.48,55.25-18.63,82.76-7.14-26.98-1.85-52.42,1.37-82.76,7.14Z"/>
  <g id="extra">
    <path d="M1035.02,431.81c-.53-.52-2.36-.74-3.03-.37l-27.1,14.93c-3.66-10.58-7.27-20.11-12.25-29.83-.61-1.19-3.24-.83-3.92-.12l-3.85,3c-.27,7.99.89,15.92,1.44,24.04l.54,8.05-23.92-4.73-9.04-2.81c-.75-.23-2.69.2-3.11.84-.35.53-.47,1.77-.41,2.52l30.77,16.38-15.21,22.09c-.39.56-.59,2.18-.4,2.79.57,1.85,8.65-1.31,12.22-4.3l15.38-12.88,7.86,27.98c2.56-.22,3.46-2.08,2.88-4.33l-5.48-21.58c-.1-.19,1.04-2.25.91-1.9l7.71,2.48,2.35,14.19c.14.84,1.81,2.04,2.51,1.7.56-.28,1.11-1.68,1.06-2.31l-.92-11.77,12.97,3.19c2.53.62,5.94-1.06,6.75-3.5l-17.69-21.07,20.58-19.66c.57-.54.94-2.52.42-3.04ZM981.56,472.74c-.19-1.8.66-3.43,1.87-4.72l1.71-1.83c.46-.49,1.99.68,3.32,1.94-1.73,1.87-3.69,3.26-6.9,4.61ZM992.45,451.37l-.54-19.22c.33-.28,1.77-1.19,2.01-1.18l6.95,16.79c-2.62,1.73-4.49,2.56-8.42,3.61ZM996.18,462.84c-.82-1.13-1.85-3.24-1.42-4.13.64-1.32,3.43-1.59,5.33.37l-3.91,3.76ZM1000.14,465.98l4.13-3.47,1.37,5.52-5.49-2.05ZM1024.58,472.98c-5.39-.37-9-1.37-13.66-2.69l-1.79-11.06,2.32-1.39,13.13,15.13Z"/>
    <path d="M92.91,139.63l-9.35,1.26-3.77-17.33,6.54-1.98c.6-.18,1.47-1.84,1.16-2.29-.31-.45-1.51-.99-2.09-.89l-6.44,1.17-5.28-23.36c-.19-.84-2.32-2.55-2.79-1.95l-1.74,2.25,5.44,23.98-19.9,5.1-5.25-23.56c-.21-.92-1.93-2.2-2.67-2.04-2.4.51-1.97,5.32-.82,10.05l4.1,16.83-18.78,5.5-3.84-20.06c-.41-2.13-1.52-4.58-3.02-6.36-1.41-.1-3.17,2.26-2.87,3.68l5.02,24.38-18.86,5.58c-.99.29-2.31,2.2-2,3.02.31.82,1.82,1.41,3.1,1.7l18.88-5.99,3.55,18.34-19.5,8.38c-.8.34-1.78,2.1-1.5,2.86.23.64,2.11,1.28,2.77,1.03l19.62-7.4c3.3,12.53,2.78,23.73,7.88,36.64.27.69,2.08,2.45,2.43,1.82l1.43-2.57-7.14-37.84,18.84-6.75,7.93,33.12,2.44,1.61c.44.29,1.15-1.77,1.23-2.2l-6.87-33.54,19.38-6.04,3.97,18.03c.15.67,1.63,2.06,2.18,1.7.56-.36,1.5-2.13,1.36-2.9l-3.26-17.66,8.51-2.16c.59-.15,1.54-1.08,1.73-1.59.19-.51-1.15-1.64-1.76-1.56ZM36,155.13l-3.85-18.13,18.94-5.99,4.09,17.58-19.17,6.54ZM59.43,147.28l-3.81-17.13,19.88-5.7,3.83,17.14-19.91,5.69Z"/>
  </g>
</svg>