<?xml version="1.0" encoding="UTF-8"?>
<svg id="Layer_1" xmlns="http://www.w3.org/2000/svg" version="1.1" viewBox="0 0 1123.2 573.04">
  <!-- Generator: Adobe Illustrator 30.4.0, SVG Export Plug-In . SVG Version: 2.1.4 Build 226)  -->
  <path id="BookOpen1" d="M807.71,327.02c7.27,8.11,31.43.48,50.01,20.01,2.66,2.8,5.73,9.66,4.92,12.81-5.98,23.41-60.88,28.18-90.48,7.03l.66-38.63c.23-13.51-11.48-46.27-20.86-59.49l-13.15-18.54c-12.78-18.01-45.08-40.03-64.81-44.91l-28.72-7.1c22.74-36.72,23.42-85.23-8.71-114.62-27.49-25.15-61.82-24.65-93.13-3.04-23.93,16.52-20.25,37.33-33.36,25.83-7.33-8.27-16.92-11.04-27.64-9.14-12.2-10.11-24.7-6.61-38.17-5.95-5.89.29-12.79-1.05-18.06,1.67-5.7,2.94-13.38,3.95-16.91,2.7-1.07-12.55-3.75-19.17-7.97-29.23-16.55-39.38-63.85-52.1-99.41-29.25-9.86,6.33-15.7,13.92-21.97,23.64-17.28,26.75-20.43,59.84-6.68,88.24,5.74,11.87,10.95,23.14,23.58,29.13l22.08,10.46-8.55,23.38-7.72,29.8c-6.51,25.14,1.02,38.41-6.16,53.64-22.13-14.78-59.89-31.32-74.71-19.84,28.16,1.49,53.29,10.11,74.84,26.97l-1.49,14.48c-24.21-6.05-51.12-9.7-73.48,5.23,27.4-3.08,54.44-8.67,77.16,3.36-1.03,16.52,15.66,42.97,27.56,51.63l14.03,10.2c6.4,4.65,14.43,6.5,22.76,7.9l33.88,5.72,5.53,1.18c7.7,1.64-27.93,8.74-30.89,27.64-1.02,6.48,2.58,12.16,6.77,15.34,12.51,9.51,24.14,10.51,37.93,4.89l15.82-6.45c-1.06,6.57-1.09,12.16,1.62,16.9,3.78,6.62,8.62,7.16,14.25,9.94,14.91,7.36,27.78,5.86,41.43-3.78l21.15-2.71c8.43-1.08,16.17-3.63,23.29-7.66l23.01-13.03c8.73-4.94,25.33-.95,35.14-1.97l30.61-3.18c1.7,4.52,6.44,13.74,10.56,16.19l20.18,6.79c10.07,3.39,19.95-5.77,29.21-7.43,24.01-4.31,51.26-9.77,65.57-31.5l13.12-19.92c1.2-1.82,3.28-8.07,5.3-7.46l7.79,2.37c33.62,10.21,70.46,10.82,99.47-9.81,10.29-7.32,15.6-21.8,13.98-33.7-6.13-45.01-92.23-40.21-80.19-26.79ZM430.95,431.62c-6.66,5.49-15.23,8.7-26.32,14.09l3.7-12.91c-8.9-1.56-13.36,9.17-15.1,8.24l-2.94-1.57c-1.02-.54,10.89-14.27,4.55-12.26l-13.27,4.2c8.28-19.18,28.6-8.76,29.54-28.48,4.09-1.02,18.38-4.46,22.95-1.25l17.93,12.59-21.04,17.35ZM762.31,365.38c-1.65,10.74-5.97,19.97-9.87,29.6-9.81,24.2-27.54,39.37-53.05,44.8l-22.26,4.73c-6.14,1.31-13.55,10.81-21.31,7.9l6.55-12.43-13.7,5.97c-1.81.79-6.26,1.36-8.58,1.49l8.04-15.29-16.43,7.46c6.94-13.64,17.17-20.14,34.51-17.7l-8.62-16.03c-11.53-21.44-.4-42.54,13.2-62.44-11.11,2.84-22.06,15.75-23.96,26.42l-4.39,24.7,7.16,16.15-21.79,14.41c-8.14,5.39-24.48,4.51-34.58,5.32l-23.58,1.9c5.4-8.32,7.91-12.02,8.2-21.9l-15.33,12.55c-8.44,6.91-13.55,15.53-23.15,19.81l-19.88,8.86c-10.99,4.9-21.61,5-33.94,6.9-6.57,1.01-17.08,9.66-22.6,6.62l5.67-12.84-21.57,9.48,10.01-16.06-17.89,5.77c5.19-8.51,12.85-14.89,22.89-18.28,16.87-5.71,49-28.1,42.37-42.36l-25.37,23.85c-10.65-3.79-21.07-9.44-30.68-15.92,17.13-5.65,33.33-11.05,48.83-19.51,8.54-4.66,10.38-4.08,22.42.15-1.22-2.52-4.36-5.73-8.1-9.11l20.61-20.66c1.62-1.62,5.68-3.56,8.1-4.22l1.08-11.54-.06-4.7c-.06-5.19-24.5,25.32-41.07,36.63-20.94-5.8-38.94-10.15-61.36-8.76,8.06,7.74,33.53,4,54.18,12.76-27.38,17.63-54.82,20.59-84.07,21.05l-26.69-1.58c-11.85-.7-20.6-2.9-32.65-8.43l11.23-12.55c1.08-1.2,1.94-5.38,1.86-7-.1-2.01-7.77-1.56-9.05-.06l-12.5,14.63c-4.86-3.37-15.07-10.68-17.79-15.9l-9.99-19.2c-2.74-5.26-5.5-18.18-5.45-24.22l.21-24.45c.08-9.66-.81-18.37,1.28-27.71,1.55-30.56,9.9-58.95,25.75-85.07l-1.22-6.87c-.26-1.46-4.84,1.2-6.02,2.25-7.18,6.35-15.18,1.28-22.05-3.28-15.51-10.29-23.59-20.63-27.99-39.02-12.28-51.23,21.41-97.1,60.28-95.96,38.24,1.11,55.42,25.05,62.43,63.57l-20.31,13.42c-5.78,3.82-11,11.52-8.09,18.27,19.29-16.14,43.06-26.61,62.89-28.36,8.71-.77,17.21-3.22,25.5-2.07,18.94,2.62,35.24,7.18,51.7,17.39l-4.19,12.01c-.78,2.25-1.44,7.74-.97,9.96.47,2.22,5.89,5.56,6.67,4.35l9.17-23.33c3.74-9.51,7.56-18.26,16.02-24.5l17.76-13.1c15.6-11.51,46.18-11.17,65.46.03,7.95,4.62,12.33,10.78,17.39,18.07,17.48,25.19,16.02,61.65.18,85.84-11.51,17.59-25.85,29.21-46.72,34.77-22.5,5.99-33.66-7.34-39.41-2.18-1.29,1.16-3.89,5.45-2.37,6.29l9.07,5.06c12.43,6.93-2.12,22.63-.1,37.85-4.26,8.5-7.28,16.87-9.6,25.74-4.15,5.52-7.03,11.63-7.42,17.74l-.53,8.19c-.14,2.22,7.94.63,9.03-1.24l8.75-15.02c-.36-8.55,2.47-15.66,7.25-23.29.27-9.43,3.34-18.83,7.35-27.6-1.56-6.28-1.85-12.92-.46-19.92,24.45.19,45.21-8.53,62.24-25.53,31.34.3,59.07,15.06,82.1,35.92,7.21,6.53,13.98,12.72,19.08,21.23,19.54,32.58,30.5,59.07,24.32,99.33ZM795.6,392.98l-26.74-6.73,1.54-8.84c36.68,18.83,97.24,14.52,100.99-18.48,1.37-12.03-8.85-20.37-18.6-27.41,13.01,1.2,26.13,12.12,26.22,27.93.15,26.09-48.71,42.26-83.41,33.53ZM381.19,519.53c-.25-2.31-2.96-5.48-5.58-8.38-7.23-7.97-8.11-25.13-.68-33.42,2.84-3.17,6.52-6.91,6.63-9.72.09-2.34-4.76-5.99-7.02-6.85l-53.39-20.42c-26.98-10.32-53.45-18.06-81.61-24.94-18.01-4.4-36.03-12.33-55.05-11.62-15.64.58-31.87,6.23-47.29,9.52l-41.15,8.77-77.28,19.83-8.53,27.5c-2.89,9.32,2.49,26.81,8.99,34.47,6.74,7.95,20.28,7.97,28.93,11.47l52.18,21.1,73.32,26.3c7.53,2.7,20.78,12.08,30.44,9.45l124.05-33.8,46.16-12.88c2.25-.63,7.14-4.06,6.89-6.37ZM27.77,496.45c-12.73-8.61-8.82-29.3-4.35-41.5l5.86.88c4.38.66-5.14,15.59-1.51,40.62ZM196.72,559.4l-102.25-35.83-12.5-6.86-43.1-15.49-3.61-25.32,22.89,4.9-19.15-10.38c-1.89-1.02-.51-8.28,1.54-9.09l123.4,44.71,35.74,13.87c-5.88,13.9-6.45,25.11-2.96,39.5ZM188.77,502.57l-149.33-54.4,67.21-17.48,86.75-17.52,31.06,8.97,74.51,22.04,24.44,8.23,39.96,14.9-68.07,18.65-40.64,12.13-48.28,13.33c-6.33-4.44-10.84-6.39-17.62-8.86ZM335.58,524.82l-40.8,11.11-36.42,8.73-53.98,11.45c-2.84-9.88,8.52-5.93,12.5-10.74.45-.54.18-2.51-.52-2.4l-4.41.72-7.1,1.14c-1.46.23-.95-6.19-.79-8.45l19.66-8.14-17.6-.05c.83-4.93,4.8-8.25,11.09-9.94l115.81-31.13,30.55-8.6c-.24,5.92-4.2,10.14-10.6,11.82l-33.68,8.86c-26.94,7.09-53.33,12.55-78.69,23.71,29.43-3.82,55.38-13.94,83.2-20.89l36.33-9.07.95,10.08c.21,2.24-5.28,2.79-8.42,3.56-39.2,10.9-77.09,19.17-115.82,33.68,42.94-6.32,81.2-19.25,123.88-31.56l6.03,7.56-31.14,8.56ZM431.44,317.86c-6.81-15.21-.83-29.69,4.7-44.93,2.8-7.72,16.92-19.01,23.66-9.97,10.95,14.66,5.02,40.62-6.01,53.69-6.83,8.1-19.08,8.51-22.35,1.21ZM341.89,311.24c-17.96-2.4-18.19-39.15-2.64-59.01,2.09-2.67,10.15-4.35,12.79-2.61,11.33,7.46,6.31,63.82-10.14,61.62ZM517.57,336.68c-27.69-1.15-52.79,2.1-82.91,7.65,24.04-13.26,55.45-18.7,82.91-7.65ZM153.83,521.1l21.84,17.35-40.19-13.25c-31.48-10.37-62.25-20.39-91.17-37.44l107.82,38.17-67.15-36.38,85.38,32.01,2.43,3.49-18.97-3.97Z"/>
  <g id="extra">
    <path d="M1035.02,431.81c-.53-.52-2.36-.74-3.03-.37l-27.1,14.93c-3.66-10.58-7.27-20.11-12.25-29.83-.61-1.19-3.24-.83-3.92-.12l-3.85,3c-.27,7.99.89,15.92,1.44,24.04l.54,8.05-23.92-4.73-9.04-2.81c-.75-.23-2.69.2-3.11.84-.35.53-.47,1.77-.41,2.52l30.77,16.38-15.21,22.09c-.39.56-.59,2.18-.4,2.79.57,1.85,8.65-1.31,12.22-4.3l15.38-12.88,7.86,27.98c2.56-.22,3.46-2.08,2.88-4.33l-5.48-21.58c-.1-.19,1.04-2.25.91-1.9l7.71,2.48,2.35,14.19c.14.84,1.81,2.04,2.51,1.7.56-.28,1.11-1.68,1.06-2.31l-.92-11.77,12.97,3.19c2.53.62,5.94-1.06,6.75-3.5l-17.69-21.07,20.58-19.66c.57-.54.94-2.52.42-3.04ZM981.56,472.74c-.19-1.8.66-3.43,1.87-4.72l1.71-1.83c.46-.49,1.99.68,3.32,1.94-1.73,1.87-3.69,3.26-6.9,4.61ZM992.45,451.37l-.54-19.22c.33-.28,1.77-1.19,2.01-1.18l6.95,16.79c-2.62,1.73-4.49,2.56-8.42,3.61ZM996.18,462.84c-.82-1.13-1.85-3.24-1.42-4.13.64-1.32,3.43-1.59,5.33.37l-3.91,3.76ZM1000.14,465.98l4.13-3.47,1.37,5.52-5.49-2.05ZM1024.58,472.98c-5.39-.37-9-1.37-13.66-2.69l-1.79-11.06,2.32-1.39,13.13,15.13Z"/>
    <path d="M92.91,139.63l-9.35,1.26-3.77-17.33,6.54-1.98c.6-.18,1.47-1.84,1.16-2.29-.31-.45-1.51-.99-2.09-.89l-6.44,1.17-5.28-23.36c-.19-.84-2.32-2.55-2.79-1.95l-1.74,2.25,5.44,23.98-19.9,5.1-5.25-23.56c-.21-.92-1.93-2.2-2.67-2.04-2.4.51-1.97,5.32-.82,10.05l4.1,16.83-18.78,5.5-3.84-20.06c-.41-2.13-1.52-4.58-3.02-6.36-1.41-.1-3.17,2.26-2.87,3.68l5.02,24.38-18.86,5.58c-.99.29-2.31,2.2-2,3.02.31.82,1.82,1.41,3.1,1.7l18.88-5.99,3.55,18.34-19.5,8.38c-.8.34-1.78,2.1-1.5,2.86.23.64,2.11,1.28,2.77,1.03l19.62-7.4c3.3,12.53,2.78,23.73,7.88,36.64.27.69,2.08,2.45,2.43,1.82l1.43-2.57-7.14-37.84,18.84-6.75,7.93,33.12,2.44,1.61c.44.29,1.15-1.77,1.23-2.2l-6.87-33.54,19.38-6.04,3.97,18.03c.15.67,1.63,2.06,2.18,1.7.56-.36,1.5-2.13,1.36-2.9l-3.26-17.66,8.51-2.16c.59-.15,1.54-1.08,1.73-1.59.19-.51-1.15-1.64-1.76-1.56ZM36,155.13l-3.85-18.13,18.94-5.99,4.09,17.58-19.17,6.54ZM59.43,147.28l-3.81-17.13,19.88-5.7,3.83,17.14-19.91,5.69Z"/>
  </g>
</svg>