<?xml version="1.0" encoding="UTF-8"?>
<svg id="Layer_1" xmlns="http://www.w3.org/2000/svg" version="1.1" viewBox="0 0 1123.2 573.04">
  <!-- Generator: Adobe Illustrator 30.4.0, SVG Export Plug-In . SVG Version: 2.1.4 Build 226)  -->
  <path id="Idle" d="M973.12,342.85c3.75-1.76,5.59-6.46,8.19-9.33.81-.89,3.29-2.1,3.87-3.35,5.81-12.35,7.65-31.18-1.18-42.32-2.53-1.35-3.91-3.59-4.01-6.49-8.13-12.2-20.35-11.83-26.1-15.64-2.31-1.53-4.16-3.45-7.04-3.7l-24.49-2.19-21.07,2.09c-3.29.33-7.08,2.62-6.81,6.16.2,2.52,3.72,4.45,6.15,4.84l10.94,1.76,19.53,3.83c3.1.61,8.1.87,10.01,3.12,1.56,1.83,2.54,3.28,4.43,4.36l11.73,6.7c1.66,3.62,3.62,6.44,6.23,9.35,1.69,1.95,1.94,4.23,1.59,6.77l-1,7.4c-.3,2.22-2.84,5.89-4,7.95-7.22,1.32-11.96,7.23-17.7,9.27-8.25,2.94-16.87,3.71-25.7,3.42-7.97-.27-16.16-.07-23.81-1.98l-16.83-4.21c-5.07-1.27-9.67-3.66-14.26-6.09l-10.07-5.35-3.29-19.06c1.43-1.3,2.35-3.49,1.64-5.67l-3.96-12.09c.38-4.28-.05-7.68-2.38-11.48-1.21-1.98-1.63-4.33-2.45-6.7-1.27-3.67-4.24-7.13-6.36-10.27l.37-3.28c-3.17-6.05-7.38-11.5-11.9-16.23,2.25-5.14-8.27-12.53-14.46-16.28-3.69-2.24-7.52-4.66-10.37-7.5,1.04-1.29,1.48-3.59.35-4.3l-12.75-8.01c-5.33-3.35-10.73-5.87-16.92-7.76l-1.04-3.32c-4.93-2.61-10.22-4.23-15.85-5.17l-12.51-2.09-1.71-3.07-11.73-1.59-1.56-2.17c-11.86-2.73-24.65.34-34.57-1.96-3.51-.81-7.02-.88-10.48-.15-1.45-2.42,1.76-2.99,2.48-4.12,3.4-5.35,3.29-12.22,2.82-18.31-.25-3.24.45-6.1.97-9.09,2.19-12.53-2.56-24.26-9.77-34.57.96-8.96-6.8-11.31-10.32-13.53l-11.4-7.21c.23-1.55-.34-2.98-1.58-3.71-7.8-4.57-16.05-5.33-24.69-6.81-4.47-.77-8.71-1.64-13.15-1.26-.54-1.4-1.95-2.62-3.28-2.64-8.49-.17-15.35,3.01-23.09,5.58l-7.89,2.62c-6.03,3.03-12.74,5.53-16.9,10.79l-3.08,3.9-10.02,6.6c-9.96,6.56-7.83,15.17-14.52,19.87l-4.99,3.51-6.74-2.96c.05-3.99-3.02-4.04-5.32-5.44-7.3-4.45-14.69-11.61-18.19-4.51l-11.12-2.76c-.35-1.69-.61-3.05-.98-3.84-.31-.66-2.52-.96-3.26-.85l-5.4.78c-3.23-4.9-7.62-2.45-11.21-5.42l-7.27,4.36-11.84.98c-.11-1.55-.21-2.86-.47-3.74-.27-.88-3.37-1.4-4.17-.88l-13.22,8.55-8.25,3.26c-.7-1.44-1.5-3.07-2.43-3.41-2.05-.75-5.38,2.11-5.68,1.06l-.61-2.13c1.38-2.82,1.78-6.03-.03-9.02l-10.2-16.8c1.05-2.26,1.24-4.5-.47-6.47-5.4-6.2-11.63-11.42-19.18-14.73l-1.16-3.16c-3.28-3.18-7.64-5.58-12.35-5.84-2.29-.13-3.27-1.12-5.02-2.17-5.53-3.3-12.43-3.35-18.73-3.51-3.48.59-6.18,1.91-8.84,4.04l-13.25,2c-2.97-6.88-14.29,1.11-20.5,7.47-.98,1.01-2.84,1.51-4.06,1.51-6.77,3.92-9.22,11.13-13,17.51l-5.12,8.65c-7.37.2-5.92,11.08-9.36,19.93-1.39,3.58-1.79,6.91-1.41,10.83l-2.27,2.61c-.59,3.33-.34,7.05,1.19,10.13,1.75,3.53,1.95,7.43,3.14,11.06l1.14,3.48c.25.77-1.64,2.15-1.81,2.99-.67,3.35,2.41,6.6,3.36,9.67.78,2.52,1.26,5.13,3.36,6.64l4.69,3.37c-1.53,2.63,1.69,4.24,2.16,5.85.68,2.3.79,4.43,2.74,6.02,3.61,2.95,7.44,4.54,11.37,6.54l17.3,8.77c1.4,2.03,3.2,4.26,6.11,4.53l12.87,1.2c-6.63,10.48-3.39,23.17-6.73,27.87-1.66,2.33-2.97,3.97-2.99,6.86-.06,6.15-.93,11.75-1.9,17.86-.35,2.22-1.4,2.79-2.71,4.49-5.25,6.81,1.52,21.63-1.35,32.3l-3.66,2.8c-16.21-10.74-33.71-18.26-53.46-20.86-8.88-1.17-17.42-1.57-26.28.12-.75.14-2.14,1.87-1.69,2.48.36.48,1.83,1.39,2.47,1.35l9.88-.53c24.85.44,48.42,8.69,68.58,22.91l2,6.39c-.96,2.79-1.41,5.67-.92,8.93-19.57-7-39.37-9.09-59.39-6.42l-14.22,3.22c-.63.14-1.62,1.87-1.55,2.52.06.64,1.99,1.3,2.65,1.2l18.19-2.71c15.26-2.27,40.48,1.78,55.4,8.02l2.39,6.89c-5.32,4.68-.27,10.09,3.61,15.47l5.58,7.75-4.43,3.45c-1.15.89-3.99,2.23-4.63,3.55-.93,1.92-1.68,3.25-4.11,3.26-4.81.02-11.15,3.26-11.54,8.49-.17,2.25.65,3.75-1.2,5.28-1.25,1.04-2.53.66-4.57.18l-17.33-4.09c-3.46-.82-12.82-.06-17.46-5.59-5.48-2.21-11.79-2.19-17.61-3.07l-9.26-1.4c-5.9-.89-12.38,1.86-17.92,4.46-4.21,1.97-7.97,2.75-12.51,3.98l-11.5,3.1c-.87.24-3.03.19-4.09.17l-32.78,10.26c-8.92,1.98-17.19,4.8-25.97,7.33l-18.83,5.43c-3.95,1.14-4.14,6.85-5.4,9.94l-2.86,6.99c-2.64,6.45.09,13.3,2.94,19.33l1.13,4.52c2.22.43,2.73,2.84,3.85,3.98,6.75,6.9,19.01,5.1,28.48,10.49.97.91,2.73,3.32,3.96,3.72l20.47,6.66,18.33,6.99c6.68,2.55,13.16,5.28,19.95,7.43l15.12,4.79,5.51,3.13c14.3,8.11,23.41,4.93,36.83-.59l11.31-3.09,13.36-3.52c6.31-.9,11.99-3.05,17.81-5.53l11.73-3.27c5.89-1.64,11.62-4.12,17.6-5.34l11.81-2.4c2.97-.6,5.18-2.06,7.84-3.67,6.74-4.07,13.94-1.55,20.96-6.78,1.2-.9,1.4-3.74.77-5.06-1.54-3.23-4.39-2.5-4.93-5.36,3.13-.18,7.17-.54,9.66.83,2.33,1.28,4.38,3,7.13,3.01l21.09.12c2.47.01,5.33,1.51,7.51,1.99,8.86,1.97,17.42-.8,25.9-3.23,3.09-.89,6.71-.64,10.03-.55l15.7.41c1.27,2.36,3.24,4.25,5.93,4.89,8.98,2.12,18.14,1.21,26.68-2.37,4.55-1.91,8.8-2.15,13.33-.21,5.69,2.44,12.63.66,18.54-1.1l16.55-2.55c2.65-.41,4.3-.59,6.71-.33,7.16.79,13.68-3.25,19.72-6.49,5.04-2.71,10.65-4.61,16.26-6.25,2.3-.67,5.44-.14,7.23-2.11l10.26-11.28c2.15.5,4.77.68,6.76.18l10.4-2.59c4.65-1.16,6.28,3.96,16.92,1.55l15.04-3.42c4.55,2.43,9.87,2.31,14.68.25,1.16,2.12,2.45,3.83,3.78,5.32-.05,3.02,1.84,6.65,5.95,6.95l11.22.83c1.95,7.92,14.33,7.69,22.74,3.8l4.3.22c4.16-.77,7.29-3.77,11.21-5.1,2.72-.92,7.14-1.39,10.18-1.58l13.24-.82c6.79,2.7,17.4-2.07,25.17-5.09,2.38.3,5.26.37,7.62-.63,6.22-1.47,11.97-3.86,16.22-8.7,4.64-1,8.53-3.07,11.45-6.99l3.59-1.22c5.81-4.69,9.04-10.94,12.46-17.36l5.76-10.84c1.21.1,2.17.22,2.77.05,3.21-.91,5.65-18.57,5.36-18.7l1.27.52,9.14,3.55c12.38,4.81,25.08,7.87,38.34,8.24,3.73,1.74,7.69,2.23,11.71,1.91,4.98-1.86,9.77-1.32,14.95-.88,5.74.48,11.48-1.85,17.11-2.3,3.1-.25,6.03-.33,8.98-1.17,6.33-1.81,11.4-4.94,16.27-9.33,2.28-2.06,4.92-3.18,7.66-4.47ZM122.99,407.76c-3.18,7.14-2.37,14.3-.29,22.79l-4.18-1.07c-1.01-1.89-3.02-5.24-3.04-7.15l-.16-14.96c-.02-2.1,1.4-4.91,2.72-6.12l3.51,1.4c.74.29,2.29,1.23,2.55,1.98s-.57,2.29-1.12,3.14ZM237.47,461.41c-1.65,2.14-2.21,4.93-1.34,7.52l1.98,5.53-25.75-8.1-14.57-5.32-15.94-6.17-17.28-5.62-1.77-3.3-25.21-8.63c-1.25-.43-3.43-.55-4.19-1.22-1.45-1.29-2.7-2.19-4.4-3.12-1.66-4.83-2.27-10.63-1.07-15.71,6.14,1.53,10.43,4.33,16.65,4.58-4.54-4.58-10.17-6.4-15.85-9.23-.36-1.62.11-4.48.83-5.99l30.63,11.09,49.73,18c5.17,1.87,10.76,2.06,15.27,5.36,1.27.93,3.18,2.59,4.52,3.09l9.5,3.5c-2.06,4.66-2.58,8.98-1.75,13.75ZM240.98,437.77l-23.07-7.23-9.24-4.13-19.15-6.33-7.11-3.43-24.24-8.36c-5.51-3.25-11.53-5.03-17.71-6.22-2.77-2.7-5.95-3.88-10.21-4.81l11.83-3.7,24.83-8.49c3.25-1.11,6.98-.93,10.21-1.85l34.12-9.71,11.77-3.79c2.31-.74,4.82-.6,7.39-.65,4.26-.08,8.45-2.27,12.73-2.71l7.56.48,3.6,2.64c5.57,1.58,11.04,2.45,16.77,2.98,5.38.5,9.6,2.95,14.66,4.35l26.77,7.4c5.08,1.4,9.68,4.41,14.92,5.28,5.6.94,10.53,2.56,15.45,5.28,4.94,2.74,10.32,3.98,15.56,5.82l7.26,2.56-11.93,3.94-8.68,2.03-10.92,3.81-14.11,4.49c-2.7.86-4.76,1.69-7.59,2.33-10.73,2.41-20.88,6.13-31.39,9.28-3.7,1.11-7.05,2.09-10.75,4.09-4.47.4-8.87,1.29-13,2.83l-10.42,3.9c-.9.34-2.43.7-3.2.69-.89-.01-2.13-1.91-2.75-2.79ZM358.53,445.33c-2.59,1.1-5.13.7-7.71,1.06-8.91,1.26-17.23,5.42-25.8,8.35l-12.8,4.37c-3.39,1.16-6.98.27-10.07,1.32l-33,11.31-9.75,1.68-12.68,3.44-2.33-6.25,9.02-3.87c-2.85-1.98-4.83-1.39-7.76-1.27-1.48-.51-2.27-4.76-1.1-6.08l11.27-5.08c-4.15-1.68-6.7-.17-11.01.56-.08-2.36.56-5.44,1.62-7.8l12.31-3.09,19.58-5.41,35.56-11.12,27.09-9.01c5.06,0,9.94-1.24,14.07-4.38l10.59-2.82-2.64,6.29-13.22,4.02-39.75,13.3c-13.25,4.43-26.05,8.11-39.34,13.79,6.54.09,11.97-2.44,18.02-3.9l38.89-11.37,34.95-9.46,1.01,7.19-36.74,11.44-58.01,18.28-.83,1.58c-.24.45,1.33,1.04,1.96,1.13l41.79-11.37,53.76-15.24,3.09,4.13-10.07,4.27ZM449.24,418.72c-2.23,3.62-1.54,7.31.5,10.58-14.67,6.54-18.81,1.82-21.13,2.06l-12.68,1.26c-5.84.58-11.38.68-17.21-.14l-3.12-2.03-13.86-1.01c-3.86-.28-7.85-.66-11.13-3.27-.97-.77-.61-3.39.14-4.93,1.25-2.6-2.04-4.21.83-11.63,2.05-.79,4.22-1.61,5.37-2.92,1.18-1.34,1.41-4.7-.29-6-4.5-3.46-9.72-5.12-15.21-6.71-2.28-.66-3.36-2.1-5.09-3.46-4.87-3.83-11.86-4.3-17.82-5.4-4.29-.79-6.96-2.32-10.49-4.44-2.92-1.76-7.49-2.22-10.76-3.29.31-1.25,1.21-3.9.43-4.41l-3.84-2.51c3.02-2.69,7.01-7.02,10.69-8.03l10.82-2.97,6.05,5.89c-2.11,2.53-1.98,4.76-.28,7.11,2.87,3.96,7.51,5.22,11.77,6.64,3.22,4.37,7.29,8.12,13.51,7.07,1.05,3.06,3.37,5.72,6.88,5.83l12.07.37c2.11.06,6.09.82,8.12,1.46,1.29.4,3.46,2.7,4.93,2.83,11.76,1.11,22.08-2.55,34-1.08,1.17,1.34,3.35,2.8,5.16,2.59l24.97-2.98,6.42,1.26-2.97,1.95c-3.16,1.8-6.03,3.81-8.67,6.2-5.76,2.27-9.8,7.93-8.11,14.15ZM839.64,347.19c-1.26-.38-3.41.31-3.76,1.47l-3.61,11.93c-2.14,7.08-5.34,16.64-11.85,18.65-5.85,4.45-9.81,11.95-16.62,15.15l-19.33,9.08c-16.06,7.54-17.15,2.79-22.3,3.69l-22.86,3.97c-4.35-3.32-7.04-.4-13.58,1.05-6.09,1.35-9.13,8.77-20.66,3.88l7.39-6.02c.84-.68.69-3.28-.18-3.65-3.21-1.4-8.58,2.22-12.54,4.93-2.82,1.93-7.19,1.62-10.62-.61,3.83-5.22,10.55-6.14,8.42-10.8-.6-1.31-3.3-1.94-4.58-1.16l-9.09,5.56c.52-2.43,1.46-5.23,2.64-6.7l3.98-4.92c1.13-1.4,3.71-3.16,5.5-4.47,4.57.96,8.66-.22,11.6-4.1l14.23.34c1.96.05,3.28-4.9,2.45-6.45l-4.44-8.39c-1.52-2.88-1.3-4.37-.68-7.5,2.32-11.78-4.65-19.97,2.74-20.14,3.7-6.49,2.21-12.43,8.05-18.51l7.37-7.66c.62-.64,1.05-2.3.89-3.11-.91-4.65-10.95,3.54-15.4,12.7-.36.73-2.06,1.15-2.72,1.38-3.6,2-6.17,6.64-6.95,10.93l-2.3,12.69c-5.12,8.83-.68,12.64,1.78,20.27l-1.72,6.39c-.32,1.2-3.32,0-4.6-.42-4.41-1.45-9.8.5-13.9,2.56l-.85,3.53c-5.78,2.45-11.66,4.88-10.88,10.6l-3.84,4.47c-1.16,1.35-5.19,1.67-6.91,1.3-10.54-2.27-14.28,3.89-16.87-1.3-1.1-.85-4.1-.49-5.83,0l-20.2,4.78-3.58-1.05c3.59-4.29,4.16-7.79,5.13-12.73l1.33-6.81c.18-.93-.96-2.91-1.79-3.27-.83-.36-2.65.78-3.02,1.71l-2.93,7.22c-5.44-1.21-8.66,4.34-10.35,10.4-.99,3.56-4.89,5.96-7.43,8.49-2.09,2.08-4.66,2.39-6.96,3.78-10.42,6.28-20.5,12.95-31.81,17.52-.65-.39-2.6-1.34-3.5-1.15l-14.99,3.24c-5.59,1.21-10.94,2.59-16.5,2.65l-15.91.19c-2.07-1.55-4.46-3.61-8.1-2.23l-13.32,5.05c-4.18,1.58-9.17.17-13.81-.87,4.68-5.98,11.88-5.56,11.46-9.74-.12-1.2-2.08-2.66-3.34-2.38-12.83,2.84-14.41,11.9-23.32,6.37,2.66-3.95,5.54-6.42,9.45-8.9.96-.61,1.07-3.33.09-4.24-2.96-2.76-11.96,2.77-16.89,7.71-1.35-2.15-1.34-4.8.12-6.4l7.18-7.89c1.71-1.88,4.44-4.88,6.9-5.52,6.77-1.77,12.05-4.18,17.97-7.72,2.17-1.3,7.18-.97,9.07-2.75,3.53-3.31,7-4.05,11.44-5.35,5.23-1.53,9.91-5.57,14.57-8.51l3.34-.34,7.58-5.77c.56-.43,3.4.82,3.46.11l.26-3.35,4.99-6.34c3.6-1.48,5.96-4.14,7.24-7.69l9.41-10.36c.63-.7-.05-3.21-.73-3.8-3.68-3.23-7.93,7.05-12.44,10.24-3.63,2.56-5.9,4.51-8.56,8.28-1.61,2.28-5.24,4.33-7.73,6.41-11.1-4.15-22.07-6.7-33.78-8.87l-33.36-3.03c-1.11.68-2.31,1.56-2.84,2.26-.57.76,1.62,2.74,2.77,2.77,20.98.44,41.33,2.77,61.96,10.04l-9.43,7.26c-7.38-2.17-12.02,6.54-20.89,8.59-1.26-1.15-3.38-2.64-4.46-2.38l-13.65,3.24-13.31,1.24c-4.73.44-10.01,2.16-14.61.83-1.5-.43-3.51-1.88-5.25-1.76l-28.69,2.06c-1.98.14-4.39-1.27-5.75-2.36l-17.37-.52c-9.86-.3-10.95-3.1-18.97-5.66,3.46-3.91,7.28-7.73,11.45-10.83,3.14-2.33,4.55-7.14,1.23-9.49l-7.35,1.24-6.36,8.37-6.39,7.31-9.17-4.57c-2.29-1.14-2.58-2.64-2.85-5.41-.99-2.01-4.6-4-7-5.37l-3.72-5.64c2.12-1.38,3.37-3.49,2.22-5.55-4.45-7.97-7.91-5.21-10.46-10.9l-2.78-6.2c2.38-1.42,3.31-3.91,2.23-6.49-2.91-6.97-5.51-14.25-5.7-21.6l3.19-1.07c.76-.25-.45-2.62-.56-3.56l-1.66-14.24c-1.57-5.89-.34-11.65,3.15-16.28l2.15-25.38,1.69-6.17c1.35-4.94,1.6-10.33,2.24-15.39,1.19-1.18,2.67-3.22,2.94-4.91,1.41-8.88,4.24-16.39,8.28-24.32,1.38-2.71,1.69-8.25-1.63-9.04-3.55-.85-5.56,3.62-7.23,6.21-5.01.36-10.87-1.05-15.65-2.39l-.69-4.56c-4.06-1.76-8.06-2.71-12.39-3.23l-7.91-3.98c-3.02-.6-3.64-2.87-3.1-5.35-2.61-3.35-6.05-5.98-9.74-8.05-2.18-1.22-2.59-3.28-3.12-5.61-.49-2.11-.9-3.29.54-5.42l-5.67-11.27c-.81-1.61-.5-5.9-1.72-7.19-4.45-4.16.27-5.87-.4-11.66-.62-7.02.54-13.41,2.6-19.99l-.23-2.31c-.06-.58,1.55-1.19,2.09-1.59l8.14-17.99c.45-.98,2.06-1.66,3.27-1.85l8.38-10.79c.63-.81.76-3.57,1.52-4.01.76-.44,2.09-.49,3.41-.64l7.22-4.46c3.06,5.27,11.52-4.31,21.55-4.92,3.55-.22,7.41,2.83,11.02.85,1.52-.83,3.78-1.52,5.71-.79,4.91,1.88,10.78,2.79,15.06,5.49,4.88,3.08,9.01,6.64,14.36,9,2.4,1.06,2.7,2.68,3.92,4.77,1.62,2.77,4.57,5.26,6.79,7.99l1,4.47,7.54,9.53c-.25,6.91,5.03,11.09,3.55,16.59l-11.49,9.05c-1.52-1.02-3.74-1.23-5.01.2-4.82,5.46-12.12,14.94-8.44,17.82.94.74,3.84.69,4.75-.14l10.38-9.52,3.37-3.03c4.15,2.51,6.74-3.53,13.58-6.44,1.57,1.96,3.77,2.56,5.99,1.25l9.83-5.79c3.76-2.22,8.07-3.71,12.06-4.72l-.32,3.37c-.1,1.04,2.93,2.8,8.35.27,3.21-1.5,6.95-3.99,10.32-3.87l7.16.25c2.48.81,4.64,2.05,7.58,1.74,2.8-.29,5.43.21,8.18.67,5.48.92,11.28,1.4,16.42,3.44l8.36,3.31c2.69,1.07,6.19,3.36,8.55,5.17l8.39,6.42-3.99,11.43c-.45,1.28-1.13,3.26-.88,4.49.24,1.18,2.06,2.6,3.1,3.72,1.22,1.31,2.61,2.84,4.04,2.7,5.52-.55-.87-12.02,6.72-18.47,4.32-3.67,6.8-9.48,8.48-14.76,1.48-4.64,4.62-6.47,8.73-8.62,2.82-1.48,6.53-5.54,8.69-7.9.62-.68.07-3.15-.31-4.09,6.66-6.82,15.55-7.79,20.51-12.58,1.53-1.48,2.86-2.94,4.86-3.65l10.43-3.69c.81,1.53,1.1,2.31,1.68,2.8.69.59,3.16.5,4.16.49,8.53-1.74,16.41-2.08,24.81-.49l10.1,2.63,7.34,1.89c5.99,2.5,11.44,5.63,16.24,9.79-1.63,4.93,3.91,9.88,8.6,13.57.8,3.78,2.18,7.32,4.1,10.75-.53,3.86.41,7.51,2.53,11.06,1.75,6.43,3.13,13.75.81,20.21l-2.41,6.72c-1.34,3.74-1.5,9.11-4,12.09-2.45,2.91-4.45,5.42-6.33,8.69l-5.76,10.01c-1.33,2.31-4.78,5.92-7.13,7.08-2.31,1.14-4.32,1.79-6.32,3.16l-12.75,8.75c-1.47,1.01-4.07.13-5.75.53l-19.12,4.51c-9.08.52-18.09-1.71-26.63-4.23-1.87-.55-3.72-2.31-5.93-2.12-.67.06-2.46,1-2.46,1.65v2.73c-1.3.43-3.35,1.68-3.61,2.84-.31,1.4,1.13,3.3,2.45,3.73l10.74,3.53,2.68,7.4c.84,2.3-.26,6.78-1.64,9.23l-5.73,10.14c-.47.83-.24,3.4.38,3.82.72.49,1.69.69,3.2,1.03l-9.1,17.63c-1.19,2.3.23,4.78,2.56,5.61l-9.86,13.32c-1.19,1.6-1.73,3.46-1.04,5.11.77,1.86,2.88,2.33,4.93,2.36-1.17,1.85-2.69,4.83-2.62,6.67l3.55,3.97c1.6,1.79,4.79-.71,5.02-2.72l.63-5.61,5.92-8.36c.8-1.12.61-4.38-.39-5.13-6.46-4.88,2.7-8.23,7.5-17.25,1.69-3.18.28-6.96-3.17-7.79l3.57-6.87,1.79-5.91c2.27-2,4.32-4.23,4.89-7.03.56-2.74-1.64-4.81-3.71-5.69l2.85-12.43c9.26.85,14.26-3.2,26.09-2.74,8.24.32,11.46-8.55,15.02-4.41l10.56-6.3,3.93.5c4.1-3.14,9.84-6.39,11.39-11.16,1.46-4.5,4.12-7.51,8.44-9.65,2.42-1.2,4.37-4.69,5.97-7.31l16.85-2.7c5.31-.85,11.24-.01,16.28.55l1.72,2.53,19.32,2.41c7.56.94,14.73,2.7,21.84,4.85-.46,1.61.01,3.41,1.2,3.83l18.02,6.39,11.27,6.2c-.06,2.29.59,4.06,2.54,5.25l18.02,11.1,9.34,8.89c5.98,5.69,8.93,13.65,13.56,20.45,1.55,2.28,1.98,4.6,2.94,7.04l9.81,24.85c1.4,3.54,1.98,6.93,2.17,10.76l1.13,22.63c.5,10.07,1.77,20.19-2.05,29.49ZM951.81,345.67l-16.08,6.12c-5.88-.27-11.61-.19-17.24,1.72-4.05.55-7.66-.55-11.59-1.18l-43.28-6.92c-.66-6.48-7.92-2.57-12.06-7.01l.9-9.81c4.2,3.45,8.54,6.97,13.85,6.92,2.4-.02,4.45.02,6.87.88,6.07,2.16,12.13,5.37,18.56,6.09l17.23,1.94c6.24.7,12.58.63,18.73-.35l13-2.06c15.62-2.48,20.99-10.61,29.15-22.86,6.87-10.32.9-14.39.18-22.51-.2-2.26-3.1-4.06-4.48-5.79-5.14-6.42-11.06-11.22-19.18-13.4l-14.77-4.94-25.83-5.29c9.73-2.34,27.8-1.2,36.87,1.93l16.72,5.77c5.64,2.89,10.08,6.93,14.93,10.72,1.27.99,1.51,3.62,2.1,4.93l4.36,9.75c3,6.7,2.89,13.93-1.13,20.23-2.1,2.54-3.51,5.69-4.37,8.95l-9.8,10.2c-6.14,6.4-8.9,3.1-13.63,5.96ZM457.87,324.42c-1.5-2.58-3.42-3.76-7.04-4.04-1.23-5.59-3.11-12.17-2.48-18.2,1.21-11.59,5.5-21.94,11.42-31.76,6.71-5.45,15.06-9.89,21.75-5.16,10.52,13.95,6.25,31.44-.47,47.07l-7.17,6.86-5.66,3.12c-3.55,1.96-6.8,3.18-10.35,2.11ZM383.75,274.73c1.62,13.31-.99,26.12-10.48,36.34-2.07,2.23-4.25,3.61-7.09,1.47-4.07.95-6.72-1.58-8.32-4.98-5.36-11.46-5.24-24.11-1.23-36.2,3.48-10.51,8.53-17.54,20.01-16.87,3.56.21,5.19,4.47,5.55,7.4l1.56,12.84ZM538.34,335.67c.73.99,1.44,2.24,1.54,3.01s-2.28,1.12-3.04.93c-14.06-3.56-28.84-3.03-43.28-1.49l-33.96,7.18c-.8,0-2.75-.48-2.76-1.17-.02-.82.66-2.12,1.44-3.28l32.49-6.91c16.12-2.15,31.92-2.2,47.57,1.72ZM224.96,460.26l-1.86.85-19.42-6.43c-23.57-8.09-46.45-16.55-68.99-27.04-.73-.34-1.57-1.98-1.31-2.61.26-.63,2.04-1.34,2.83-1.01l21.28,9.02,41.16,16.87c4.08,1.67,7.88,3.86,12.38,3.91-11.29-8.25-23.37-12.74-35.34-18.52-4.81-2.32-10.7-3.32-13.65-8.43l50.63,19.55c3.66,1.42,6.63,1.89,10.34,5.39l-10.65-1.62c.97,1.36,2.23,2.61,3.75,3.53l7.82,4.68c.48.29,1.47,1.64,1.04,1.84Z"/>
  <g id="extra">
    <path d="M1035.02,431.81c-.53-.52-2.36-.74-3.03-.37l-27.1,14.93c-3.66-10.58-7.27-20.11-12.25-29.83-.61-1.19-3.24-.83-3.92-.12l-3.85,3c-.27,7.99.89,15.92,1.44,24.04l.54,8.05-23.92-4.73-9.04-2.81c-.75-.23-2.69.2-3.11.84-.35.53-.47,1.77-.41,2.52l30.77,16.38-15.21,22.09c-.39.56-.59,2.18-.4,2.79.57,1.85,8.65-1.31,12.22-4.3l15.38-12.88,7.86,27.98c2.56-.22,3.46-2.08,2.88-4.33l-5.48-21.58c-.1-.19,1.04-2.25.91-1.9l7.71,2.48,2.35,14.19c.14.84,1.81,2.04,2.51,1.7.56-.28,1.11-1.68,1.06-2.31l-.92-11.77,12.97,3.19c2.53.62,5.94-1.06,6.75-3.5l-17.69-21.07,20.58-19.66c.57-.54.94-2.52.42-3.04ZM981.56,472.74c-.19-1.8.66-3.43,1.87-4.72l1.71-1.83c.46-.49,1.99.68,3.32,1.94-1.73,1.87-3.69,3.26-6.9,4.61ZM992.45,451.37l-.54-19.22c.33-.28,1.77-1.19,2.01-1.18l6.95,16.79c-2.62,1.73-4.49,2.56-8.42,3.61ZM996.18,462.84c-.82-1.13-1.85-3.24-1.42-4.13.64-1.32,3.43-1.59,5.33.37l-3.91,3.76ZM1000.14,465.98l4.13-3.47,1.37,5.52-5.49-2.05ZM1024.58,472.98c-5.39-.37-9-1.37-13.66-2.69l-1.79-11.06,2.32-1.39,13.13,15.13Z"/>
    <path d="M92.91,139.63l-9.35,1.26-3.77-17.33,6.54-1.98c.6-.18,1.47-1.84,1.16-2.29-.31-.45-1.51-.99-2.09-.89l-6.44,1.17-5.28-23.36c-.19-.84-2.32-2.55-2.79-1.95l-1.74,2.25,5.44,23.98-19.9,5.1-5.25-23.56c-.21-.92-1.93-2.2-2.67-2.04-2.4.51-1.97,5.32-.82,10.05l4.1,16.83-18.78,5.5-3.84-20.06c-.41-2.13-1.52-4.58-3.02-6.36-1.41-.1-3.17,2.26-2.87,3.68l5.02,24.38-18.86,5.58c-.99.29-2.31,2.2-2,3.02.31.82,1.82,1.41,3.1,1.7l18.88-5.99,3.55,18.34-19.5,8.38c-.8.34-1.78,2.1-1.5,2.86.23.64,2.11,1.28,2.77,1.03l19.62-7.4c3.3,12.53,2.78,23.73,7.88,36.64.27.69,2.08,2.45,2.43,1.82l1.43-2.57-7.14-37.84,18.84-6.75,7.93,33.12,2.44,1.61c.44.29,1.15-1.77,1.23-2.2l-6.87-33.54,19.38-6.04,3.97,18.03c.15.67,1.63,2.06,2.18,1.7.56-.36,1.5-2.13,1.36-2.9l-3.26-17.66,8.51-2.16c.59-.15,1.54-1.08,1.73-1.59.19-.51-1.15-1.64-1.76-1.56ZM36,155.13l-3.85-18.13,18.94-5.99,4.09,17.58-19.17,6.54ZM59.43,147.28l-3.81-17.13,19.88-5.7,3.83,17.14-19.91,5.69Z"/>
  </g>
</svg>