<?xml version="1.0" encoding="UTF-8"?>
<svg id="Layer_1" xmlns="http://www.w3.org/2000/svg" version="1.1" viewBox="0 0 1123.2 573.04">
  <!-- Generator: Adobe Illustrator 30.4.0, SVG Export Plug-In . SVG Version: 2.1.4 Build 226)  -->
  <path id="Learning" d="M916.34,302.24c-4.33-6.71-10.62-11.19-17.94-14.13-2.89-3.28-6.51-5.02-10.85-6.28-8.4-1.23-17.07-3.06-25.66-1.91l-19,2.53c-2.22.3-4.21,3.3-4.08,5.1.14,2.04,2.13,3.85,4.27,4.17l9.4,1.43,17.35,3.74c12.84,2.77,11.38,5.83,14.14,6.89,5.87,2.26,9.4,6.62,12.15,11.89,1.05,2.01,3.24,4.83,3.6,6.75l-1.83,10c-1.14,2.7-3.86,6.37-5.9,8.67-9.24,3.03-14.46,9.27-26.73,9.46l-14.27.22-15.22-1.9-9.3-2.39-14.1-3.71-7.79-4.47-.75-19.96.54-17.94c-.85-10.83-5.28-20.78-9.24-30.57,1.21-1.71,1.47-3.44.52-5.25-3.22-6.07-7.33-11.65-11.59-16.88.02-1.42-.2-3.96-1.1-5.02l-9.35-11.02c.73-1.77.92-4.23-.53-5.66-4.27-4.21-8.69-7.59-13.55-10.97l-6.89-4.8-4.18-3.83c-7.12-4.33-14.26-7.53-21.96-10.86-5.63-6.36-13.9-5.22-18.89-6.2l-7.57-1.49c-.37-2.33-1.72-3.74-3.89-4.06-13.91-2.03-23.01,3.23-20.91-2.48l3.35-9.13c2.22-.93,3.47-2.09,4.27-4.1,2.31-5.78,3.3-11.13,2.38-17.45l.9-4.73,1.12-6.72c.99-5.95-1.27-10.74-2.74-16.11-.95-3.45-2.12-6.54-4.38-9.4,1.67-7-5.62-15.56-12.6-19.99l-7.07-4.49c-1.85-1.17-2.27-2.68-2.86-4.81-2.6-3.12-7.34-5.64-11.5-6.6l-17.22-3.95c-3.91-.9-7.51-2.45-11.72-2.32l-14.11.44c-10.45-1.07-20.57.42-30.19,4.45-2.09.88-3.59,3.38-4.42,5.08l-12.65,6.99-5.5,2.7c-10.32,5.07-10,13.01-12.45,16.07l-4.48,5.59c-3.48,1.51-5.77,3.87-7.35,7.38l-8.14-4.73c-3.83-2.22-7.46-5.16-12.16-2.1l-8.58-2.2c-.57-2.84-2.61-3.99-5.65-3.64-2.47.28-4.72-.88-6.95-1.82l-5.99-2.54c-2.08-.88-5.66,2.3-7.52,3.22l-9.97.59c-1.13-10.19-15.27,1.94-21.93,2.43l-5.42.4c-1.26-1.76-2.24-2.4-4.22-3.16l-1.25-4.67-5.07-11.42c4.8-4.41-2.42-11.82-7.44-17.53l-.49-3.6c-2.7-4.99-6.88-8.51-11.78-11.29l.49-3.14-10.89-8.24c-2.18-1.65-5.32-1.15-8.02-1.67-8.1-1.58-10.52-5.47-12.67-5.98l-7.88-1.91c-12.71-3.08-14.22,2.52-17.75,3.27l-10.65,2.28-2.76-1.64c-3.94.33-6.47,2.18-9.62,4.31-7.56,5.13-14.12,3.43-18.9,10.3l-3.61,5.19c-.31.44-1.21,1.21-1.66,1.42-.45.22-1.75-.46-2.51-.79-4.89,2.85-9.12,7.39-11.85,12.58l-.29,5.06-3.54,9.83-2.98,1.32c-3.34,5.38-4.12,11.27-3.27,17.62.38,2.87-.28,6-.81,8.78l-1.21,6.34c-.61,3.21,1.56,7.57,2.38,10.95-.87,3.11-1.14,6.02-.82,9.19.69,4.34,2.4,6.98,5.37,10.04,1.74,1.8,4.17,5.94,4.46,8.32.3,2.55-.59,4.94,1.3,6.87l6.3,6.45c1.81,1.85,2.01,5.13,4.54,6.46l9.84,5.14c3.34,2.84,7.14,4.84,11.49,6.02,1.52,3.33,4.97,3.91,8.42,3.14,3.78,1.85,8.24,3.07,12.47,3.18l-1.77,8.14-3.36,12.09c-1.4.76-3.34,2.13-3.86,3.49-4.33,11.23-1.39,19.34-4.16,29.78-8.42,5.65-.27,20.34-3.66,28.5-1.89,4.56-3.09,8.74-1.59,14.2-11.61-5.31-22.81-9.48-34.74-12.86l-10.25-23.41c-.75-1.71-1.06-3.9-2.5-4.61-6.6-3.27-22.26,6.15-23.22,9.27-.42,1.36.17,3.59.63,4.79l2.92,7.62c-12.44-1.15-23.91-1.5-36.08.56-.78.13-2.06,1.6-1.99,2.35.07.75,1.82,1.91,2.65,1.8l10.26-1.3c9.13-.08,18.19.32,27.07,1.69l10.57,25.73c-12.63.62-24.61,2.9-36.66,6.68-.45.96-.9,2.06-1.01,2.71-.11.65,1.87,1.08,2.56,1.03,12.1-3.4,24.15-5.4,36.94-5.73l12.18,29.85c-1.82,1.75-4.28,2.47-6.9,2.61-6.07.32-10.04,5.5-11.03,11.12-.47,2.66-2.08,3.68-3.91,5.1-4.4,3.42-5.77,14.78,1.13,18.98-.96,6.02,2.25,13.18,8.83,15.07,3.29.94,6.44,1.3,9.92,3.76-22.85,13.16-45.12,26.78-67.18,41.82-.94.64-1.45,2.99-.99,3.98.41.87,1.83,1.9,2.94,2.27l9.05,2.97-7.32,6.13c-.67.56-1.25,2.68-.85,3.44.34.65,1.67,1.77,2.51,1.99l13.42,3.48,11.46,2.82,38.05,8.9,85.93,21.14,22.08,5.91c2.83.76,3.68-.4,5.59-2.15l60.55-55.4,5.42-4.69,7.34.82,8.8,1.68c5.74-.44,10.58-1.96,15.93-3.88l8.13,1.05c3.25,3.88,14.97,2.15,20.65-.93,3.83-.23,7.3-.92,11.29-2.44l3.12,1.37c7.25.03,13.06-3.15,18.88-7.05l8.24-3.76c1.7,1.07,3.56,1.47,5.41.53,5.53-2.8,11.18-5.88,15.3-10.45l7.67-8.51c5.62,2.42,11.2,3.28,17.08,1.8l10.23-2.56,2.44,1.93c8.74.7,14.37-5.37,17.2-1.4-1.02,2.75-.25,4.85,2.09,6.62,3.39,2.57,8.3,2.17,12.41,3.4,4.82,6.65,13.65,5.82,22.27,2.84,1.54-.53,2.78.74,4.01,1.1,6.59,1.94,13.76.1,20.33-1.79l8.65-2.49c.93-.27,3.01.82,4,1.11,8.09,2.42,15.3-4.72,23.47-6,6.13,1.92,14.38-1.61,19.6-6.13l5.96-5.14c1.77,1.63,4.3,1.52,5.8-.16l13.09-14.69,3.64-.69c4.22-4.75,6.43-10.44,8.21-15.94,2.79-.51,5.34-2.49,5.67-5.86l1.14-.43c7.93,7.54,21,4.83,27.14,8.54,1.24.75,2.76,2.12,4.06,2.29,9.43,1.24,18.58,1.64,27.98.26,2.05-.3,3.77,0,5.66.27,7.92,1.18,15.26-1.9,22.21-4.89,6.22.67,14.07-3.57,18.12-8.72,1.3-1.65,6.59.09,11.73-9.87,2.88-.87,5.23-2.75,5.17-6.23l2.48-3.76c3.59-5.46,4.79-21.49,1.13-28.99-3.49-2.77-5.39-6.79-5.85-11.09ZM327.34,335.77l4.83,5.85c-2.57,7.06,4.81,12.38,10.33,17.82-.7,2.13-.59,4.63,1.56,6.13l9.58,6.71,6.85,4.28c-.64.92-2.7,2.02-4.26,2.54l-12.89,4.33c-2.18.73-3.6.58-5.55-.02-2.53-.78-5.59.32-8.55,1.16l-2.76-6.83,1.67-12.77c-.16-7.16-5.73-12.23-12.77-13.63l-4.5-10.05c3.83-.96,6.4-2.52,9.71-4.32l6.75-1.19ZM328.56,411.08l-5.63,2.58-7.64-8.44c-1.02-1.13-2.09-2.3-2-3.27.11-1.29,1.63-3.71,2.71-3.55,1.37.21,3.77.75,4.27.09l2.45-3.25c.75-.99,4.02.23,4.55,1.42l1.29,14.41ZM323.4,317.29l1.56,4.54c-2.04,1.54-2.79,3.54-1.29,6.91l-5.49,2.95c-3.42-2.2-6.8-1.46-10.7,1.34l-8.88-20.62c8.7,1.04,16.67,2.68,24.79,4.88ZM320.05,299.92c1.13,3.79-1.11,6.7,1.83,12.32l-25.5-4.86-8.24-19.34c11.23,2.56,21.29,6.93,31.9,11.87ZM256.45,266.72c3.57-3.28,7.99-5.37,12.84-5.73l6.84,16.21-6.78.82c-2.22.27-6-.76-8.58-1.07l-4.32-10.23ZM274.38,310.96l-2.15-5.34-6.6-16.23,6.96-4.53c1.53-1,5.35.33,7.3.86l12.74,29.46,31.57,74.03c-3.53-.08-5.99,1.16-7.59,3.7-2.79-.22-4.91.62-6.83,3.17-1.33-3.98-4.21-8.64-4.6-12.97-.26-2.91,1.59-5.19-.42-8.63l-2.24-3.84c2.59-1.92,4.01-4.74,2.89-7.87-2.48-6.94-8.33-11.74-15.39-13.77l-15.63-38.05ZM276.17,389.7l-6.54-4.46c-1.52-2.74-2.62-4.42-4.82-6.66l-.07-5.64c-.09-7.67-1.78-15.65,6.31-17.48l8.42-5.97c.19,2.53.9,3.94,2.74,4.43,6.36,1.72,13.18,4.3,15.42,9.99l-6.96-.97c-1.09-.15-2.88,1.93-3.09,2.97-1.12,5.37,9.38,4.07,9.8,14.6l-8.89-2.98c-.87-.29-2.85.52-3.47,1.09-2.96,2.71,2.05,6.14,6.67,9.08-5.32,3.41-10.93-.24-15.51,2.01ZM218.13,441.52c22.96-15.02,45.54-28.83,68.8-42.36,6.93,1.24,11.31-1.12,16.5-1.45l2.56,6.67,24.32,24.99c-1.7,1.42-3.31,2.85-4.28,5.02-.59,1.32.96,3.88,2.15,5.23-6.34.7-13.42,2.72-13.37,7.65.05,5.06,8.69,6.7,15.38,7.03l16.08-14.15,9.02-8.74c-6.7-3.83-13.13-4.18-19.86-3.57l-2.32-35.2c2.26-.16,4.79-.77,7.28-1.88,2.03-.91,3.74-.65,5.98-.48,5.22.4,10.39-2.62,14.48-5.42,3.29-.09,6.11-.69,9.11-1.87l13.56,2.37,12.1,2.11c1.1.54,3.34,1.7,4.56,1.96l11.3,2.41,34.82,7.38-3.82,3.17c-3.34,2.77-9.16,5.29-6.46,13.14-3.34,4.84-2,11.11,3.23,13.74l1.38,1.82c.36.48-1.09,1.46-1.65,1.96l-42.66,38.07-12.39,11.61-28.72-6.79-40.71-9.59-96.38-24.87ZM328.96,435.06c.59-5,14.1-6.64,22.06-2.89l-9.97,8.53c-5.49-.39-12.47-2.4-12.09-5.64ZM338.32,443.19l-9.68,8.45c-5.74-.4-11.62-2.98-10.77-4.94,2.09-4.82,13.32-5.66,20.45-3.51ZM439.62,392.13l16.13-2.88c2.46-.44,4.73-1.03,7.32-.04-3.89,1.89-6.89,1.94-9.07,5.99l-14.38-3.07ZM400.77,485.07l-12.47,11.67-10.88-2.99-87.13-21.32-43.54-10.09-25.91-5.89,6.61-5.74,14.43,4.2,139.89,33.82c4.15,1,4.52.04,7.3-2.47l17.43-15.72,26.4-23.85,13.11-11.45,7.53,1.87-52.78,47.96ZM795.6,332.3l-3.46,18.7c-1.91.32-3.5,1.26-3.96,2.48l-5.45,14.6c.85,2.42-.46,4.08-2.83,4.4l-9.29,12.63c-4.8-3.58-9.9,7.93-20.26,14.73-5.84,3.83-10.68,3.05-16,5.08l-12,4.58c-.96-1.57-2.84-2.71-4.41-2.2l-18.13,5.89c-1.36.44-4.25.85-5.56.59-2.85-.9-5.51-.75-8.16-.46l-1.08-2.67c-.26-.63-2.58-.96-3.29-.65l-12.29,5.32c-3.38,1.46-7.54-.49-10.75-1.37l6.59-4.78c.89-.65,2.05-1.76,2.13-2.62.32-3.64-7.03-2.34-11.37,1.61-3.2,2.9-7.29,3.98-10.89.32l7.68-6.41c.74-.62,1.37-2.59.93-3.43-.44-.84-2.84-1.94-3.78-1.44l-9.41,5.05c-.08-1.44.36-4.26,1-5.74l10.8-9.12c15.04-8.68,22.89-1.92,24.93-2.32,1.16-.22,2.64-2.62,2.51-4.18-.19-2.3-1.96-4.8-3.47-6.46-2.25-2.48-1.85-4.04-1.59-7.2l-1.12-9.93c4.54-5.72,2.61-12.82,6.37-20.91l3.31-.98,5.92-8.01c.44-.6.03-2.68-.36-3.22-2.6-3.57-9.66,6.04-14.1,10.15-4.43,4.1-6.59,8.38-7.1,14.49l-.64,7.7-2.33,2.7c-2.55,8.25,4.11,14.48,1.05,17.1-.61.53-2.52.74-3.37.5-5.49-1.54-13.7.59-14.71,5.23l-10.13,6.11-.9,3.99c-2.59,1.94-4.21,3.59-4.46,7.35l-4.94,1.76c-4.37-4.1-12.18,2.35-18.46,1-2.63-.57-4.22-1.02-7.78-.99,4.14-5.36,10.19-17.68,6.21-20.08-.82-.5-3.18.01-3.75.88l-6.73,10.29c-2.47,1.18-4.51,3.06-6.2,5.32l-11.3,11.87c-1.18,1.24-2.88,1.74-4.39,1.8l-7.42,5.5-2.84-.28-16.16,8.37c-2.55-.79-4.51.27-7.07,1.01l-23.87,6.91c-1.59-.91-3.6-1.53-5.23-1.33l-13.97,1.67c-2.45-8.12-11.47.21-19.68.95-4.28.38-8.19-.64-12.76-1.34l8.23-5.59c.83-.56,2.2-1.65,2.37-2.49s-.68-2.64-1.42-3.07c-2.12-1.23-12.21,3.39-16.75,7.3-2.85.53-6.37-.17-8.88-1.88,3.9-6.42,9.86-7.52,11.07-10.49.4-.98-1.03-3.76-2.22-3.59-6.16.89-11.22,4.4-15.34,8.86l-1.03-4.75c2.72-5.87,7.09-9.64,11.63-13.79,2.44-2.23,4.27-2.52,7.24-3.89l10.58-4.89c.86-.4,2.41-1.69,3.36-1.9,2.62-.56,4.79-1.88,7.39-2.91l8.73-3.45c4.07,2.48,10.26-1.27,14.99-4.63l9.4-6.68c1.24.43,3.75.93,4.65.25l7.37-5.58,9.41,3.21c.65.22,2.31-.42,2.42-1.06.11-.65-.48-2.29-1.07-2.56l-5.93-2.65,3.82-5.04c5.5-1.57,8.79-5.44,10.29-10.24,5.04-4.17,12.56-10.73,9.85-13.92-3.13-3.68-9.37,4.11-12.86,10.2-5.03.72-7.44,3.65-10.03,7.99-1.86,3.12-6.85,5.29-10.28,7.45l-32.04-7.77-30.25-3.41-2.28,1.75c-.61.47.99,2.44,1.67,2.56l35.71,4.38,19.4,4.85-5.34,2.99-6.59,2.98-7.31,4.56-4.21-1.33-16.26,5.42c-2.19-.44-5.54-1.17-7.93-.31-6.73,2.42-13.04,2.03-19.94,2.23l-32.13.92-5.48-1.46-22.88-2.93c-1.11-1.86-2.74-3.22-4.7-3.62l-8.23-1.67,8.53-8.15c2.64-2.52,5.7-5.63,2.92-9.39-1.15-1.5-5.74-1.24-7.02.29l-11.93,14.19c-4.7.12-4.16-6.05-12.9-8-1.16-5.23-4.73-9.14-9.22-11.93-4.29-2.66,2.3-4.28-6.48-12.42-1.79-1.66-1.71-3.13-1.54-5.21.4-4.8-3.43-8.8-4.35-13.26l-2.68-12.98c4.65-10.8-.79-23.03.15-35.59,1.73-1.11,2.77-2.67,2.7-4.51-.3-9.29,2.1-17.6,3.81-26.55,1.99-10.38,3.48-20.59,6.68-30.57.94-.71,2.31-2.01,2.66-2.83l6.03-13.87c.85-1.95,2.24-6.59-.79-7.55-2.96-.94-6.56,3.34-7.48,6.16l-8.33-.61-7.65-2.23c-.81-1.18-2.26-2.81-3.35-3.31l-8.14-3.73-6.25-1.95c-4.35-1.36-7.66-5.41-11.02-8.49l-.36-3.7-11-14.97,1.15-4.74-6.64-14.67c2.12-1.5,3.08-3.15,2.54-5.36-1.54-6.36-2.65-12.92-2.69-19.37,2.43-1.36,3.54-2.93,3.84-5.49.8-6.69,2.92-13.46,5.34-19.66,2.68.17,4.61-.78,5.64-3.28,2.61-6.37,6.09-12.48,11.61-16.78,5.27.73,10.03-7.33,18.06-10.45,1.49,1.86,3.46,2.69,5.82,1.64l17.94-8.01c1.48,2.11,3.12,2.71,5.44,2.27l9.54-1.79,4.27,2.13c4.92.35,10.09,1.31,14.3,3.44-.02,1.8.7,3.61,2.69,4.25,7.42,2.39,13.89,6.99,18.6,13.13-1.22,1.86-.94,3.74.72,5.51l7.57,8.08-.08,3.87,6.2,11.79c.95,1.81.57,3.73-.37,5.61l.56,7.49-12.21,7.22-1.99,1.75c-.41.36-1.7-.6-2.66-1.19-7.7,3.78-18.62,16.58-12.84,19.7,1.38.75,3.29.3,4.64-1.1l7.91-8.22c6.93.88,12.65-7.41,15.85-8.45l6.05-1.96,1.55,2.85c.45.83,3.04.52,3.93.05l15-7.85.15,3.62c.03.72,2.45,1.53,3.2,1.22l9.79-4.14,6.05-1.28.04,2.29c.04,2.39,5.72,1.76,11.14-1.18,1.47.64,3.76,1.28,5.28,1.12l6.79-.73c.23,2.57,1.98,4.09,4.26,4.06l13.58-.17c1.06,3.72,4.69,4.23,8.17,3.48l10.16,7.23-3.88,9.51c-.33.81-.71,2.87-.58,3.73.15.99,2.29,1.87,2.76,2.77l1.67,3.2c.44.85,3.37.03,3.86-.81,2.62-4.42.35-11.28,3.68-17.46,7.91-3.07,5.35-13.51,12.97-21.44,2.1.34,3.87-.07,4.92-2.04,2.49-4.68,6.15-8.78,10.2-12.24,2.09.24,4.24-.16,6.1-1.2,3.32-2,6-3.78,8.09-7.03l16.11-6.73c1.45,1.52,3.16,2.01,5.34,1.64l16.42-2.79c1.51,2.28,3.34,3.32,6.11,3.25,6.13-.15,11.71.69,17.65,1.51,4.33-.66,8.86.95,9.2,4.72l15.86,7.81c2.15,1.06,3.45,2.61,2.2,5.2l8.12,7.01,4.9,9.95c2.14,2.5,1.41,4.76,1.3,7.75l2.26,10.79-.14,13.7-2.1,2.93c-.78,7.84-2.75,15.81-6.3,22.76-1.83.42-3.82,1.38-4.6,2.77l-5.14,9.15c-6.13,10.92-6.91,7.55-8.79,8.99l-7.65,5.86-11.18,8-3.23-.57-19.17,7.45c-3.66,1.42-8.18.34-12.3.14l-7.94-.4-12.01-4.28c-2.58-.92-4.54-3.02-7.48-1.12l-.54,3.74c-1.23.55-2.72,1.43-3.02,2.27-1.23,3.5,7.18,5.92,13.58,7.02-.57,3.02-.54,6.73,2.57,8.42-1.47,6.14-4.69,11.99-7.74,17.65-1.05,1.95.59,4.16,3.07,4.61l-2.65,5.57c-.52,1.1-.92,3.22-1.36,4.73l-.51,1.75c-.11.37-1.57-.25-2.16-.46l-5.13,5.79c-.54.61-.22,2.74.45,3.09l3.59,1.88-5.29,7.17-3.13,5.74c-1.32,2.42-1.62,4.77,1.35,6.29l-3.1,3.82c-.4.49-.92,1.62-.93,2.22-.03,1.66,2.25.84,5.25,4.11,1.29,1.4,4.34.03,5.23-1.39,1.29-2.03,1.32-4.02.16-6.48l7.55-8.56c3.24-3.68-2.33-5.91-.56-11.43l8.54-11.1c.61-.79.92-3.26.64-4.17-.29-.9-1.63-1.66-3.23-2.43l4.48-8,4.3-7.78c.41-.74.11-3.28-.45-3.87-.66-.68-1.99-1.41-3.14-2.09l3.49-13.5c7.06,2.18,14.02.48,20.39-2.25,5.6-2.4,7.41,4.23,17.06-2.66l10.76-7.69c3.96,3.01,12.86-4.15,15.13-7.31l8.03-11.17c2.65.03,4.78-1.02,6.93-3.37,1.25-1.36,5.25-1.32,7.34-1.5,2.21-.2,2.78.24,4.52,1.6,1.38,1.07,5.19.06,7.08.31l15.22,2,1.06,3.54,14.8,2.8c3.93.74,8.49,3.12,12.09,4.61l.97,3.92,15.84,7.94c2.38,1.19,5.1,2.74,6.99,4.49l8.45,7.86c-.78,2.27-.31,3.81,1.21,5.63l12.37,14.85c-.23,3.2,1.47,5.43,4.44,6.48l1.47,4.48,8.81,18.74c-1.88,5.16,2.94,11.98,2.97,17.94l.04,8.69.04,17.67c0,2.61.67,5.11.21,7.62ZM916.2,332.65c-2.11,6.83-4.57,10.8-9.26,15.99l-6.09,6.75c-2.03,2.25-3.81,1.69-6.18,2.88l-13.45,6.76c-3.55,1.78-9.48,2.8-13.87,2.83l-7.82.06-14.63,1.08c-1.26.09-3.57-1.32-4.77-1.51l-14.66-2.31-9.83-2.25c-4.33-.99-7.43-3.09-11.73-3.5-1.94-.18-4.52-1.43-5.86-2.73l1.11-6.14,3.6-3.25,7.27,1.52c3.2.67,6.44,2.47,9.53,3.8,8.65,3.72,17.93,3.91,27.04,5.27,8.83,1.31,16.59.71,25.27-1.34,4.45-1.05,8.72-1.24,12.96-3.39,3.1-1.57,5.83-2.92,8.49-5.27,3.05-2.69,7.24-5.42,8.89-9.22,1.1-2.53,1.98-4.1,3.56-6.04,3.18-3.9,1.07-9.44.1-13.74-1.02-4.55-2.74-7.71-5.79-10.83l-6.05-6.16c-2.25-2.29-4.83-4.3-8.01-5.5l-15.62-5.91-19.5-3.62,9.57-1.55c8.19.39,16.62.29,24.04,3.3l9.09,3.68c4.13,1.67,7.22,4.34,10,7.66,3.45,4.13,8.82,7.38,10.22,12.79l2.08,8.04c1.94,4,1.56,7.76.3,11.85ZM450.99,317.47c-1.52-5.13-3.28-11.55-2.69-17.19,1.15-10.92,5.04-20.75,10.98-29.74,2.46-2.31,6.04-4.16,9.34-5.62,2.96-1.31,9.15-1.62,11.43,1.28,9.41,11.93,6.07,31.14-1.31,44.38-1.24,2.22-4.3,5.66-6.32,6.78l-5.74,3.18c-8.95,4.96-8.62.42-15.69-3.07ZM384.46,277.89c.29,2.87-.74,6.66-1.28,10-1.51,9.38-6.2,17.49-13.79,22.58l-8.89-2.14c-9.65-11.17-9.27-27.43-3.67-41,1.95-4.71,4.55-9.26,9.4-11.82,2.95-1.56,8.36-2.72,11.49-1.89,4.27,1.14,4.94,6.39,5.28,9.78l1.45,14.49ZM539.89,334.65c.29.76-1.86,2.04-2.68,1.85-17.49-4.06-35.2-2.86-53.2-.19l-26.42,5.86c-.71-.05-2.26-.54-2.44-1.14-.22-.72.4-2.03,1.05-3.05l33.55-7c16.37-2.4,32.32-1.97,48.49,1.29.71.81,1.42,1.74,1.66,2.38ZM365.03,463.17l2.81-.04,32.36-20.6.53-2.05c.12-.47-1.98-.58-2.44-.29l-12.43,7.8-12.62-2.58,3.28-8.3c.26-.65-.1-2.4-.75-2.42-.66-.02-1.85.78-2.32,1.37l-9.73,24.51c.16,1.04.59,2.62,1.32,2.61ZM372.07,447.88l10.48,2.49-14.76,9.22,4.28-11.72ZM302.63,424.39c1.15,9.31-28.72,21.59-39.88,11.54-.58-.52-.6-2.6.03-2.96,2.34-1.35,2.7,3.29,8.88,3.71,17.57,1.18,33.99-10.77,24.82-15.45-5.74-2.93-14.94-1.08-13.37-2.45,4.18-3.68,18.65-1.36,19.51,5.63Z"/>
  <g id="extra">
    <path d="M1035.02,431.81c-.53-.52-2.36-.74-3.03-.37l-27.1,14.93c-3.66-10.58-7.27-20.11-12.25-29.83-.61-1.19-3.24-.83-3.92-.12l-3.85,3c-.27,7.99.89,15.92,1.44,24.04l.54,8.05-23.92-4.73-9.04-2.81c-.75-.23-2.69.2-3.11.84-.35.53-.47,1.77-.41,2.52l30.77,16.38-15.21,22.09c-.39.56-.59,2.18-.4,2.79.57,1.85,8.65-1.31,12.22-4.3l15.38-12.88,7.86,27.98c2.56-.22,3.46-2.08,2.88-4.33l-5.48-21.58c-.1-.19,1.04-2.25.91-1.9l7.71,2.48,2.35,14.19c.14.84,1.81,2.04,2.51,1.7.56-.28,1.11-1.68,1.06-2.31l-.92-11.77,12.97,3.19c2.53.62,5.94-1.06,6.75-3.5l-17.69-21.07,20.58-19.66c.57-.54.94-2.52.42-3.04ZM981.56,472.74c-.19-1.8.66-3.43,1.87-4.72l1.71-1.83c.46-.49,1.99.68,3.32,1.94-1.73,1.87-3.69,3.26-6.9,4.61ZM992.45,451.37l-.54-19.22c.33-.28,1.77-1.19,2.01-1.18l6.95,16.79c-2.62,1.73-4.49,2.56-8.42,3.61ZM996.18,462.84c-.82-1.13-1.85-3.24-1.42-4.13.64-1.32,3.43-1.59,5.33.37l-3.91,3.76ZM1000.14,465.98l4.13-3.47,1.37,5.52-5.49-2.05ZM1024.58,472.98c-5.39-.37-9-1.37-13.66-2.69l-1.79-11.06,2.32-1.39,13.13,15.13Z"/>
    <path d="M92.91,139.63l-9.35,1.26-3.77-17.33,6.54-1.98c.6-.18,1.47-1.84,1.16-2.29-.31-.45-1.51-.99-2.09-.89l-6.44,1.17-5.28-23.36c-.19-.84-2.32-2.55-2.79-1.95l-1.74,2.25,5.44,23.98-19.9,5.1-5.25-23.56c-.21-.92-1.93-2.2-2.67-2.04-2.4.51-1.97,5.32-.82,10.05l4.1,16.83-18.78,5.5-3.84-20.06c-.41-2.13-1.52-4.58-3.02-6.36-1.41-.1-3.17,2.26-2.87,3.68l5.02,24.38-18.86,5.58c-.99.29-2.31,2.2-2,3.02.31.82,1.82,1.41,3.1,1.7l18.88-5.99,3.55,18.34-19.5,8.38c-.8.34-1.78,2.1-1.5,2.86.23.64,2.11,1.28,2.77,1.03l19.62-7.4c3.3,12.53,2.78,23.73,7.88,36.64.27.69,2.08,2.45,2.43,1.82l1.43-2.57-7.14-37.84,18.84-6.75,7.93,33.12,2.44,1.61c.44.29,1.15-1.77,1.23-2.2l-6.87-33.54,19.38-6.04,3.97,18.03c.15.67,1.63,2.06,2.18,1.7.56-.36,1.5-2.13,1.36-2.9l-3.26-17.66,8.51-2.16c.59-.15,1.54-1.08,1.73-1.59.19-.51-1.15-1.64-1.76-1.56ZM36,155.13l-3.85-18.13,18.94-5.99,4.09,17.58-19.17,6.54ZM59.43,147.28l-3.81-17.13,19.88-5.7,3.83,17.14-19.91,5.69Z"/>
  </g>
</svg>