<?xml version="1.0" encoding="UTF-8"?>
<svg id="Layer_1" xmlns="http://www.w3.org/2000/svg" version="1.1" viewBox="0 0 1123.2 573.04">
  <!-- Generator: Adobe Illustrator 30.4.0, SVG Export Plug-In . SVG Version: 2.1.4 Build 226)  -->
  <path id="PageTurn2" d="M918.14,353.73c-.78-5.22-4.18-8.58-7.34-12.28-23.27-27.21-71.54-22.02-65.25-12.85,4.17,6.09,13.86,4.37,27.81,12.91,14.83,9.08,24.39,17.08,18.83,34.15-21.5,25.92-55.75,23.06-84.03,6.49l3.93-23.06-.78-36.1c-.17-7.95-4.68-16.88-7.36-24.63-.34-8.31-2.91-14.96-8.57-20.71-1.35-7.81-4.98-14.39-11.37-19.45l-10.01-14.86c-4.29-6.37-13.23-10.99-18.67-16.42-3.55-3.55-6.6-6.62-10.83-8.75l-19.45-9.83-16.64-8.41-20.46-3.02,6.7-14.25,9.19-20.29c2.24-4.94,1.87-11.23,1.72-16.84-.21-8.26,2.98-17.46,2.22-25.99-.79-8.85-6.13-17.11-8.56-25.46-1.4-4.82-3.47-11.29-6.26-14.91-9.39-2.16-14.18-9.37-20.49-15.45-6.72-6.47-19.02-6.03-28.03-7.77l-8.49-3.54-26.4,5.69c-10.23,2.2-17.89,5.01-24.74,13.83-4.71,6.07-16.07,7.22-21.83,21.02l-6.81,16.31-10.45-6.97c-14.81-9.88-20.75-2.81-31.13-11.1l-15.32-.85-17.63,2.55c-12.84-5.82-18.19,4.87-29.59,5.17-.28-11.2-1.76-17.63-6.45-25.81-2.47-4.31-3.88-8.73-5.69-14.06-2.32-6.83-12.65-11.47-16.27-16.99-6.57-10.03-13.48-13.89-25.8-16.31-4.25-.84-11.64-6.45-16.91-4.65-16.21,5.55-21.02,1.11-33.9,7.08l-13.5,6.26c-8.61,3.99-12.26,14.09-18.14,20.67-3.43,3.83-9.29,7.2-10.18,12.21-3.69,20.77-12,28.15-8.67,41.11,2.42,9.4,2.3,17.56,2.5,27,.18,8.73,9.96,16.41,12.86,23.66,7.69,19.22,18.18,12.75,33.67,27.47l14.85,2.06c-4.25,7.33-6.88,14.46-9.75,22.69-1.89,5.4-5.56,12.32-5.71,17.82-.3,10.68-1.28,18.63-4.82,28.41-2.51,6.93-1.41,16.33,0,23.47l-30.57-8.61c-5.84-1.64-11.5-1.73-17.51-1.2l-15.69,1.4c-7.55.68-15.43,5.68-22.48,8.89-7.26,3.32-11.71,6.84-16.65,13.26-2.74,3.56-8.42,8.51-9.03,12.77-.8,5.6-2,9.8-5.51,12.61-7.12,5.72-6.27,11.86-6.49,19.31l-.42,14.67-14.7,5.4c-2.05.75-6.44,4.08-5.45,5.65l4.53,7.13,7.51,18.72-86.61,40.43c8.38,24.5-12.69,22.35-10.57,31.18.96,3.97,3.7,5.05,7.97,6.14l160.65,41.2c8.08,12.11,29.67,15.14,44.1,9.33l161.58,36.23,107.18-67.5c2.53-1.6,5.35-4.4,5.31-6.9-.03-1.84-4.42-3.64-5.67-5.41-3.45-4.9-.78-20.69,3.99-25.37,1.26-1.23,5.12.87,6.92,1.44l20.75.16,16.89,1.36,21.2-.57c-2.08,9.63,4.18,9.93,8.16,13.43,4.64,4.08,7.77,6.48,14.78,6.46l13.74-.03c6.5-.54,14.69-6.64,21.28-8.2l22.35-5.3c7.54-1.79,13.48-4.87,20.12-9.94,2.5-1.91,6-2.42,9.34-2.98,7.87-1.32,11.69-11.17,15.79-17.3l12.5-18.68c17.4,7.56,34.31,11.73,53.61,9.24l16.37-2.1c9.75-1.25,17.46-7,25.92-11.3,19.96-10.15,26.2-29.05,22.84-51.44ZM228.14,325.01c5.59-3.74,8.56-8.43,8.15-16.1,7.5-8.05,15.76-20.41,26.72-23.1l23.86-5.84c4.56-1.12,13.5.03,18.78.54,20.38,2,37.53,11.14,54.59,24.1-.11-7.31-7.33-11-11.33-16.85-3.58-5.25-.19-13.97.3-19.95.86-10.42.62-20.46,3.19-29.95l6.8-25.1c3.25-12.02,20.24-37.5,12.01-35.58l-4.57,1.06c-8.11,3.41-14.1-3.65-20.66-5.7-10.56-3.3-18.87-7.95-23.66-17.5-1.74-3.48-8.13-8.45-8.97-11.89l-7.47-30.54c-1.5-6.12,2.86-15.79,2.62-22.33-.42-11.21,3.31-23.59,10.49-22.67,6.04-12.17,15.82-23.65,27.94-30.31,11.82,1.21,16.81-8.91,35.34-5.74,6.9,1.18,15.93,2.12,21.22,6.2l15.13,11.69c7.51,5.8,15.66,16.83,18.48,26.28l5.91,19.83c.3,1.01,1.44,4.48.66,4.99l-4.3,2.83-11.38,7.15c-5.36,3.37-10.21,12.09-11.89,18.32,6.5,5.09,6.77-4.67,21.62-12.34l10.35-5.34,19.62-9.79,2.6,4.54c2.07,3.62,12.79-5.59,24.26-6.84,8.09,3.13,14.08,4.2,22.78,3.71,4.47-.25,10.65,2.95,15.2,4.4,7.89,2.51,14.39,5.67,19.81,11.75l-3.36,9.74c-1.78,5.16-1.7,13.37,6.17,15.24,1.19-3.77,1.9-11.18,2.19-15.41,5.44-6.43,7.26-13.06,8.09-21.65.61-6.31,10-11.95,12.99-16.87,3.27-5.37,5.69-9.8,11.09-12.12,6.95-2.99,12.64-6.34,18.62-10.72,5-3.66,11.14-1.6,16.27-2.1,14.05-1.37,27.67-2.03,38.74,8.31,10.73.03,18.66,7.58,20.41,17.82,10.19,7.04,13.54,17.91,11.36,29.62,8.99,22.02-3,31.89-2.45,39.21.66,8.79-1.51,13.96-6.73,20.55l-16.6,20.95c-3.27,3.03-10.49,8.81-15.11,10.47l-21.62,7.75c-11.17,4-20.75-1.09-32.17-6.21l-2.86,10.97,7.63,4.39c4.32,8.38,2.59,18.48-2.94,26.41,2.53,7.04,1.68,13.56-2.6,19.81-2.41,4.65-3.26,8.3-2.72,13.95l-8.73,16.19c1.01,2.1,1.87,5.86.93,7.52l-8.3,14.63c-3.5,6.17-6.91,9.56-11.73,14.95l-9.7,10.84-17.5,11.74c-18.45-5.76-36.13-9.5-55.22-11.79l-3.46,1.6c-.66.3-.5,3.19.22,3.28l3.17.42c17.03,2.26,31.77,4.26,48.49,9.71-7.7,5.32-13.86,7.82-21.56,9.67l-21.39,5.14-20.18,3.57c-15.66,2.77-49.11-.49-62.95-5.13l-14.19-4.75,11.47-10.82c1.8-1.7,1.44-6.88-.49-8.46-2.47-2.02-6.45-1.02-8.28,1.54l-9.64,13.43-24.62-14.02c.01-6.69-3.79-14.24-12.26-12.45l3.76,9.56-49.22-14.48c-3.53-1.04-7.17-6.04-12.71-5.35l-19.12,2.38-12.23,17.53-1.51-14.04c-.5-1.11-4.22-2.72-5.22-1.93-1.25.99-2.78,4.33-2.88,6.08l-1,16.69c-6.65-2.06.09-9.75-3.72-17.07-.67-1.29-5.71-.18-6.13,1.32l-4.08,14.6c-8.84-7.53,6.79-17.87,3.9-25.46-.57-1.5-3.24-2.14-5.93-2.49l-9.71,16.08c-4.96-9.27,5.43-15.01,3.11-24.29ZM465.05,401.98l-17.69-1.41c5.91-6.47,11.46-4.37,17.45-4.36l.24,5.76ZM442.81,401.52l-27.01,4.18-9.26-15.81,29.28,5.33c3.08.56,6.32,2.8,6.99,6.29ZM206.52,365.6l18.5-7.09c1.83,4.67,3.7,8.33,6.66,10.19,2.47,1.55,7.94-.11,11.24-1.21,1.67,1.07,5.06,3.55,6.61,3.16,1.86-.47,4.23-2.72,6.68-4.95l8.89-.63,11.76-16c4.16-3.46,15.74-2.18,21.1-.7l36.03,9.95c19.71,5.45,36.85,14.5,53.79,25.83,7.39,4.94,13.31,12.12,17.24,19.46-9.24.89-16.97,2.62-25.32,6.58-33.76,16.02-59.44,44.06-74.88,77.94-5.63-10.52-9.77-20.51-18.36-27.8l-33.95-28.8c-18.93-16.06-33.83-35.28-42.16-58.71l-3.81-7.21ZM395.34,414.33l-70.58,55.13c12.03-19.57,28.45-35.37,48.09-46.65,7.07-4.39,14.24-8.44,22.49-8.48ZM211.85,397.34c8.82,18.93,22.29,32.29,38.97,44.04,10.15,9.28,22.89,14.57,30.57,28.69-27.31-14.1-54.46-25.19-84.56-30.12l-54.41-8.92,69.42-33.69ZM124.44,458.97l7.09-11.49c39.07,7.34,76.29,15.6,113.24,29.06l3.06,1.11c.81.29,2.71-1.72,2.11-2.33l-2.85-2.89c-36.21-14.12-73.45-22.76-111.94-29.56l-2.91-.63c-.59-.13-1.06-3.05-.46-3.04l4.04.06c35.85,4.3,70.76,10.05,104.88,21.84,20.81,7.19,39.67,18.18,53.87,33.58-4.35,1.73-7.22,3.13-10.7,5.42l-159.43-41.14ZM288.04,507.1c9.84-4.61,18.59-1.45,26.34,5.06-9.41,1.46-17.76-.24-26.34-5.06ZM423.26,530.95l-104.68-24.03c25.09-4.65,48.74,2.01,73.22,5.03,24.63,3.05,46.62,13.32,72.39,14.72-34.44-15.15-70.48-19.96-106.22-24.93l-33.37-2.09c28.76-4.77,57.76-2.41,86.98,3.96l66.05,18.68,1.38,21.54-55.75-12.88ZM419.57,495.85c-34.26-7.89-67.43-9.83-103.18-4.9,17.24-18.12,34.39-33.75,54.2-47.75l38.49-27.21c37.23-9.51,73.65-8.13,108.86,6.66l-12.56,6.66c-4.52,2.4-19.45,6.95-23.9,17.14-1.39,3.19,2.52,8.38,4.84,9.25-2.39,2.87-4.51,7.92-3.35,11.13,1.04,2.87,7.24,4.3,10.97,4.49l2.28,7.11c1.2,3.76,17.41,3.56,27.65-.28,9.58-3.59,16.69-9.35,26.4-6l-68.78,41.47-61.91-17.78ZM529,515.28l-42.6,26.91-1.68-17.44c1.11-3.42,8.06-7.66,11.31-9.66l55.46-34.19,30.15-17.64c.56,8.07,1.24,12.35,3.65,17.21l-56.29,34.82ZM797.45,386.65c-3.57,6.93-6.02,11.92-8.35,19.52-1.87,6.11-5.73,12.51-9.01,18.32l-5.23.41c-4.29,3.88-9.44,10.78-14.75,13.79-5.65,3.2-13.37,7.88-19.03,9.62l-30.48,9.41c-4.52-.95-9.35-.38-13.75,2.31-4.96,4.17-12.31,3.45-16.44.31l4.41-5.04c.94-1.07-1.39-4.49-2.79-4.65-1.4-.16-4.16,1.22-5.08,2.27l-2.95,3.37c-.78.89-4.27-1.44-3.93-2.57,1.48-5.01,8.65-6.57,6.83-10.7-.7-1.59-3.73-1.81-7.96-2.03l10.6-8.16c8.37-6.44,14.66-.31,19.48-3.91,1.31-.98.11-5.08-1.27-6.48-10.22-10.44-10.64-36.82-1.74-49.6,2.11-3.03,3.64-6.92,4.3-12.01-10.89,2.65-14.65,13.83-14.74,24.43-6.77,11.22-5.23,24.16,1.93,36.07-11.91,2-21.11,9.43-28.57,19.9-2.59,3.63-11.69.39-16.24.63l-18.5,1c-4.44.24-12.7-2.78-16.28-4.21,5.58-6.42,8.84-11.54,9.1-17.72-10.2-.73-11.76,9.44-17.19,14.01l-14.78,12.44c-3.99,3.35-13.44,7.47-18.25,8.9l-17.09,5.11-19.02,4.29-11.96,3.94c-5.71,1.88-9.86,3.76-15.81,2.44l5.95-6c1.09-1.1-.11-4.96-1.36-6.01l-14.98,2.85c3.81-3.11,8.98-7.49,11.81-9.15,1.74-1.03,1.28-7.25-.5-7.28l-9.55-.15c3.38-4.59,10-7.71,16.85-9.16l7.67-5.1,10.45-7.5,10.87-10.36c5.88-5.6,9.99-11.3,14.56-18.19,1.96-2.96,6.21-6.11,1.1-10.36l-8.27,8.23-15.23,15.97-6.75,5.67c-16.33-6.36-31.43-10.02-48.86-12.9-1.94-.32-4.76-2.27-4.97-3.82s2.75-4.36,4.32-4.55l17.64-2.15,20.05-5.08c10.7-2.71,21.52-9.73,31.69-14.64l15.61,5.16c-2.62-4.66-4.77-6.12-8.54-8.85l11.85-10.33c7.37-1.99,12.99-6.79,14.51-14.73,6.09-5.27,10.27-11.64,12.98-19.16,4.97-4.16,7.06-9.14,7.05-15.81l4.8-8.48c-2.06-15.54,11.93-19.58,6.2-32.98l7.57-17.95c.88-2.08-1.73-6.56-3.11-8.07l.91-10.66,16.31-.81c7.77-.39,13.38-2.6,20.6-5.86,10.23-4.61,21.21-8.17,26.34-19.59l14.3,1.42,16.69,6.94,24.6,11.14,14.97,10.87c4.14,3.01,7.3,6.34,10.76,10.6,4.22,5.19,12.81,10.13,15.96,15.93l10.51,19.36c4.41,8.12,10.78,16.8,12.13,26.24l3.96,27.64c1.11,7.78.83,13.89-1,21.36-2.34,9.54.45,22.38-3.93,30.89ZM911.77,368.01c-2.72,13.85-10.14,23.75-21.57,31.15l-20.55,7.41c-4.31,1.56-13.91,4.42-18.66,3.94l-27.08-2.74-21.31-6.89,2.97-8.13,17.17,6.18c27.59,9.93,65.59,4.26,77.48-22.24,8.3-18.48-6.21-35.11-27.13-43.38l-12.84-5.07c7.11-.53,11.91,1.18,18,3.32,9.33,3.27,19.91,6.42,25.45,15.23,3.69,5.86,9.38,14.53,8.06,21.23ZM482.84,264.03c1.85-2.98,8.78-6.2,12.14-7.24,6.81-2.12,13.01,1.83,15.49,8,7.46,18.57-.97,46.77-20.1,54.03-3.66,1.39-9.83-.2-12.89-2.55-9.67-7.44-5.41-34.86,5.36-52.23ZM371.02,298.33c-4.64-15.93-3.17-32.78,7.05-46.22,3.73-4.91,15.08-8.53,18.78-2.55,12.51,20.24,2,59.1-10.62,59.6-7.54.3-13.07-3.51-15.2-10.83ZM480.89,337.69l36.21-7.78c13.08-2.81,27.35-3.02,39.43,5.5-25.2-1.55-47.58-2.12-70.92,7.34l-4.97-.35c-1.11-.08-.57-3.78.25-4.7ZM316.25,322.77l-19.37,3.58c7.69-15.23,51.46-8.21,63.84,4.65-15.88-2.95-28.49-9.24-44.48-8.23ZM541.03,498.27l-44.21,26.3c10.85-15.4,27.71-19.18,42.29-29.13,1.01.67,1.82,1.8,1.92,2.83Z"/>
  <g id="extra">
    <path d="M1035.02,431.81c-.53-.52-2.36-.74-3.03-.37l-27.1,14.93c-3.66-10.58-7.27-20.11-12.25-29.83-.61-1.19-3.24-.83-3.92-.12l-3.85,3c-.27,7.99.89,15.92,1.44,24.04l.54,8.05-23.92-4.73-9.04-2.81c-.75-.23-2.69.2-3.11.84-.35.53-.47,1.77-.41,2.52l30.77,16.38-15.21,22.09c-.39.56-.59,2.18-.4,2.79.57,1.85,8.65-1.31,12.22-4.3l15.38-12.88,7.86,27.98c2.56-.22,3.46-2.08,2.88-4.33l-5.48-21.58c-.1-.19,1.04-2.25.91-1.9l7.71,2.48,2.35,14.19c.14.84,1.81,2.04,2.51,1.7.56-.28,1.11-1.68,1.06-2.31l-.92-11.77,12.97,3.19c2.53.62,5.94-1.06,6.75-3.5l-17.69-21.07,20.58-19.66c.57-.54.94-2.52.42-3.04ZM981.56,472.74c-.19-1.8.66-3.43,1.87-4.72l1.71-1.83c.46-.49,1.99.68,3.32,1.94-1.73,1.87-3.69,3.26-6.9,4.61ZM992.45,451.37l-.54-19.22c.33-.28,1.77-1.19,2.01-1.18l6.95,16.79c-2.62,1.73-4.49,2.56-8.42,3.61ZM996.18,462.84c-.82-1.13-1.85-3.24-1.42-4.13.64-1.32,3.43-1.59,5.33.37l-3.91,3.76ZM1000.14,465.98l4.13-3.47,1.37,5.52-5.49-2.05ZM1024.58,472.98c-5.39-.37-9-1.37-13.66-2.69l-1.79-11.06,2.32-1.39,13.13,15.13Z"/>
    <path d="M92.91,139.63l-9.35,1.26-3.77-17.33,6.54-1.98c.6-.18,1.47-1.84,1.16-2.29-.31-.45-1.51-.99-2.09-.89l-6.44,1.17-5.28-23.36c-.19-.84-2.32-2.55-2.79-1.95l-1.74,2.25,5.44,23.98-19.9,5.1-5.25-23.56c-.21-.92-1.93-2.2-2.67-2.04-2.4.51-1.97,5.32-.82,10.05l4.1,16.83-18.78,5.5-3.84-20.06c-.41-2.13-1.52-4.58-3.02-6.36-1.41-.1-3.17,2.26-2.87,3.68l5.02,24.38-18.86,5.58c-.99.29-2.31,2.2-2,3.02.31.82,1.82,1.41,3.1,1.7l18.88-5.99,3.55,18.34-19.5,8.38c-.8.34-1.78,2.1-1.5,2.86.23.64,2.11,1.28,2.77,1.03l19.62-7.4c3.3,12.53,2.78,23.73,7.88,36.64.27.69,2.08,2.45,2.43,1.82l1.43-2.57-7.14-37.84,18.84-6.75,7.93,33.12,2.44,1.61c.44.29,1.15-1.77,1.23-2.2l-6.87-33.54,19.38-6.04,3.97,18.03c.15.67,1.63,2.06,2.18,1.7.56-.36,1.5-2.13,1.36-2.9l-3.26-17.66,8.51-2.16c.59-.15,1.54-1.08,1.73-1.59.19-.51-1.15-1.64-1.76-1.56ZM36,155.13l-3.85-18.13,18.94-5.99,4.09,17.58-19.17,6.54ZM59.43,147.28l-3.81-17.13,19.88-5.7,3.83,17.14-19.91,5.69Z"/>
  </g>
</svg>