<?xml version="1.0" encoding="UTF-8"?>
<svg id="Layer_1" xmlns="http://www.w3.org/2000/svg" version="1.1" viewBox="0 0 1123.2 573.04">
  <!-- Generator: Adobe Illustrator 30.4.0, SVG Export Plug-In . SVG Version: 2.1.4 Build 226)  -->
  <path id="PageTurn1" d="M240.5,523.4c9.09,7.4,24.43,9.82,36.07,4.61l134.48,29.84,27.22,4.86,105.78-66.82c.65-1.29,2.05-4.89,1.16-5.81l-3.68-3.84c-.95-.99-2.01-4.91-1.02-5.81.99-.9,3.86-2.64,5.18-2.92l15.65-3.28,23.25-15.77c9.34,5.04,16.25-.26,32.73,2.71,5.89,1.06,13.26-.35,19.36-.54l15.45-.49c.07,6.83,4.63,8.86,9.36,12.12,5.15,3.56,8.02,7.47,16.25,5.3,3.86-1.02,7.97.06,12.69.65,6.55.64,15.36-6.18,21.8-7.44l22.04-4.33c9.21-1.81,16.92-5.64,25.06-11.4,7.39-5.23,16.24,1.99,26.82-23.32,6.42-3.77,10.24-10.17,11.87-17.29l23.29,6.94c10.68,3.18,20.72,2.17,31.38,1.81,15.03-.51,27.88-5.54,40.84-12.35,20.09-10.56,28.7-29.22,24.4-51.39-1.39-7.17-4.67-10.62-9.55-15.5-3.77-3.77-7.64-8.01-12.56-9.96l-10.82-4.3c-14.78-5.88-40.55-4.95-40.28,2.09.31,7.83,15.06,6.26,23.45,11.54l15.98,10.05c3.23,2.03,7.59,8.79,9.04,12.09l-.83,14.15c-19.54,26.23-56.28,23.18-85.06,8.26,1.18-8.01,4.51-16.9,4.29-24.2l-1.01-34.64c-.23-7.99-4.38-16.46-6.15-24.31l-3.86-17.05c-5.83-5.12-7.3-10.34-8.94-17.75l-16.08-18.06-2.48-7.1-22.07-17.09c-4.29-3.32-7.91-6.85-13.49-9.21l-24.78-10.49-18.23-6.8-20.46-1.07,5.89-13.16,10.82-25.68c1.15-2.72-1.25-9.27-1-12.17l2.27-26.51c.75-8.73-6.88-16.68-9.4-24.87-1.51-4.89-2.86-12.94-7.2-15.08-8.49-4.18-14.11-8.3-19.9-15.68-4.37-5.56-14.99-6.34-22.13-7.78l-16.82-3.39c-9.11-1.84-20.3,3.95-29.43,5.31-8.83,1.31-17.21,3.58-22.29,10.95-7,10.18-20.19,10.88-26.16,25.17l-8.2,19.63-8.8-8.56c-2.8-2.73-9.79-6.42-13.82-8.28-8.1,1.69-15.52.02-19.93-6.14l-16.26-.41c-5.29-.13-13.9,2.03-19.34,2.53-10.27-7.27-17.6,4.47-31.36,6.1.48-12.22-1.44-19.48-7.14-29.13-2.27-3.83-3.24-8.71-4.3-13.98-1.43-7.09-12.44-11.37-16.06-17.26-6.25-10.18-16.06-15.01-27.42-16.72-3.67-.84-10.76-5.55-14.29-5.06-10.63,2.96-20.03,3.93-31,3.96-3.69.27-10.2,5.07-13.95,6.41-6.22,2.22-12.52,4.35-16.09,10.17l-9.8,15.96c-6.67,4.03-10.81,8.21-11.81,16.11-1.96,15.55-10.03,24.58-7.19,36.69,2.68,11.44,3.97,21.02,3.08,32.87,4.27,8.74,9.92,16.87,15.52,24.34-.03,8.42,7.71,14.18,15.74,16.14,13.69,4.36,16.39,14.55,31.9,13.26l-7.37,21.56c-2.38,6.96-6.3,14.89-6.74,22.09-.66,10.73-1.69,19.28-5.22,29.04-2.07,5.72-2.23,12.16-1.26,18.42,1.23,7.93-1.3,15.3-2.21,22.91-.61,5.06.3,10.78-1.88,15.09-26.57-18.52-61.13-35.32-92.25-31.02,2.85,2.4,5.71,2.98,10.08,3.41,30.54,3.05,59.06,16.51,82.81,35.25l2.89,14.87c-25.14-6.34-63.63-17.1-83.9-3.77,15.34.35,28.63-2.24,42.09,0,14.88,2.47,28.23,5.67,43.07,9.45l6.46,12.08,4.55,12.15-14.56,6.39c-5.92,2.6-12.27,8.63-17.63,13.58-16.72-3.24-34.85-4.93-52.41-5.4-1.73-.05-7.02-1.24-8.59-.62l-51.84,20.69-16.49,6.78-60.53,27.18c3.7,9.7-.08,19.49-7.98,22.98-2.46,1.08-4.01,6.93-2.81,8.98.99,1.68,4.32,2.43,7.44,3.25l135.06,35.86c5.79,1.54,7.2,2.83,11.54,6.37ZM246.93,517.68c7.25-4.6,16.03-3.35,21.83,3.95-7.63.87-14.52-.41-21.83-3.95ZM273.46,516.74c49.4-4.19,95.89,12.68,143.2,19.26-40.55-17.1-82.18-21.09-123.54-25.01-7.05-.67-14.8,1.64-21.94.79,50.51-10.5,107.27,3.57,158.03,19.57l2.58,20.98-158.32-35.6ZM343.54,501.71c-23.31-2.89-45.09-2.95-68.71-.37l82.9-60.2c37.95-11.1,77.22-11.67,115.7-.46l-11.94,8.46c-1.81,1.79-4.57,4.88-5.51,6.85-1.05,2.2,2.36,7.37,4.69,9.07-1.93,1.83-5,6.78-4.77,9.77.35,4.56,6.2,6.74,11.02,6.54.59,2.73,1.02,6.67,2.21,8.22,1.39,1.81,5.92,2.42,11.13,3.61l-47.4,30.18c-29.56-9.68-58.54-16.92-89.33-21.66ZM438.72,550.96c-1.65-6.89-2.61-14-1.34-20.18l63.7-40.7c2.32-1.48,8.06-4.73,10.9-5.23l19.17-3.32,2.48,10.2-94.91,59.22ZM804.6,398.02l13.46,4.22c19.99,6.27,33.75,7.49,54.09,2.01,13.09-3.53,23.02-9.97,27.98-23.41,2.3-6.23,2.39-12.18.28-19.18-1.74-5.76-4.4-8.43-9.14-12.41l-8.52-7.17-23.63-9.08c7.92-1.13,13.78,1.63,20.75,3.52,17.35,4.7,30.88,17.42,31.88,36.95l-8.16,18.18c-2.04,4.54-10.7,11.33-15.4,12.93l-20.88,7.14c-4.23,1.45-13.05,3.76-17.69,3.24l-30.4-3.42-16.22-5.43,1.6-8.09ZM684.26,211.51l13.35,1.3,28.54,10.9c6.53,2.49,12.15,8.69,18.91,11.55,5.68,2.4,8.64,6.06,12.25,10.92,4.28,5.76,13.3,10.36,16.67,16.91,3.66,7.12,6.65,15,11.65,21.04,8.93,10.8,12.38,21.42,12.73,35.39l4.08,22.92c1.07,6-.56,11.72-1.64,17.91-1.69,9.64.02,21.54-3.53,30.42l-7.58,18.93-10.63,21.11-6.16.78c-4.9,4.97-10.77,12.26-16.68,15.03l-13.82,6.49c-6.16,2.89-11.13,3.2-17.79,5.44l-21.68,7.29c-9.93-8.28-18.86,11.04-30.8-.35l4.96-5.54c.9-1.01-1.76-4.5-3.1-4.58-1.62-.1-3.99,1.75-5.48,3.3l-3.54,3.68c-.74.77-3.56-2.07-4.4-3.06l9.54-10.13-7.65-3.72c4.04-3.84,12.38-10.25,19.02-9.75,5.11.38,10.84,2.9,13.2-3-2.7-4.05-9.47-11.47-9.38-16.77l.37-23.27c.13-8.04,14.21-23.79,10.91-24.96l-3.26-1.15c-8.23,6.61-12.83,15.26-12.88,26.22-7.05,10.4-5.53,23.31,1.49,34.55-14.18,1.99-30.2,10.5-31.54,24.53-6.16.59-11.98-.9-18.97-.66l-23.36.78-13.82-2.82,9.2-11.63c1.28-1.62-.44-7.33-3.06-8.17l-14.1,15.73c-5.56,3.69-10.46,8.09-14.99,13.57l-22.29,9.23c-13.61.44-23.05,8.38-39.55,7.62l-10.02,6.25c-8.81-5.32-13.45,4.84-24.01,1.4l7.41-6.34c.7-.6.98-4.12.07-4.58-1.22-.61-4.04-1.15-5.47-.99l-10.75,1.22,13.13-9.69c1.37-1.06-.88-7.61-2.59-7.29l-9.46,1.76c3.81-6.14,10.31-7.18,17.02-9.44l12.29-4.15,8.43-5.83,12.12-9.22,16.61-17.53,3.33-4.31c.74-.96-2.92-5.15-3.84-4.33l-7.65,6.78-13.69,12.91c-3.1,2.92-9.78,6.57-13.91,8.68l-33.7-9.71-24.04-6.57,17.07-2.91c8.77-1.49,15.73-3,24.16-5.67l19.03-6.03,14.97-7.96,19.46,7.33c-1.14-7.04-7.61-8.09-12.9-10.1l12.24-10.35c8.59-1.96,14.92-6.94,16.39-15.96,13.59-9.05,9.54-18.85,18.38-25.49,4.73-3.55,5.35-7.43,4.48-12.69l7.27-11.81c-9.35-12.53,13.7-17.3,5.04-32.28l9.83-23.04c-3.05-5-4.49-12.36-1.93-17.1l16.87-.98c7.46-.43,12.9-1.92,19.95-5.26,9.84-4.67,22.1-8.41,28.79-18.21,5.85-8.57,11.7-9.46,24.46-4.46ZM316.12,345.98l2.98-4.78c.63-1.01-1.55-3.73-2.25-4.83l-4.08-6.43c-1.09-1.72,3.63-6.01,3.53-8.06l-1.39-28.02c-.41-8.23,3.22-15.54,3.37-23.53.21-11.44,2.13-20.99,6.32-31.76,2.2-5.66,1.86-14.15,4.45-19.79l12.72-27.71c.73-1.59-1.88-6.83-2.75-6.26-5.79,3.53-10.76,2.46-16.08-1.24-5.58-3.88-13.27-5.42-19.73-7.73-6.31-2.26-9.51-8.52-12.99-12.98-6.74-8.64-10.45-16.87-13.3-27.72l-4.7-17.91c-1.84-7,2.22-16.74,2.03-24.46-.16-6.77-.5-16.37,5.39-20.67,4.23-3.09,5.82-4.87,8.65-9.99,5.4-9.77,15.23-19.01,24.4-24.9,3.61.07,10.1-.23,12.93-2.15,9.44-6.39,19.27-3.59,28.98-2.36,10.24,1.29,16.63,3.63,24.64,10.11,6.71,5.43,12.42,9.55,16.96,17.44,3.33,5.79,9.49,12.32,10.89,18.52l4.09,18.08,1.3,6.88c.33,1.72-4.48,2.57-6.01,3.49l-11.73,7.06c-6.21,3.74-15.63,19.14-10.94,20.7,1.23.41,4.12-.24,5.1-1.28l10.08-10.62c9.88,3.09,8.02-9.88,18.84-6.46,5.94-4.95,13.46-10.51,20.8-11.93l2.73,4.33c2.53,4.01,15.23-7.2,27.02-6.56,7.09,4.77,13.52,4.87,21.85,4.4,5.01-.28,11.26,3.47,15.99,5.37,12.51,5.01,23.79,10.86,18.23,20.35-3.3,5.63-1.93,14.37,1.88,18.37,10.3.85.95-9.22,9.93-21.14,3.4-4.51,3.2-9.9,3.64-15.19.63-7.55,10.28-13.28,14.01-19.1,4.72-7.36,8.15-12.97,17.03-16.1,5.84-2.06,12.04-6.25,16.59-10.02,5.88-4.87,12.32-1.45,16.51-2,16.22-2.12,28.55-.56,42.61,7.87,4.61,2.77,13.32,3.1,16.06,9.56,2.54,6,5.79,11.02,11.05,15.31,5.25,6.41,6.21,15.54,4.74,23.96,5.44,12.22,5.71,23.39-.61,35.39-1.75,3.33-1.07,9.32-1.17,13.62-.14,6.42-5.93,12.32-9.69,17.22l-9.88,12.89c-2.87,3.74-4.62,7.08-8.28,9.78-8.27,6.07-16.48,10.46-26.45,12.61-13.72,6.69-28.28,6.17-41.44-2.3l-4.77.52c-1.11.12-.83,2.94-.88,3.98l-4.2,5.16,11.21,5.64c10.39,17.13-9.02,25.85-1.64,37.21l-6.26,14.51c-1.57,3.65-1.81,8.43-1.68,12.66l-10.62,16.77c3.05,4.15,2.08,7.19.31,11.67-5.77,14.63-11.77,14.72-15.38,25.5l-15.31,14.56c-5.04,4.79-12.79,8.82-19.56,13.32-17.68-5.42-61.68-12.13-60.87-8.63l.82,3.52c18.27,1.55,33.56,3.81,51.46,8.57-5.39,2.93-12.15,7.14-17.98,7.81-10.05,1.16-17.49,5.13-27.76,6.63l-28.37,4.13c-10.32,1.5-21.88-2.23-32.14-2.12-9.6.1-16.06-2.17-25.03-4.87l-13.12-3.95,12.58-12.36c1.45-1.43,1.3-6.43.09-8.17-1.27-1.83-6.55-2.08-8.07,0l-13.05,17.81c-6.91-3.81-10.5-7.46-14.91-12.25l-7.74-8.4c.5-5.68-1.06-9.1-6.57-12.22l-5.45-14.3ZM316.21,390.19l8.97-7.42c.96,7.46,6.35,8.04,10.75,11.32,3.66,2.72,6.81,5.46,10.9,6.95l12.03,4.4,18.06,4.94c8.97,2.45,17.24,4.05,26.76,4.45l22.46.96,12.75,6.54c4.54,2.33,11.29,2.53,15.74,4.61-33.42-3.22-64.53-3.88-96.82,5.08-15.81-16.52-35.99-25.06-59.37-31.51,3.19-5.88,9.99-10.31,17.77-10.32ZM227.73,400.04c41.63.94,90.96,7.67,121.87,36.65l-90.48,66.09c-27.27-27.31-67.97-39.39-105.74-48.6l-37.13-7.43,111.48-46.7ZM139.07,465.25c-11.18-3.34-22.71-3.62-33.54-10.1,35,2.93,68.07,11.99,100.04,24.8,16.04,6.42,30.4,14.18,43.93,25.48l-9.14,4.68-141.5-37.27,7.71-9.87c38.39,7.59,73.08,19.25,111.02,29.99-23.97-16.33-52.2-19.82-78.54-27.69ZM451.62,279.41c3.92-6.32,17.64-12.52,23.41-6.86,17.99,17.65,3.28,64.27-21.49,66.25-16.61,1.32-18.59-32.5-1.92-59.39ZM342.19,321.13c-9.55-19.33-6.69-40.61,5-58.31,3.38-2.17,11.21-4.11,15.16-3.07,7.9,2.08,13.83,40.9-2.69,64.27-3.14,4.44-15.45,1.2-17.47-2.9ZM476.69,352c17.44-3.76,35.67-5.18,52.83,3.43-9.99,1.08-18.77-.22-28.21-1.08-17.39,1.56-33.46,4.82-50.62,9-.72.16-5.05-1.2-4.45-2.16.6-.95,2.86-3.25,3.99-3.49l26.46-5.7ZM517.96,490.9c-22.97,13.51-45.41,32.53-71.28,42.04,21.4-17.58,45.3-29.6,67.27-44.59l3.35-1.08c.78-.25,1.83,2.95.66,3.63Z"/>
  <g id="extra">
    <path d="M1035.02,431.81c-.53-.52-2.36-.74-3.03-.37l-27.1,14.93c-3.66-10.58-7.27-20.11-12.25-29.83-.61-1.19-3.24-.83-3.92-.12l-3.85,3c-.27,7.99.89,15.92,1.44,24.04l.54,8.05-23.92-4.73-9.04-2.81c-.75-.23-2.69.2-3.11.84-.35.53-.47,1.77-.41,2.52l30.77,16.38-15.21,22.09c-.39.56-.59,2.18-.4,2.79.57,1.85,8.65-1.31,12.22-4.3l15.38-12.88,7.86,27.98c2.56-.22,3.46-2.08,2.88-4.33l-5.48-21.58c-.1-.19,1.04-2.25.91-1.9l7.71,2.48,2.35,14.19c.14.84,1.81,2.04,2.51,1.7.56-.28,1.11-1.68,1.06-2.31l-.92-11.77,12.97,3.19c2.53.62,5.94-1.06,6.75-3.5l-17.69-21.07,20.58-19.66c.57-.54.94-2.52.42-3.04ZM981.56,472.74c-.19-1.8.66-3.43,1.87-4.72l1.71-1.83c.46-.49,1.99.68,3.32,1.94-1.73,1.87-3.69,3.26-6.9,4.61ZM992.45,451.37l-.54-19.22c.33-.28,1.77-1.19,2.01-1.18l6.95,16.79c-2.62,1.73-4.49,2.56-8.42,3.61ZM996.18,462.84c-.82-1.13-1.85-3.24-1.42-4.13.64-1.32,3.43-1.59,5.33.37l-3.91,3.76ZM1000.14,465.98l4.13-3.47,1.37,5.52-5.49-2.05ZM1024.58,472.98c-5.39-.37-9-1.37-13.66-2.69l-1.79-11.06,2.32-1.39,13.13,15.13Z"/>
    <path d="M92.91,139.63l-9.35,1.26-3.77-17.33,6.54-1.98c.6-.18,1.47-1.84,1.16-2.29-.31-.45-1.51-.99-2.09-.89l-6.44,1.17-5.28-23.36c-.19-.84-2.32-2.55-2.79-1.95l-1.74,2.25,5.44,23.98-19.9,5.1-5.25-23.56c-.21-.92-1.93-2.2-2.67-2.04-2.4.51-1.97,5.32-.82,10.05l4.1,16.83-18.78,5.5-3.84-20.06c-.41-2.13-1.52-4.58-3.02-6.36-1.41-.1-3.17,2.26-2.87,3.68l5.02,24.38-18.86,5.58c-.99.29-2.31,2.2-2,3.02.31.82,1.82,1.41,3.1,1.7l18.88-5.99,3.55,18.34-19.5,8.38c-.8.34-1.78,2.1-1.5,2.86.23.64,2.11,1.28,2.77,1.03l19.62-7.4c3.3,12.53,2.78,23.73,7.88,36.64.27.69,2.08,2.45,2.43,1.82l1.43-2.57-7.14-37.84,18.84-6.75,7.93,33.12,2.44,1.61c.44.29,1.15-1.77,1.23-2.2l-6.87-33.54,19.38-6.04,3.97,18.03c.15.67,1.63,2.06,2.18,1.7.56-.36,1.5-2.13,1.36-2.9l-3.26-17.66,8.51-2.16c.59-.15,1.54-1.08,1.73-1.59.19-.51-1.15-1.64-1.76-1.56ZM36,155.13l-3.85-18.13,18.94-5.99,4.09,17.58-19.17,6.54ZM59.43,147.28l-3.81-17.13,19.88-5.7,3.83,17.14-19.91,5.69Z"/>
  </g>
</svg>