<?xml version="1.0" encoding="UTF-8"?>
<svg id="Layer_1" xmlns="http://www.w3.org/2000/svg" version="1.1" viewBox="0 0 1123.2 573.04">
  <!-- Generator: Adobe Illustrator 30.4.0, SVG Export Plug-In . SVG Version: 2.1.4 Build 226)  -->
  <path id="PageTurn3" d="M296.27,519.66l162.28,39.66,110.95-69.44c1.32-.77,3.73-5.42,2.55-6.62l-4.09-4.17c-1.81-1.85-2.73-9.2-.52-10.7l15.07-10.2c8.67,3.58,16.39,2.16,24.92,2.5l24.36.97,15.94-.79c.24,7.1,3.65,8.84,8.33,11.91,5.31,3.48,8.71,6.95,16.03,5.18,4.02-.97,8.88.19,13.96.73l21.05-6.91,24.84-4.86c8.47-1.66,15.52-4.73,22.93-10.04,8.13-5.83,16.47,1.8,28.34-23.49,5.92-3.56,9.71-9.51,11.72-15.78l24.5,7.6c10.54,3.27,20.04,2.9,30.51,1.58l18.6-2.34c9.41-1.18,17.14-6.1,25.43-10.33,19.75-10.09,28.11-29.43,23.99-51.23-2.14-11.34-15.56-24.34-28.11-28.46l-15.84-5.2c-9.92-3.25-33.19-.82-30.66,5.67,2.72,6.96,16.79,5.82,24.9,11.41l15.08,10.38c9.21,7.38,10.56,14.91,8.25,26.88-19.75,25.93-58.79,22.64-86.99,7.05l4.49-20.84-.33-28.67c-.09-7.42.39-13.97-1.71-21.1l-7.92-26.95-7.54-17.08c-1.81-4.11-6.68-9.58-10.27-13.18-4.51-4.5-6.51-9.54-9.98-14.95-4.28-6.68-15.18-10.15-20.16-16.39-3.21-4.03-6.42-6.82-10.98-8.87l-23.4-10.53-18.6-8.21-17.53-1.26,18.31-40.99-1.38-11.73,2.46-24.13c-1.07-9.73-6.72-18.14-9.87-27.32-1.46-4.27-2.41-12.28-6.52-14.17-9.61-4.42-15.3-10.39-22.49-17.23-6.66-6.34-19.8-5.11-28.22-7.48-6.37-1.79-12.34-3.01-18.32-1.65l-21.91,4.96c-7.19,1.63-15.04,4.17-20.02,10.02-4.65,5.46-9.54,8.33-16.03,12.39-12.04,7.53-11.75,20.93-18.96,31.16-3.56-1.04-5.89-3.08-8.33-5.92-11.68-13.58-26.06-4.21-35.35-14.97-5.65-.58-15.33-1.54-21.1-.62-7.74,1.23-13.78,5.71-20.7-.81l-12.16,6.05c-3.64,1.81-7.5,3.08-11.34,3.34,2.22-10.62.07-17.1-4.8-25.64-3.11-5.45-4.9-11.56-6.83-17.81-2.22-7.21-12.14-11.83-16.22-17.42-7.2-9.86-14.75-14.68-27.61-17.33-4.19-.86-10.96-6.98-16.33-4.93-8.97,3.41-18.13,4.24-27.74,3.05l-15.33,8.13c-6.2.68-10.89,1.88-14.89,7.37l-12.91,17.73c-3.35,4.6-9.34,6.43-10.09,12.6-2.4,19.62-11.64,26.6-8.59,39.81,2.39,10.37,2.84,19.24,3.32,29.72.4,8.98,9.16,16.47,12.54,24.09,2.94,6.63,5.31,12.54,12.91,15.36,8.71,3.23,16.3,7.74,23.5,14.13l15.38,1.67-9.86,24.29c-2.38,5.86-6.05,13.22-6.22,19.49-.3,10.95-1.69,20.06-6.17,29.59l-12.12-8.44-18.9-4.13-12.62,2.9c-9.37-1.28-20.86,6.05-27.99,12.83-10,9.23-13.56,23.14-6.81,34.92-20.03,21.7-31.74,47.71-30.44,77.93l-105.25,44.92c6.61,22.44-11.91,21.18-10.84,30.24.34,2.88,3.38,4.79,6.87,5.78l158.35,45.03c10.39,13.63,28.38,14.4,43.25,10.32ZM263.4,507.44c7.55-2.03,15.53-1.51,23.56,5.08-7.15,2.11-15.54-.26-23.56-5.08ZM291.91,508.38c16.07-3.29,31.95-.93,47.66,2.42l97.5,20.81c-29.39-15.68-61.77-18.94-93.15-25.26-18.45-3.72-36.07-3.17-54.38-2.77,54.18-11.26,110.82,6.13,161.67,23.45-.37,8.36.05,14.45,1.41,21.53l-160.71-40.19ZM290.84,492.99c28.75-27.92,59.27-49.54,91.2-69.76,39.14-7.29,77.17-6.42,113.87,8.26-14.4,9.12-22.26,4.89-33.37,14.95-2.05,1.85-5.41,5.28-6.33,7.61-.88,2.23,2.79,6.77,4.42,8.18-2.07,3.23-4.44,7.92-4.02,10.72.61,4.06,6.33,6.66,11.46,5.9l.23,5.38c.07,1.61,4.27,4.36,5.96,4.32l13.47-.29c5.45-.12,10.17-.14,14-2.55,4.54-2.86,8.55-3.77,12.85-3.02l-60.41,35.96c-54.54-18.95-105.85-33.97-163.32-25.67ZM374.25,400.77c19.42,8.07,36.87,8.04,58.72,8.82l-50.91,4.74-7.82-13.56ZM459.65,547.53c-2.12-6.95-2.76-13.78-1.56-20.94l59.59-36.46c12.43-7.6,24.43-14.01,39.96-16.07l2.9,10.41-100.89,63.06ZM817.31,406.23c16.45,5.03,34,7.84,50.35,2.59,18.32-5.88,27.39-9.19,33.88-29.89,1.78-5.69-.9-18.42-5.41-22.09l-12.69-10.32-25.58-11.79c7.81-.81,14.37,2.62,22.3,4.98,16.55,4.92,31.05,17.34,31.25,36.93-3.78,16.14-9.27,22.55-23,31.41l-21.32,7.5c-4.77,1.68-15.1,3.65-20.22,3.08l-27.3-3.06-19.58-6.09,1.72-8.02,15.59,4.77ZM690.78,214.32l11.5,2.2,26.8,12.01,22.56,15.46,14.38,14.28c5.42,5.38,8.04,10.34,11.61,16.55l8.27,14.39c7.09,12.34,11.12,17.61,11.14,35,.01,9.76,4.94,21.07,3.23,30.7l-3.18,17.92c-1.2,6.74-.05,16.51-3.19,21.97-7.68,13.37-8.66,24.59-18.44,36.77-5.51,2.39-9.84,5.03-13.69,9.5-4.3,5-8.74,6.17-14.29,8.94l-15.95,7.97c-19.97.33-31.96,12.95-38.77,5.1l-14.73,6.55c-2.23.99-7.95-.94-10.52-2.17l4.61-7.84c.55-.93-2.88-4.17-3.85-3.54-1.21.79-3.72,2.76-4.65,3.86l-3.33,3.95c-.68.81-3.13-2.28-4.22-3.72l8.69-9.27c.1-1.77-4.47-3.49-7.77-3.27,13.7-17.45,31.3-6.3,32.09-11.98.88-6.27-11.71-8.68-9.89-31.54.81-10.17,1.29-17.94,8.65-25.95,1.71-1.86,3.03-7.21,2.65-10.25-11.05,3.06-14.15,13.73-15.19,24.09-7.51,11.53-6.59,24.5,1.92,37.25-7.81-.86-11.69,1.03-16.9,4.66-7.01,4.88-13.53,8.25-14.88,18.56l-15.64-.74c-3.75-.18-8.75-.82-12.35-.12-8.65,1.67-16.11.54-24.63-2.62l8.88-11.48c1.19-1.54.54-6.48-.8-8.95-7.35,3.65-12.42,9.54-15.98,16.43-6.3,3.46-11.32,8.21-15.44,14.2l-20.32,6.57-27.24,7.16-16.01,1.55c-5.3,2.95-8.41,3.26-13.59,3.96l-16.45,2.23,6.51-5.84c1.2-1.07-.34-5.84-2.1-5.7l-13.92,1.12,13.69-9.7c.28-1.36-1.49-6.65-3.24-6.57l-9.48.42c4.24-4.11,10.68-6.8,17.43-8.55l6.71-2.76,11.1-5.36,12.69-8.61c7.54-5.12,22.5-21.17,24.13-27.42.33-1.27-3.43-3.78-4.38-2.87l-3.96,3.82-11.67,11.24c-3.97,3.82-8.86,9.39-14.31,11.13l-29.27-9.45-29.98-5.92c5.05-1.69,9.23-1.25,15.39-2.48l15.38-3.08c16.22-3.25,32.14-7.76,47.21-17.43l17.31,6.46c-.68-7.79-5.46-6.95-11.19-9.39l12.02-10.58c9.2-2.06,14.37-7.55,16.82-16.18,11.84-7.88,9.07-15.69,18.05-24.34,3.12-3.01,3.23-6.96,4.22-11.16,1.25-5.28,8.11-9.78,2.8-16.82l7.01-9.96c3.73-5.3,4.1-10.06.91-15.43l9.33-21.46c-4.46-4.5-4.79-12.41-2.13-16.57l16.57-.99c9.05-.54,16.33-1.21,24.34-5.3l19.69-10.03c4.22-2.15,6.99-7.56,9.98-11.05,4.98-5.82,15.19-.68,21.26.48ZM320.66,288.72l3.03-21.34c.86-6.06.4-12.95,1.93-18.3l8.74-30.53c5-17.47,20.65-31.34,11.58-35.56-13.96,6.7-18.38-2.81-29.11-5.58-9.78-2.53-15.84-7.48-21.17-15.65-3.06-4.69-9.41-10.14-10.82-15.7l-7.77-30.57c-1.46-5.76,2.63-16.15,2.55-22.32-.13-10.81,2-21.31,10.61-24.38,7.78-11.78,16.51-23.83,29.63-30.62,14.98-.48,18.82-9.93,40.71-5.76,5.68,1.08,14.2,2.04,18.52,5.48l16.69,13.29c8.2,6.52,15.2,18.63,19.22,28.58l4.91,20.1c.33,1.36,1.54,5.91.36,6.62l-4.87,2.95-12.07,6.6c-3.93,2.15-8.46,9.77-11.21,14.02l-.52,4.17c-.16,1.25,4.83,1.74,5.73.86l10.25-10.17c4.05-.35,6.74-1.5,9-4.05l3.59-4.07c.82-.93,3.75,1.39,5.21,2.32,6.78-5.34,14.05-10.2,21.51-12.86l2.4,4.21c1.69,2.97,17.32-8.25,24.79-6.29,5.25,1.37,10.22,4.33,16.03,3.8,13.94-1.27,31.26,7.7,43.49,17.82l-4.21,15.1c-1.13,4.06,1.01,11.57,6.97,11.51,2.19-3.2,2.51-10.94,2.31-15.24,6.54-6.19,8.07-13.54,8.58-21.76.5-8.15,11.09-13.9,14.87-19.94,3.63-5.81,6.33-11.2,12.75-13.68,7.39-2.84,13.57-6.35,19.93-10.78,5.37-2.49,10.78-3.92,15.41-.93,15.45-4.34,29.31-.38,43.28,6.35,5.18,2.49,13.73,3.34,16.41,9.34,2.75,6.15,5.79,11.35,10.57,15.59,7.24,6.44,6.04,15.65,7.15,24.27,1.22,9.52,5.94,18.4.98,27.81-3.46,6.58-4.62,13.36-4.77,21.27-.14,7.99-7.26,14.29-11.76,20.39l-11.42,15.49c-3.7,3.51-11.36,9.74-16.69,11.48l-25.89,8.47c-14.85,4.86-35.33-9.45-36.36-6.15l-1.36,4.34c-.38,1.23-2.44,4.07-1.37,4.78l6.19,4.1c7.9,5.24,5.96,17.38,1.13,24.88-4.59,7.12,4.48,9.95-6.7,26.23-1.78,2.59-.85,9.32-2.26,11.86l-9.43,16.9,2.83,4.52c.77,1.23-5.95,11.61-10.47,18.82l-6.48,10.33-14.52,14.25-21.14,14.23-57.22-10.42c-1.08.35-4.9,2.31-4.17,3.16.73.85,3.1,2.44,4.24,2.55,16.91,1.62,33.38,4.3,48.9,8.41-11.6,7.04-29.3,11.53-42.34,13.42l-24.09,3.5c-14.08,2.05-27.22-.11-41.25-2.07-9.66-1.35-18.06-1.03-26.64-6.27l-10.97-2.92,12.05-10.97c1.5-1.37,2.35-4.81,1.9-6.57-.57-2.19-6.7-4.69-7.98-2.95l-12.3,16.7c-6.99-1.82-10.88-6.89-15.13-11.24-5.3-5.42-7.69-8.2-10.03-15.48-1.48-4.6-10.83-8.5-8.06-16.25,1.48-4.14.38-9-3.12-12.31-4.62-4.36.43-9.19.17-14.17l-1.4-27.04ZM311.29,277.76c4.87,7.24,1.65,19.18,1.66,26.56l.02,17.84-19.98-9.52-8.24-12.05c8.62-11.89,5.16-27.64-5.77-36.51,12.48-.26,26.19,4.58,32.31,13.68ZM314.13,344.11c-8.65-6.73-13.28-14.59-17.86-24.63l16.14,8.82,1.72,15.81ZM265.46,267.28c5.04-.35,11.76,6.73,13.04,9.18,3.11,7.27,4.63,13.55-2.23,19.77l-4.77-11.82c-.4-.99-2.7-2.86-3.6-3.47-.91-.62-3.86,1.92-3.84,3.14l.39,19.38c-7.6-3.48-5.01-19.3-12.39-16.85-7.69,2.56.5,10.72-3.45,20.57l-4.7-10.4c-11.59-4.95,4.72-28.33,21.54-29.51ZM241.15,310.6c3.05,2.65,6.84,5.2,8.83,4.82,2.32-.45,5.37-3.03,8.18-5.75l7.31,3.03,10.92-9.61,23.83,38.65c-8.11,1.32-17.73-4.11-25.14,2.37,9.46,4.61,22.83-1.02,29.96,5.36l26.28,24.93c1.63,7.36,7.04,12.37,14.39,14.66l14.43,8.92c6.26,3.87,10.89,13.59,14.33,20.26l-70.13,50.62-25.98,23.96c-4.17-8.15-8.85-16.65-14.94-23.06l-24.67-25.96c-37.03-38.96-33.15-94.48,2.39-133.19ZM204.42,392.37c3.65,24.2,14.19,45.34,32.11,61.8l11.34,12.93-39.85-17.08c-29.63-8.53-58.07-14.97-89.81-20.5l86.21-37.15ZM107.06,445.82c39.22,7,77.04,18.69,116.22,31.33-10.42-11.08-25.08-12.75-38.21-17.11-25.29-8.4-50.59-13.92-76.5-19.36l-.23-3.96c49.14,8.7,108.98,18.42,149.34,48.53l10.42,10.9-12.37,4.18-155.18-44.46,6.5-10.04ZM454.24,283.45c3.94-11.53,16.78-18.32,27.71-13.18,10.73,13.81,8.18,30.47,1.1,45.13-6.97,14.44-17.92,22.89-29.52,17.23-10.87-5.3-8.67-32.45.71-49.18ZM347.81,317.4c-9.49-16.79-7.14-34.9,1-51.66,3.63-7.48,15.89-13.03,22.8-6.76,8.15,19.06,5.96,42.38-6.17,60.5-3.54,5.28-15.36,1.94-17.63-2.08ZM456.41,353.1l33.74-7.09c15.73-3.31,32.03-3.36,47.14,5.05-20.78-.34-37.82-2.34-58.04,2.31l-24.11,5.53c-.56.13-2.87-2.44-2.49-2.86.58-.63,2.69-2.71,3.76-2.94ZM470.07,525.69l42.82-24.55c-3.37,4.85-6.7,7.24-11.65,10.41l-27.98,16.84c-.56.34-3.8.26-3.7-.25l.51-2.44ZM539.91,483.87l1.32,1.55-12.55,8.5c-4.66,3.16-8.82,5.83-14.14,6.02l25.37-16.07Z"/>
  <g id="extra">
    <path d="M1035.02,431.81c-.53-.52-2.36-.74-3.03-.37l-27.1,14.93c-3.66-10.58-7.27-20.11-12.25-29.83-.61-1.19-3.24-.83-3.92-.12l-3.85,3c-.27,7.99.89,15.92,1.44,24.04l.54,8.05-23.92-4.73-9.04-2.81c-.75-.23-2.69.2-3.11.84-.35.53-.47,1.77-.41,2.52l30.77,16.38-15.21,22.09c-.39.56-.59,2.18-.4,2.79.57,1.85,8.65-1.31,12.22-4.3l15.38-12.88,7.86,27.98c2.56-.22,3.46-2.08,2.88-4.33l-5.48-21.58c-.1-.19,1.04-2.25.91-1.9l7.71,2.48,2.35,14.19c.14.84,1.81,2.04,2.51,1.7.56-.28,1.11-1.68,1.06-2.31l-.92-11.77,12.97,3.19c2.53.62,5.94-1.06,6.75-3.5l-17.69-21.07,20.58-19.66c.57-.54.94-2.52.42-3.04ZM981.56,472.74c-.19-1.8.66-3.43,1.87-4.72l1.71-1.83c.46-.49,1.99.68,3.32,1.94-1.73,1.87-3.69,3.26-6.9,4.61ZM992.45,451.37l-.54-19.22c.33-.28,1.77-1.19,2.01-1.18l6.95,16.79c-2.62,1.73-4.49,2.56-8.42,3.61ZM996.18,462.84c-.82-1.13-1.85-3.24-1.42-4.13.64-1.32,3.43-1.59,5.33.37l-3.91,3.76ZM1000.14,465.98l4.13-3.47,1.37,5.52-5.49-2.05ZM1024.58,472.98c-5.39-.37-9-1.37-13.66-2.69l-1.79-11.06,2.32-1.39,13.13,15.13Z"/>
    <path d="M92.91,139.63l-9.35,1.26-3.77-17.33,6.54-1.98c.6-.18,1.47-1.84,1.16-2.29-.31-.45-1.51-.99-2.09-.89l-6.44,1.17-5.28-23.36c-.19-.84-2.32-2.55-2.79-1.95l-1.74,2.25,5.44,23.98-19.9,5.1-5.25-23.56c-.21-.92-1.93-2.2-2.67-2.04-2.4.51-1.97,5.32-.82,10.05l4.1,16.83-18.78,5.5-3.84-20.06c-.41-2.13-1.52-4.58-3.02-6.36-1.41-.1-3.17,2.26-2.87,3.68l5.02,24.38-18.86,5.58c-.99.29-2.31,2.2-2,3.02.31.82,1.82,1.41,3.1,1.7l18.88-5.99,3.55,18.34-19.5,8.38c-.8.34-1.78,2.1-1.5,2.86.23.64,2.11,1.28,2.77,1.03l19.62-7.4c3.3,12.53,2.78,23.73,7.88,36.64.27.69,2.08,2.45,2.43,1.82l1.43-2.57-7.14-37.84,18.84-6.75,7.93,33.12,2.44,1.61c.44.29,1.15-1.77,1.23-2.2l-6.87-33.54,19.38-6.04,3.97,18.03c.15.67,1.63,2.06,2.18,1.7.56-.36,1.5-2.13,1.36-2.9l-3.26-17.66,8.51-2.16c.59-.15,1.54-1.08,1.73-1.59.19-.51-1.15-1.64-1.76-1.56ZM36,155.13l-3.85-18.13,18.94-5.99,4.09,17.58-19.17,6.54ZM59.43,147.28l-3.81-17.13,19.88-5.7,3.83,17.14-19.91,5.69Z"/>
  </g>
</svg>