<?xml version="1.0" encoding="UTF-8"?>
<svg id="Layer_1" xmlns="http://www.w3.org/2000/svg" version="1.1" viewBox="0 0 1123.2 573.04">
  <!-- Generator: Adobe Illustrator 30.4.0, SVG Export Plug-In . SVG Version: 2.1.4 Build 226)  -->
  <path id="Reading" d="M764.55,424.29l-15.62,3.36c-2.51.54-5.21-.07-7.5-1.49l-13.03,5.36c-7.95,3.27-16.22,7.96-17.51.24l-9.76,2.96c-3.67,1.11-10.68-.11-13.37-2.65-2.12-2-2.47-2.66-4.86-3.5s-4.51-3.5-6.22-6.1c-5.04,4.59-10.75,2.29-15.92,1.75-5.7-.59-11.56,1.2-17.27,1.52-3.91.21-5.18-3.28-16.29-1.59l-14.09,2.14c-1.81.27-4.64-.51-6.89-1.25-3.82,3.33-8.98,7.16-11.71,11.53-1.41,2.25-1.98,5.42-4.04,7.13l-9.74,8.11c-2.32,1.93-4.49,2.19-7.12.41l-13.04,8.93c-2.68,1.83-6.08,1.48-8.95,1.3l-13.19,4.98-4.15.54c-.86.11-.73,2.26-.79,3.39-3.98,5.28-9.32,9.41-16.13,10.13l5.09,16.43c.34,1.09-1.58,3.19-2.45,3.43l1.8,4.56c.52,1.31-1.59,4.26-3.13,4.69-4.18-2.8-9.75-2.93-12.56,1.44l-11.83.25-10.21.31-10.94,1.13c-5.42.56-10.07,1.45-15.32.21-7.29-1.72-17.5,4.03-27.59,3.1-4.23-.39-7.65-.52-11.88,0-3.14-.13-5.67.19-7.56,2.8-5.2,1.47-11.31,2.62-16.3,1.02-9.19-2.94-12.63,2.7-17.07-2.02-8.59,3.48-18.7,2.58-26.24-3.14-3.74,4.14-5.1-.58-9.46.14l-15.51-8.65-20.6-12.24-23.19-12.27-22.49-11.51c-1.17,1.22-4.35,2.27-5.61,1.18l-10.2-8.84c-1.83-1.59-2.02-3.62-2.38-6.23-.84-6-5.65-10.88-7.39-16.62l-4.1-13.5c-.36-1.17.93-4.18.3-5.14-1.36-2.05-7.25-3.89-12.17-4.9-2.76-.57-6.69-3.5-8.48-6.22-1.28-1.95-.63-6.82-1.06-8.71-2.45-1.88-4.62-3.56-6.42-5.61-4.95-5.65-4.91-13.54.92-18.44-.64-3.43-.54-7.55,1.58-9.98,1.66-1.91,4.56-3.71,8.1-4.26l-7.09-21.75-4.99-13.49c2.57-3.69.14-5.48-.55-10.76-.14-1.04,2.15-3.12,3.2-2.85,2.52.66,6.24,2.76,8.72,4.07,0-2.04.46-5.03,1.71-5.69,1.74-.92,3.86-.08,5.4,1.12,4.95,3.85,10.21,6.7,15.87,9.46,4.22,2.06,8.35,5.03,12.74,6.32,1.62.48,4.13.48,5.42,1.44l8.23,6.12c2.2.35,4.46.95,6.38,2.19l15.51,10.02c3.65-.48,9.64.59,12.87-.29l15.8-4.34c2.53-.69,5.57.88,6.37,3.58l13.14-2.95-7.29-10.83c-2.82-4.2-3.91-8.97-2.19-14.06-19.76-10.09-40.96-16.16-63.27-18.26-9.12-.86-16.93,1.31-16.53-2.63.36-3.52,5.32-3.31,7.83-3.53,15.61-1.36,40.7,4.24,55.73,10.41l13.66,5.61c-1.11-6.97,5.33-9.15.55-13.21-24.86-21.16-55.49-34.68-88.22-37.93-2.89-.29-11.54.91-11.1-3.05.09-.78,1.67-2.02,2.46-2.13,25.87-3.51,56.15,8.82,78.3,22.07,7.59,4.54,14.07,9.09,20.82,15.46,1.04-1.25,3.39-4.56,3.4-6.36,0-3.83.16-8.96-.95-11.77-2.87-7.33-.59-12.88,2.16-19.36s-.36-14.88.33-21.78c.51-5.05,2.85-9.82,3.67-14.73,1.08-6.55,2.84-12.16,5.6-18.27l-9.46-.16c-4.19-.07-7.47-2.26-8.91-6.14l-5.54-2.3-5.14-1.6-9.77-2.87c-5.46-1.6-9.44-6.72-12.37-11.35l.92-3.53-10.12-14.12c-2.92-4.08-5.78-9.5-3.71-14.46.75-1.79.92-2.85.57-4.76l-2.56-13.86c-2.36-1.89-3.44-4.41-3.53-7.59.24-3.14.43-6.16,1.35-8.84l2.64-7.72c.84-2.46,2.31-6.42,2.53-8.85.76-8.57,2-18.18,10.48-18.81l5.39-10.09c1.42-2.65,1.46-4.88,3.23-7.37,4.89-6.87,10.6-13.36,14.72-8.29l10.38-6.16c3.74-1.56,7.04-1.04,9.25,1.51l17.98.42-.84-4.48c-.21-1.11,2.49-2.86,3.72-2.99,3.38-.36,7.17,1.68,9.77,3.83,3.21,2.66,5.77,2.29,9.7,2.42,6.1.2,20.57,6.99,17.53,12.29l11.68,8.1c3.09,2.14,6.57,4.35,8.9,7.02.55.63,1.51,2.98.97,3.55l-2.68,2.83,8.54,13.92c2.79,4.55,4.71,9.5,4.4,14.98,1.24-.69,2.77-1.52,3.7-1.65,1.09-.15,2.64,1.99,3.14,4.02,3.8-.71,7.6-2.8,11.45-5.2l9.83-6.11c.65-.4,3.54.83,3.5,1.6l-.24,3.67,10.93-.92c5.04-.42,7.93-10.9,12.9-10.87l-3.85,7.69c4.91.17,9.67,1.91,13.96,3.59,1.64-1.99,3.93-3.52,6.45-2.38,1.69.76,2.25,3.37,1.8,5.15l10.05,3.21c2.17-2.66,5.23-2.77,8.42-.88l8.94,5.29c3.21,1.9,6.07,4.21,6.46,7.96l6.01.74,6.41-10.58c-3.67-6.23,6.55-14.16,13.03-20.89l4.83-.8,10.7-7.29-1.44-1.99c-.42-.59.89-2.64,1.62-3.01l16.16-8.22c1.54-.78,4.72-.5,6.31-.46,9.11-2.94,17.61-5.46,27.27-6.74,2.62-.35,5.12,2.38,6.67,3.46l7.94,1.46,9.93,1.3c6.81.89,13.75,4.4,13.37,5.81l-.84,3.16,13.19,9.36,3.77-.59c3.24,1.87,6.8,5.64,6.91,9.63.09,3.15.82,5.3,2.22,8.12l5.35,10.78c2.26,4.55,4.77,9.14,3.34,14.18l-2.61,9.25c-1,3.53-1.67,8.19-1.3,11.53,6.3,2.03,2.29,11.52-1.35,20.08l-5.93,13.95c4.18-1.13,5.97.02,7.8,2.58,9.38-1.93,30.93-4.3,30.66-1.24l-.24,2.71,20.84,1.38c1.84.12,4.03,2.12,4.95,3.63l19.95,3.48c7.19,1.25,14.79,4.85,13.88,6.27l-1.56,2.42,14.36,6.9c6.02,2.89,16.19,8.07,14.81,10.69l-1.77,3.36,10.67,8.56c4.65,3.73,17.16,8.87,11.51,16.14l3.39,6.18,3.66-.71c6.69,1.61,3.45,8.28,4.53,11.36,4.22,12.02,17.46,27.59,8.45,31.77l2.67,17.22c1.19,1.42,3.59,4.05,5.31,5.15l6.62,4.2,11.63,5.56,6.99,3,20.52,5.68,8.18,1.59,10.1.81,9.37.34c7.68.28,20.74-1.09,25.92-3.93l13.95-7.67,4.64-6.24c-2.42-4.13-1.85-7.66.49-11.64l-7.11-9.29c-.8-1.05-2.02-3.48-3.1-4.24l-11.72-8.27c.22-1.61-.16-2.97-.97-3.26l-14.49-5.21-10.41-4.08c-1.45-.57-3.26-3.9-2.61-5.27.81-1.73,3.4-3.1,5.39-3.21l11.84-.65c4.51-.25,8.2.23,12.8.95,5.52.87,11.88,1.4,15.52,6.67,1.79,2.6,3.43,2.27,6.52,2.49,4.57.32,9.32,5.39,12.46,8.68l1.44,6.32c6.86.62,8.62,6.59,8.33,12.3,1.16,3.03,3.1,6.7,2.37,10.36l-1.5,7.5-.74,7.68c-.34,3.55-1.73,6.43-4.95,8.47-1.84,1.17-2.77,3.27-4.23,5.13-3.22,4.07-8.69,7.99-13.21,10.31-3.06-.91-5.2-.85-7.79.55-4.6,2.49-9.18,4.05-14.13,5.5s-9.46,1.61-14.58,2.44l-9.28,1.49c-5.18-2.17-10.81-2.69-15.41.66l-21.57-2.94-14.87-3.55-9.57-3.11-15.92-5.99-5.14-2.21-1.25,11.31c-1.24,5.11-3.03,9.57-6.86,12.95-1.13,5.71-3.2,10.78-6.57,15.44-4.22-1.45-5.04,1.61-6.28,4.67-3.79,9.3-17.11,24.8-20.02,16.45-8.07,5.13-15.88,10.09-25.22,13.37-1.94.68-5.05-.3-6.12-1.17-.75.81-3.07,2.63-4.43,2.93l-.07-.12ZM695.9,423.97l2.48.49c4.89,2.84,10.26,2.99,14.64-.82l10.19-4.29c1.97-.83,4.35,1.67,4.26,4.62l19.35-6.16c2.51-.8,7.24-2.03,9.74-2.01,5.58,2.01,9.99-.09,15.04-2.76l13.18-6.97,3.26,1.39c3.86-2.44,8.06-5.33,11.33-8.7l7.86-8.11c.71-.73,3.54-1.13,3.65-.74v2.14c-.01,1.44,5.91-3.19,8.26-10.92,1-3.29,4.76-6.7,5.2-9.8l.82-5.73,2.46-8.8c.45-1.6,1.89-2.94,4.11-3.88,1.4-10.97-4.97-37.13.88-36.95l2.66.08-.12-8-5.69-21.44c-.52-1.97.32-4.71,1.36-6.57-1.84-6.05-4.84-12.29-8.31-17.47l-4.03-.45-14.1-18.6-.66-4.82c-5.37-7.26-15.67-8.97-22.46-15.95-.92-2.02-2.08-4.28-4.2-5.19l-18.44-7.92c-1.73-.74-3.29-2.46-4.08-4.35l-13.99-3.64-10.38-2.45-15.11-3.23c-10.23-2.19-20,5.72-20.26-3.81-3.66.03-8,.47-11.77,1.4l-15.14,3.75c-4.54-.28-9.41,2.25-9.23,7.52-7.32,5.73-14.87,11.15-23.64,14.07l-3.65-.24c-2.16,3.03-5.31,3.48-8.44,4.53-3.9,1.3-6.48,2.95-10.73.99l-7.21,1.35c-3.71.69-7.61.82-11.14-.27l-3.36,12.49c1.04.06,3.86.69,4.52,1.84,1.96,3.44-.56,8.82-3.98,11.69l-7.04,13.37c2.92,1.45,4.16,3.44,4.21,5.79.15,7.34-9.1,9.26-11.4,18.68,1.98,1.15,3.77,2.26,4.23,3.51.49,1.34-.12,4.63-1.03,5.71l-5.67,6.75c2.57,1.25,4.53,3.58,3.96,5.65s-3.35,3.5-5.44,3.62c-4.2.23-7.95-1.36-8.75-5.71l3.05-5.58c-2.36.82-3.9,1.31-5.03.79s-2.8-4.24-2.03-5.24l11.91-15.27c-2.38-1.11-3.72-3.91-2.26-6.22l8.5-13.46,1.35-5.9-3.21-.4c-.77-.09-1.58-2.86-1.43-3.71,1.36-7.62,10.79-9.48,8.77-22.51l-2.3-5.94-10.68-3.17c-1.51-.45-2.38-3.79-1.49-4.72,1.26-1.32,3.01-1.76,5.16-1.85-.16-.3-1.19-3.66-.74-4.75,1.15-2.76,6.73-3.95,9.73-1.22,6.36,5.76,21.58,7.02,30.44,4.7l10.48-2.75c7.77-2.04,14.22-4.2,20.43-9.66,1.65-1.45,6.09-3.3,6.82-5.33.9-2.46,1.6-4.01,2.98-5.63l4-4.72,9.81-10.18c2.72-2.82,3.95-7.55,4.77-11-5.65-4.49-1.54-10.3,2.08-16.75,2.17-3.87,2.26-8.69,1.97-13.22-.32-4.99-7.79-5.88-2.9-19.44l-4.16-11.16c-5.7-2.7-11.81-9.42-11.47-15.22l-9.62-7.35c-2.34.45-4.45.63-6.04-.04l-10.74-4.57-12.37-3.08c-10.89-2.71-20.1,2.7-21.05.52l-1.48-3.39-13.4,4.85c-.63.23-1.93.98-2.36,1.33s.28,1.86.48,2.67l-8.75,4.96c-4.01,2.28-9.32.89-17.93,11.09.37,2.85-.71,5.64-3.22,7.43-6.79,4.83-12.46,10.87-15.64,18.49l2.5,2.58c.6.62-.36,3.01-.7,3.83l-2.41,5.81c-1.22,2.95-1.91,4.23-5.77,5.21-1.03,6.5,3.49,9.72-.55,15.23-.9,1.22-4.93,1.9-5.79.4l-3.5-6.14c-1.42-2.49,1.2-7.7,1.88-10.25l2.03-7.58-7.89-6.58-6.6-5.51-2.63,2.32c-.84.74-6.12-1.76-8.7-6.11l-10.45-2.38c-1.04,1.08-2.6,2.82-3.39,2.38l-3.62-1.98c-4.07-2.22-5.88,3.25-11.71-3.35-1.89-2.14-6.61.65-8.99,1.12-11.27,2.21-13.98,7.83-17.94,5.53-1.44-.84-2.11-2.48-1.48-5.05-4.71.12-9.19,2.3-13.46,5.64l-8.89,6.94c-.83.65-4.06.43-4.5-.43l-1.9-3.78-7.57,10.3c-.66.9-3.52,1.79-4.14,1.02s-1.27-2.37-1.87-3.97l-10.17,9.81c-1.72,1.66-2.31,3.72-5.2,4.35-1.35.29-3.89.04-4.61-.87-3.05-3.87,11.63-25.6,13.96-24.29l2.99,1.68,10.78-8.56-2.25-5.87c-1.54-4.01-2.68-7.37-.9-11.7l-5.06-8.31-10.42-12.74c-1.77-2.17-6.04-5.56-8.51-6.78-2.92-1.43-4.92-2.31-6.81-4.83-3.45-4.57-10.16-6.8-15.26-7.91l-1.38,3.66c-.23.62-2.71.81-3.37.56l-10.25-3.89c-3.09-1.17-6.67-1.99-9.43-.78l-11.6,5.1c-1.3.57-3.8-1.25-4.66-2.77-2.24.89-6.64,2.9-8.5,5.06-5.57,6.52-10.23,12.86-14.82,20.12-.89,1.41-1.31,5.19-2.33,6.58-.57.77-2.96,2.19-3.67,1.65l-3.07-2.38c-2.44,4.95-4.46,10.1-5.88,15.37l-.72,2.67c-.15.57,2.58,1.42,2.51,2l-1.43,11.24-1.34,9.3.51,8.2,3.39-2.42,1.42,6.14c3.04,13.09,6.02,23.78,15.7,33.14,1.53,1.48,1.75,3.68,1.49,5.98l12.95,8.24c2.85-2.31,4.88-1.96,7.71.26l9.78.54c1.16.06,3.68,1.47,4.31,2.32s.55,2.42.47,4.37l7.32,1.04c1.39-1.87,3.85-3.98,5.52-3.56,3.63,3.23,2.65,7.59,1.2,11.5l-3.28,8.84-5.55,18.53-.32,6.6c-2.07,5.72-4.89,11.76-4.93,17.98l-.12,22.66c-.01,2.23-1.39,3.76-3.39,5.12-.72,8.23,3.35,13.66,2.42,21.81,1.24,3.05,1.53,6.29-1.53,8.6-1.49,12.77,7.91,17.02.56,22.06l3.19,9.15c3.68.97,5.29,2.32,6.77,5.31,1.33,2.67,2.49,5.04-.77,7.44l4.09,6.98c5.28.21,7.24,3.68,8.11,8.72l9.68,5.72,7.16-8.27c3.26-3.76,5.01-9.48,10.44-11.54,1.62-.61,4.65,2.46,5.1,4.14,2.11,7.93-8.61,10.03-13.22,17.91l9.83-1.89c4.48-.86,8.58-.52,13.13-.62,7.93-.16,15.73-2.89,23.47-4.75,5.74-1.38,11.8.22,17.83-.09l15.27-.79,22.79-1.04c2.92-.13,4.23,2.37,4.68,5.37.64,4.29,8.78-.83,9.76.02l2.72,2.38c1.93,1.69,2.42,3.58,1.58,6.28l3.49,6.94c.38,4.2.41,8.23,1.66,11.91,3.76,11.1.47,18.08,8.05,16.54l6.85-1.39c.62-.13,2.11,2.25,2.01,2.33l9.25.31c1.8-.88,4.14-3.5,5.91-5.3l4.91-5.01c2.49-.03,3.78-.27,5.15-1.48s1.18-2.97.24-4.98l8.33-15.19c2.51-.71,4.56-1.77,6.55-3.25,1.03.14,3.02,1.11,3.55,2s.68,3.64.1,4.63l-5.58,9.55c-1.78,3.05-7.45,5.29-8.61,8.76-.97,2.89-1.27,5.74-3.54,7.54l-8.15,6.49-4.4,3.94c-9.47.6-9.27,12.55-17.54,7.14l-5.81,3.91-2.93,3.72c-.66.84-3.68-.57-4.69-.25-5.09,1.62-9.5,4.78-13.62,8.4,5.95.73,9.53-3.58,13.22,1.96.99,1.48.5,4.97-1.45,6.17l-11.14,6.86c7.22,2.05,12.44-4.37,16.15.32.66.83.68,4.04-.34,4.66l-7.66,4.68c11.15,5.59,16.14-9.2,22.21-2.78l5.68-4.63,3.93.22c2.08.11,2.5-9.81,12.74-9.27l9.95-4.02,14.71-8.23c.59-.33,2.24-1.34,2.73-.94l2.43,1.96,15.91-13.62,3.18,1.48,6.2-7.44-.85-3.89c3.43-7.03,11.14-9.96,11.06-14.67-.12-7.19,3.49-13.33,9.86-14.37l2.92-2.98c.59-.6,2.99,1.14,3.28,1.93.66,1.82,1.09,6.3,0,7.99l-8.01,12.37c3.41.07,7.84-.4,10.41.57,8.81,3.35,11.66,1.41,18.06.23l6.83-1.26c3.53-.65,6.86-.75,10.39.1l7.16,1.73c2.38.58,7.5-.6,9.84-1.44l-2.14-4.54c-.43-.91,1.58-2.87,2.01-3.98,2.67-6.78,8.94-12.58,17.14-12.78.17-3.79,1.99-5.2,5.04-6.29,5.37-1.92,10.16-1.96,16,.98,2.66-5.89,1.21-10.53-.46-16.15-1.35-4.54-.58-11.06.65-15.58.38-1.4,3.24-3.41,4.18-4.46,1.51-3.46,3.81-8.44,4.49-12.06,1.43-7.58,5.19-12.56,10.42-17.85,2.31-2.34,4.13-5.15,8.04-3.09l6.98-6.25c7.11-6.36,17.62-14.11,19.41-6.93.55,2.23-.51,4.09-2.35,5.43l-9.75,7.11c-.51.37-2.15,1.49-2.52,1.04l-1.83-2.22c-6.54,4.49-11.77,11.1-15.37,18.61-1.33,2.77-3.4,4.07-6.49,4.71l-3.88,10.83-.51,7.81c-.22,3.4-1,5.32-2.35,8.31-1.92,4.25-1.05,10.57.75,14.91l3.08,7.44c.76,1.84.51,4.72-1,6-1.81,1.54-3.77.38-6.19.14l-9.27-.93c-2.06,4.53-8.97,6.67-13.11,3.19-4.04,1.29-8.38,4.47-10.6,7.78,2.5-.43,4.36-.89,5.77-.4s2.51,3.84,1.41,4.7l-6.84,5.36,5.54,2.58c1.6-2.51,4.21-4.48,6.86-3.91,1.36.29,3.15,2.93,2.67,4.05-1.81,4.16-6.54,5.92-4.91,6.24l.12.12ZM289.11,166.91c-1.59-4.43-3.37-7.83-6.35-11.08-.31,4.69,2.87,8.64,6.35,11.08ZM842.54,339.32l9.61,5.56c.92.53,3.36-.71,4.39-1.28l11.42,4.03c4.07,1.44,6.68,3.08,10.81,3.78l24.73,4.2c4.48.76,9.4,3.06,14.07,1.76,2.95-.82,6.43-2.56,9.3-1.72,3.33.97,6.72,1.99,9.76.59,4.89-2.25,9.62-3.88,14.73-4.8,2.33,2.68,4.76,1.9,7.31.74,9.22-2.34,10.6-9.09,15.63-8.32l5.81-5.67c-.17-3.79,1.11-6.43,3.62-9.2,3.67-4.04,6.48-10.23,3.82-15.47l-9.27-18.23c-2.36-4.64-7.72-7.32-12.04-10.36-2.43-1.72-4.02-2.31-6.97-1.91l-7.13-3.41c-2.32-1.11-4.39-2.85-6.64-3.44l-5.98-1.56c-3.52-.92-8.1-.43-11.89,0l20.42,9.69c2.13,1.01,4.92,1.58,7.22,3,4.15,2.56,7.3,4.69,9.38,9.38,3.8.53,8.91,3.75,9.01,7.79.07,2.52.24,4.6,1.42,6.79,3.58,6.62.84,15.21-3.92,19.6s.74,6.76-14.65,14.02c-2.22,1.05-4.28,1.15-6.5,1.47l-18.32,2.68-2.95,1.94-11.58-.26-12.69-2.16-9.52-.62c-4.56-.3-8.47-1.81-12.61-3.32l-10.33-3.77c-2.97-1.09-10.25,4.12-21.85-9.73l-4.88-2.11c-.91,1.71-1.81,3.04-2.81,4.09-1.07,1.13-1.31,5.45.06,6.23h.01ZM321.26,492.09c4.78,2.04,8.01,3.56,11.87,6.68,1.93,1.56,4.96,2.87,7.65,4.13-.87-9.77-6.38-15.63-8.13-26.18l-1.92-11.59-5.3-18.76-2.6-10.29-3.08-11.1-4.9-17.76-2.62-7.62c-.27-.8-1.3-2.6-.91-3.29l2.02-3.51c-7.5-2.27-13.05-6.88-19.14-11.28l-7.89-5.69-33.02-22.58-22.16-14.13-19.6-12.22,9.37,31.03,3.74,13.21c6.42,1.68,12.69,5.38,16.22,11.22,2.1,3.47,1.43,7.38-2.27,9.31,6.41,4.04,10.24,11.2,7.29,13.36-1.13.83-3.02,1.53-5.13,2.4,2.62,1.9,3.97,5.07,2.49,7.62-.91,1.56-3.64,3.36-5.65,4.17l6,14.67,3.45,10.84,4.23,10.99,9.64,5.36,18.02,9.97,19.41,10.2,11.75,6.05,11.18,4.78h0ZM310.01,379.97l-15.73-12.72-16.22-11.8-8.21-5.36-15.04-8.56-23.86-12.05c1.86,3.41,5.11,4.17,7.95,6.02l17.97,11.7,30.49,19.94,10.19,5.89,19.85,14.89c-1.81-3.34-4.62-5.72-7.38-7.95h0ZM335.21,392.54c2.21.45,3.54-.04,4.75-1.74l4.49-6.35,3.22,1.62c2.35-2.38,4.06-2.86,7.55-3.22l-4.58-4.76c-4.92.64-7.97-2.57-10.8-6.09-1.79-2.23-1.96-4.36-.04-7.15l-8.91-9.92c-4.18,3.3-7.14,2.75-11.39,1.16l-13.09,3.22c-1.02.25-3.37-2.47-3.89-3.11l-8,1.57,3.74,3.61,8.91,7.98c2.8,2.51,5.26,4.73,8.59,6.65,5.39,3.09,8.87,9.21,10.32,14.65l9.13,1.87h0ZM224.61,403.66c-.14-1.15,1.48-3.3,3.01-4.05,1.71-.84,4.94.04,8.23.25-3.25-3.83-6.99-4.78-11.69-5.83-1.37-.31-3.47-3.23-3.27-4.61s2.44-3.7,3.83-4.18l7.34.25c-5.02-7.44-11.68-5.33-16.84-9.93l.02-5.36-6.81,10.08c3.68,3.6,2.61,7.21.22,11.19,3.34,1.14,7.61,3.1,6.95,6.57-.26,1.39-1.39,3.3-.81,4.13,2.05,2.92,5.16,1.74,7.13,5.92.72,1.54,2.58,3.28,3.86,3.33l8.83-2c-4.12-2.74-9.54-1.89-10.02-5.78l.02.02ZM363.02,390.98l25.97-4.54c3.45-.6,5.31-.53,8.59.43,4.57,1.33,10.28-.74,14.84-1.88l11.88-2.98,8.38.34,15.93-2.82c8.83-1.56,13.7.49,14.53-2.37l-23.43,1.15-18.06,2.26c-2.29.29-5.21-.58-7.67-.87-6.38-.76-13,1.12-19.21,2.49l-7.75,1.72c-6.15,1.36-11.21,2.52-17.82,2.49l-8.54,1.99c-4.14.97-8.2,1.42-11.24,4.71l13.62-2.11h-.02ZM414.75,510.12c3.4-.05,6.84.18,10.16-.7,5.52-1.46,11.26-3.03,16.92-2.19,5.11.75,9.78,1.16,14.42-1.04,6.08-2.87,13.38-4.2,19.89-4.18,1.12,1.68,2.62,2.65,4.16,2.41l16.46-2.53c2.76-.42,7.39-2.24,9.69-1.16,2.89,1.35,4.9,2.1,7.15,1.02-3.04-6.22-5.06-12.36-5.41-18.2-8.61,1.72-21.99.73-21.61-4.03.09-1.13.84-2.87,1.59-4.55l-7.48-.03c-3.75-.02-7.66-3.35-6.84-7.54.68-3.51,4.14-5.92,7.16-8.33-3.07-.7-7.13-2.2-7.56-5.33-.69-5.07,4.33-9.03,8.65-10,.68-6.74,7.73-7.55,15.35-8.95l-2.71-11.88-8.4-34.02,1.1-5.61-10.92,1.27-13.48,1.57-11.84,1.55-12.77,1.9-10.61.67-11.11,1.64-14.37,1.79-15.93,2.23-11.87,1.72-11.66,1.8c-4.23.66-6.84,1.05-11.28.96l2.84,5.08,2.34,10.34,4.37,18.6,4.69,16.6c2.59,9.15,5.57,17.42,6.57,26.99l2.74,6.58c1.33,3.19,3.27,7.33,3.11,10.61-.19,4.08.04,6.42,3.18,9.41l2.07,7.58,6.18-.75,8.81-1.07,16.25-.22h0ZM373.41,509.45l-1.69-8.04-4.15-11.18c-1.08-2.91.02-6.33-.19-9.41-.37-5.35-3.83-10.77-5.11-16.11l-2.68-11.13-3.36-14.9-8.84-31.84,1.01-5.29c-8.11,5.69-14.44-.63-19.01,1.18-1.1.44-3.15,1.65-4.08,1.36-2.66-.81-2.41-7.17-6.28-5.47,3.85,2.8,2.42,5.08,3.18,8.01l3.46,13.34,4.05,15.54,5.29,19.23,3.53,11.63,2.95,8.05,5.32,21.76,3.75,11.04c2.08-.29,4.44-.32,5.94-.05l8.04,1.49,3.83,3.9c1.03,1.05,5.28-1.66,5.04-3.12h0ZM75.37,195.2c.14.76-1.1,3.12-1.79,2.9h0M471.39,319.65c-3.82,4.1-11.11,5.41-12.31,4.01l-3.05-3.54c-1.21-.25-4.26-.92-5.18-1.75l-2.28-12.89c-.52-2.92-.57-5.62.2-8.23l5.43-18.22,4.96-11.27c1.01-2.29,3.03-3.6,5.17-4.98,5.28-3.43,11.02-6.17,17.35-3.82,2.67.99,3.44,3.9,4.33,5.94,1.56,3.58,2.94,6.92,3.39,10.95,1.16,10.34-.77,21.41-6.48,29.9.32,2.51-.1,5.49-2.43,6.87l-4.62,5.79-4.48,1.22v.02ZM378.37,302.13c-1.65,5.41-4.1,10.11-9.95,11.29l-3.97-2.18c-5.24.83-7.42-2.11-8.96-6.18-5.13-13.57-5.06-27.05-.22-40.84,1.91-5.43,4.19-13.06,10.92-14.27l8.51-1.54c2.13-.23,5.69,3.5,6,5.63l.75,5.14c-.79,6.65,2.81,14.73,2.13,19.05l-2.2,14-3.02,9.91h0ZM535.59,370.39c8.07,3.52,16.74,9.17,12.17,11.04-.76.31-2.07.04-3.14-.46l-12.77-5.95c-20.56-7.46-41.7-11.89-63.7-12.49-3.08-.08-7.83-.46-8.42-3.41,2.01-5.08,7.51-3.12,11-2.76l26.21,2.73c13.44,2.43,26.15,5.87,38.65,11.31h0ZM544.74,338.81c-.71,4.28-6.6-.28-17.58-.66-12.24-.43-24.27-.93-36.26,1.61l-30.91,6.56c-1.75.37-4.39-.97-4.24-2.49.2-2.08,2.04-3.15,4.06-3.65,18.82-4.66,37.59-8.7,57.14-8.11l13.55.94,11.92,2.62c.96.21,2.46,2.27,2.31,3.18h.01Z"/>
  <g id="extra">
    <path d="M1035.02,431.81c-.53-.52-2.36-.74-3.03-.37l-27.1,14.93c-3.66-10.58-7.27-20.11-12.25-29.83-.61-1.19-3.24-.83-3.92-.12l-3.85,3c-.27,7.99.89,15.92,1.44,24.04l.54,8.05-23.92-4.73-9.04-2.81c-.75-.23-2.69.2-3.11.84-.35.53-.47,1.77-.41,2.52l30.77,16.38-15.21,22.09c-.39.56-.59,2.18-.4,2.79.57,1.85,8.65-1.31,12.22-4.3l15.38-12.88,7.86,27.98c2.56-.22,3.46-2.08,2.88-4.33l-5.48-21.58c-.1-.19,1.04-2.25.91-1.9l7.71,2.48,2.35,14.19c.14.84,1.81,2.04,2.51,1.7.56-.28,1.11-1.68,1.06-2.31l-.92-11.77,12.97,3.19c2.53.62,5.94-1.06,6.75-3.5l-17.69-21.07,20.58-19.66c.57-.54.94-2.52.42-3.04ZM981.56,472.74c-.19-1.8.66-3.43,1.87-4.72l1.71-1.83c.46-.49,1.99.68,3.32,1.94-1.73,1.87-3.69,3.26-6.9,4.61ZM992.45,451.37l-.54-19.22c.33-.28,1.77-1.19,2.01-1.18l6.95,16.79c-2.62,1.73-4.49,2.56-8.42,3.61ZM996.18,462.84c-.82-1.13-1.85-3.24-1.42-4.13.64-1.32,3.43-1.59,5.33.37l-3.91,3.76ZM1000.14,465.98l4.13-3.47,1.37,5.52-5.49-2.05ZM1024.58,472.98c-5.39-.37-9-1.37-13.66-2.69l-1.79-11.06,2.32-1.39,13.13,15.13Z"/>
    <path d="M92.91,139.63l-9.35,1.26-3.77-17.33,6.54-1.98c.6-.18,1.47-1.84,1.16-2.29-.31-.45-1.51-.99-2.09-.89l-6.44,1.17-5.28-23.36c-.19-.84-2.32-2.55-2.79-1.95l-1.74,2.25,5.44,23.98-19.9,5.1-5.25-23.56c-.21-.92-1.93-2.2-2.67-2.04-2.4.51-1.97,5.32-.82,10.05l4.1,16.83-18.78,5.5-3.84-20.06c-.41-2.13-1.52-4.58-3.02-6.36-1.41-.1-3.17,2.26-2.87,3.68l5.02,24.38-18.86,5.58c-.99.29-2.31,2.2-2,3.02.31.82,1.82,1.41,3.1,1.7l18.88-5.99,3.55,18.34-19.5,8.38c-.8.34-1.78,2.1-1.5,2.86.23.64,2.11,1.28,2.77,1.03l19.62-7.4c3.3,12.53,2.78,23.73,7.88,36.64.27.69,2.08,2.45,2.43,1.82l1.43-2.57-7.14-37.84,18.84-6.75,7.93,33.12,2.44,1.61c.44.29,1.15-1.77,1.23-2.2l-6.87-33.54,19.38-6.04,3.97,18.03c.15.67,1.63,2.06,2.18,1.7.56-.36,1.5-2.13,1.36-2.9l-3.26-17.66,8.51-2.16c.59-.15,1.54-1.08,1.73-1.59.19-.51-1.15-1.64-1.76-1.56ZM36,155.13l-3.85-18.13,18.94-5.99,4.09,17.58-19.17,6.54ZM59.43,147.28l-3.81-17.13,19.88-5.7,3.83,17.14-19.91,5.69Z"/>
  </g>
</svg>