<?xml version="1.0" encoding="UTF-8"?>
<svg id="Layer_1" xmlns="http://www.w3.org/2000/svg" version="1.1" viewBox="0 0 1123.2 573.04">
  <!-- Generator: Adobe Illustrator 30.4.0, SVG Export Plug-In . SVG Version: 2.1.4 Build 226)  -->
  <path id="Sleeping" d="M988.9,362c1.96-.94,4.98-2.53,5.68-4.81l4.15-13.53c.6-1.95,2.08-4.29,1.89-6.66-.43-5.3-1.15-10.8-4.45-14.86l-4.27-5.26c-1.03-10.26-12.05-15.69-22.01-18.17-1.15-2.02-2.95-4.1-5.46-4.36l-15.85-1.68-17.67,1.58c-2.05.18-4.09,1.31-5.42,3.07-.75.99-1.12,3.48-.66,4.6.42,1.02,2.08,2.37,3.39,2.74l27.79,7.9c.24,2.35,1.06,3.97,2.67,5.07l9.13,6.23c.84,3.83,3.08,7.27,5.72,9.79.11.85-.14,2.78-.36,3.55l-2.27,7.8c-.5,1.7-3.08,4.42-4.11,6.18l-4,.95-15.64,6.5c-9.82,3.01-19.99,3.27-30.17,2.35l-20.03-1.81c-4.53-.41-8.49-1.17-12.94-2.56-4.27-1.33-9.73-1.45-13.45-4.04-4.64-3.22-8.9-5.88-14.69-7.11-1.76-.38-2.93-2.07-4.33-3.29l-5.03-4.33c.02-10.88-1.91-21.63-5.43-32.15-1.69-5.03,3.89-3.87-1.17-13.4-2.36-4.43,1.64-6.05-5.51-17.57l-7.73-12.45c.8-2.38.79-5.05-.84-7.08l-15.61-19.43c-.02-2.48-.75-5.42-3.36-7.17l-21.22-14.21c.83-2.1.55-5.07-1.95-6.01l-14.77-5.51-7.87-2.58-.18-4-8.95-2.96-17.89-3.67c-.54-2.45-1.8-3.94-4.18-4.45-13.03-2.79-25.83-3.16-39.07-.92-2.2.37-3.32-.53-4.84-2.07-2.72-.94-6.69-.11-10.17.81l-4.98-24.42c2.01-4.24-2.78-13.77-5.52-15.59-5.38-3.56-5.95-4.99-7.98-10.77-.96-2.72-5.31-4.9-7.42-6.84.11-1.58-.13-4.02-1.41-4.87-3.2-2.12-6.11-4.19-9.66-5.16l-19.2-5.29c-1.74-.48-3.11-1.36-4.31-2.79-6.96-1.73-14.6-2.12-21.79-.73l-17.29,3.35c-1.62-6.41-10.2-1.18-16.88,3.86l-11.04,8.32c-2.41-2.01-4.59-1.28-6.63.74-7.58,7.51-12.98,16.85-18.57,25.94l-5.06,2c-4.77-2.5-9.95-3.95-15.44-4.07l-13.52-.28c-.29-2.35-1.69-4.34-3.96-4.09l-7.46.8-2.03-2.77c-2.39-.36-6.72-1.22-8.86-.25-5.71,2.59-10.94,4.75-16.64,5.67-.42-1.66-.71-2.73-1.29-3.01-.46-.22-2.07-.21-2.56.04l-12.07,6.03-11.03,4.3c-.62-1.85-1.36-3.58-2.34-3.82-1.01-.25-3.37.23-4.52.6-.22.12-1.32-1.15-1.02-1.5l1.4-1.65c2.23-10.29-6.06-14.52-9.84-22.36.56-2.75-.04-5.01-1.8-6.98l-6.33-7.07c-2.64-2.94-6.85-4.55-10.49-6.08l-.83-4.28c-5.76-4.01-13.65-8.61-19.84-7.03l-17.73-2.87c-2.33-3.49-13.17-3.04-18.04-1.74l-17.75,4.75c-2.31.62-3.28,3.25-2.74,5.35-6.47,3.68-12.78,8.37-18.53,13.44l-2.9-2.05c-.59-.42-2.28.56-2.84,1.11-4.69,4.72-6.95,10.64-8.87,17-.7,2.32-2.36,3.74-3.98,5.06-4.11,3.33-3.6,8.84-3.98,13.56l-1.59,19.42c-4.28,2.95-2.77,11.41-.86,17.98.44,1.5,2.97,3.01,3.56,4.26l4.86,10.25c-2.76,4.43,2.91,12.37,7.46,15.8l10.04,7.56-.28,3.15c3.53,3.27,7.87,7.47,12.93,8.37,4.86.86,8.94,1.94,13.14,4.92,6.1-.22,10.39,2.89,16.79,2.78l-5.79,25.34c-2.14,1.47-3.7,3.37-3.89,6.16l-.74,11.07-1.57,9.34c-8.79,4.75-1.05,19.06-3.59,29.76l-4.63,3.64c-15.33-11.51-31.99-20.63-50.38-25.39-8.65-2.43-16.58-3.73-25.51-4-.95.77-1.86,1.7-2.01,2.42-.12.6,1.44,1.59,2.09,1.62,5.92.21,11.95,1.16,17.83,2.57,20,4.8,38.21,13.53,54.55,25.96,4.23,3.22-2.21,4.8-1.09,13.51-16.93-7.43-34.14-12.08-52.54-12.36l-12.8.91c-.69.05-2.24,1.85-1.77,2.25l2.05,1.72c12.58-1.71,24.63,0,36.86,2.94,9.12,2.22,17.68,4.85,26.01,8.78-1.83,4.58-.08,8.13,2.51,12.09-2.06-.71-4.23-1.6-5.5-1.28l-9.94,2.45c-4.95,1.22-9.35,5.07-14.57,5.41-3.55.23-6.77.64-10.11,2-3.91,1.6-7.82,1.73-11.85,2.43-9.19,1.6-18.08,4.11-26.82,7.16l-14.25,3.48-19.88,5.78-20.07,6.11c-2.43.74-4.79,5.39-4.91,7.73-.21,3.9-1.75,5.93-3.19,8.99-3.36,7.14-1.16,15.63,2.44,22.2l1.06,5.22c2.99.08,3.68,2.74,4.48,4.69,4.77,2.82,10.43,5.44,15.84,6.31,2.76.44,5.15.64,7.54,1.72l9.71,4.37,22.69,9.62,20.73,7.99c6.47,2.5,12.72,5.1,19.42,7.05l7.11,2.07,11.44,4.27,5.87,2.98c4.97,2.52,10.51,5.19,16.08,4.5,5.73-.71,11.11-1.88,16.04-4.29,4.99-2.44,10.28-2.86,15.55-4.25l13.02-3.42c8.15-.98,15.4-3.62,22.87-6.75,2.82-1.18,5.84-.97,8.67-1.83l20.94-6.32c6.19-1.17,12.42-2.52,17.81-5.26,4.7-2.4,9.02-3.34,14.42-3.48l7.03-2.43c2.5-.87,3.89-3.5,3.48-5.85-.42-2.44-2-3.16-4.24-4.83-1.59-1.19-2.34-5.19-3.03-7.3-3.31-10.09,1.78-10.41,1.17-12.44-.2-.68-1-1.94-1.57-2.89l.95-5.66,9.91-.09-6.68,6.21c-2.18,2.03-2.74,4.74-1.5,7.71-1.68,2.86-1.8,6.26.11,9.02,1.28,3.23,3.92,5.12,7.5,5.16l2.43,3.21,9.04,2.83c2.08,1.32,3.6,3.63,6.16,4.3,9.75,2.56,19.43,1.21,28.64-2.33l6.34.96,3.2,1.04c3.48.38,9.66.89,12.89-.62,4.9-2.29,8.48-3.68,14.34-2.7,2.33.39,6.61-2.26,8.89-2.14,3.42.18,5.88.06,8.99-1.41,2.8-1.32,5.27-1.42,8.28-1.74,3.6-.39,7.2-3.09,10.33-4.86l3.9.61c3.89-1.71,8.38-3.43,11.49-6.1l5.7-4.89,8.48-6.56c6.83,4.04,14.39-.04,18.65-.56l6.46-.79c2.03,2.39,4.38,2.2,7.31,2.08,6.26-.27,12.14-.81,18.18-2.04,3.37.7,6.92.62,10.17-.51l6.26-1.85c.06,4.03,3.08,4.5,5.53,5.08.59,3.73,3.06,6.85,7.24,7.16l9.46.71c3.47,6.69,15.01,6.7,22.95,3.04,2.39-1.1,7.55,2.6,14.75-1.83,3.72-2.29,6.87-1.71,10.73-2.2l12.96-1.64c6.47-.82,12.41-3.63,18.47-5.87l3.16,1c9.4-1.69,17.05-6.73,23.83-13.27,1.66,1.44,3.72,1.73,5.44.55,5.42-3.72,10.93-8.14,13.47-14.34,1.2-2.95,2.23-5.56,3.99-8.05,7.11,3.04,8.98-10.83,9.52-19.9l4.78-2.38,15.62,9.18c2.07,1.22,5,.81,7.49,1.05,3.84.37,7.47,2.59,11.01,4.06,8.05,3.35,16.61,3.86,25.3,3.57,5.3,1.93,10.83,2.59,16.27,1.38,4.73-2.04,9.71-.57,14.67-.76,14.83-.57,25.89-6.16,32.02-5.99,6.36.17,10.36-4.07,15.2-7.07,4.53-2.81,9.04-5.98,11.39-11.04ZM184.12,424.41l1.66,9.94-5.15-1.65c-4.49-8.11-3.96-14.13-3.17-22.98.27-2.99,1.54-5.66,3.39-7.72l7.37,3.03c-3.24,6-5.24,12.53-4.1,19.38ZM306.06,466.56c-3.61,5.38-.85,8.74.45,14.03l-14.44-5.26-14.44-4.88-26.28-9.02-22.17-8.69-4.9-3.32-11.93-4.17-6.34-2.16-7.99-2.68-5.18-3.31c-1.59-5.61-2.24-11.79-1.58-18.42l17.02,6.45c-.37-2.69-2.64-3.77-4.65-4.76l-11.87-5.88,1.28-6.95,9.35,3.32c2.83,1,5.06,1.69,7.81,2.81l21.45,8.7,46.25,17.32c5.94,2.22,12.29,2.74,17.47,6.42,3.7,2.63,8.12,4.17,12.82,5.87-1.88,4.62-3.14,9.42-2.14,14.59ZM309.99,441.23c-11.35-5.04-23.08-7.96-34.67-12.12l-24.82-8.92-5.99-3.04c-7.68-2.75-15.46-4.67-22.63-8.07-5.44-2.58-10.61-5-16.71-5.89-3.01-3.11-6.82-4.41-11.74-5.59l23.55-7.5,20.1-6.5,6.15-.78c6.89-.88,12.93-4.1,19.89-4.69,14.09-1.18,20.16-6.33,27.82-7.8l19.37-3.71,3.83-.52c1.01-.14,2.63,2.05,2.77,3.11-1.12,1.96-1.85,4.53-.01,6.41l9.91,10.11c-3.49,4.79,4.17,10.44,9.82,11.21,8.68,1.18,7.17,8.48,14.51,7.13,3.34-.61,4.01,1.2,5.65,3.04,3.07,3.45,8.52,2.22,12.7,2.72l9.25,1.1c2.49.3,3.78,1.37,5.97,2.6,3.43,1.92,8.54,1.62,12.78,1.53l13.58-.31c.39,0,1.61.95,1.88,1.22.35.36-1.14,1.13-1.72,1.18-7.91.65-13.17,4.86-21.34,6.4l-7.89,1.48-26.11,7.87-13.93,4.36c-6.82,1.05-12.71,1.9-19.09,5.09l-8.09,2.32c-2.35.67-4.33-.99-4.8-3.41ZM433.47,452.1c-2.51.98-5.32.35-7.83.64-5.54.64-10.78,2.91-15.97,4.77l-9.19,3.29-12.83,3.79c-4.1,2.18-8.13,3.07-12.49,2.49l-30.98,9.81-6.25,2.25c-3.11,1.12-6.46.92-9.73,1.63l-12.55,2.73-2.74-6.51c2.7-3.2,7.18-1.81,9.37-4.96-3.47-.32-4.92-.02-8.42.62-.61-2.03-.99-4.82-1.06-7.6l10.38-4.03c.45-.18,1.27-.97,1.52-1.26.33-.39-1.78-1.19-2.39-1.08l-8.82,1.64c.33-3.13,1.15-6.41,2.53-8.65l10.95-3.05c4.21-1.17,8.57-1.12,12.71-2.94,3.85-1.69,7.37-2.61,11.58-3.19,5.1-.69,9.99-2.94,14.9-4.28l19.91-5.45,28.45-8.56c3.23-.97,7.44-.35,10.55-2.25,2.12-1.3,5.14-3.39,7.35-3.7l9.23-1.29-1.75,5.63-30.77,9.36-42.32,12.91c-8.61,2.63-16.92,4.69-25.34,9.27,9.79-.4,18.45-3.7,27.58-6.33l25.44-7.32,38.88-10.87,5.69-.73.99,8.22-47.58,13.81-52.83,15.62-1.07,1.86c-.31.53,1.67,1.43,2.31,1.27l17.04-4.26,54-14.56,30.33-7.97,2.83,4.69-11.62,4.54ZM835.09,328.56l.04,13.57-1.98,14.34c-1.55,1.14-3.67,3.08-3.99,5.4l-1.78,12.83c-5.93,6.07-5.99,13.15-11.49,18.88-.96-.81-2.86-1.48-3.47-.86l-8.26,8.6c-3.9,4.06-8.04,8.15-12.81,10.61-1.41-1-3.43-1.52-4.54-.95l-8.62,4.42c-4.98,2.55-10.05,4.86-15.37,6.16-.45-.9-2.07-2.73-2.94-2.48l-14.27,4.08-10.83,2.81c-.42-3.61-8.92-.99-12.29,1.36-3.3,2.3-6.15,3.48-10.08,2.49l-6.77-1.7,7.11-5.52c.56-.43,1.16-1.82,1.13-2.47-.03-.65-1.5-1.94-2.23-1.87-4.82.41-9.5,3.92-13.24,6.76-2.48,1.88-6.49.24-9.32-1.53,3.63-5.51,8.66-5.94,8.66-9.65,0-4.93-8.13-1.31-13.81,3.78l-1.16.31c-1.97-6.62,3.79-6.99,7.36-13.93,2.21-4.31,9.89-1.68,16.25-6.68l11.86.63c2.62.14,4.72-3.94,3.36-6.63-2.12-4.19-5.89-6.2-9.85-8.16-1.44-.71-1.14-2.69-.73-4.36,1.44-5.81-2.49-11.73.11-17.64l3.87-.7,5.65-12.07c2-4.28,6.93-8.12,11.24-10.05,5.07-2.26,11.28-4.12,9.14-8.29-2.1-4.08-15.28,4.32-21.61,11.74-1.32,1.55-2.83,1.82-4.66,2.58-4.6,1.92-7.95,7.31-8.75,12.13-.55,3.3-1.32,7.73-2.98,10.15-1.96,2.86-3.96,4.34-3.74,8.17.25,4.55,2.1,8.39,6.81,9.88l-.95,5.43c-3.99-1.38-7.46-.13-11.16,1.04-2.75.88-3.64,2.88-5.34,4.62-2.63,2.7-7.97,3.46-9.84,7.61l-1.49,3.32-3.58,4.47c-10.7-.56-20.12,5.96-29.62,3.35-1.21-.33-3.81-1.7-5.1-1.46l-11.98,2.15c-2.92.52-6.06.13-8.74-.91,4.55-4.43,5.99-10.13,2.68-12.31-.6-.39-2.55.18-3.06.78l-5.08,5.96c-1.07.21-4.01.31-4.73,1.13l-6.1,6.9c-2.89,3.27-5.33,7.13-9.37,8.73-1.57-.57-3.76-.82-5.43.39l-7.68,5.55-17.17,6.48c-1.82-1.26-3.52-1.46-5.26-.98l-11.16,3.09-14.74,4.77c-2.46.8-4.52.3-6.44-1.41l-12.56,2.34c-.6-2.58-2.81-4.57-5.38-3.64l-10.78,3.89c-3.5,1.26-6.86,2.22-10.4,1.16l-6.4-1.92c4.16-4.95,10.77-5.42,10.73-8.55,0-.8-1.17-2.13-2.02-2.68-6.12,1.36-10.86,3.51-15.19,7.75-3.17.49-6.03-.27-8.6-2.38,4.82-6.09,11.38-6.94,10.49-10.88-.99-4.37-11.25.95-16.92,5.82-1.8-4.08,2.47-9.33,7.13-11.77,5.43-2.83,1.04-5.79,10.37-6.58,4.32-.37,8.28-2.57,12.03-4.45,9,4.13,13.41-8.68,21.67-6.49l5.4-2.33c3.66.02,6.38-1.4,6.57-5.46l6.24-2.3c2.64-.97,6.11-2.95,8.4-4.44,1.03-2.28,2.22-4.43,4.28-5.58l7.05-3.92,10.26,2.9c.85.24,2.75-.61,3.14-1.28.47-.79-.47-2.89-1.38-3.12l-8.43-2.14,5.67-5.18c.88-.8,1.06-3.26.35-4.17-.83-1.06-3.45-1.41-4.4-.63l-5.99,4.95c-1.27,1.05-3.41,2.67-5.03,3.06-30.05-7.58-55.6-5.18-85.17,1.45l-1.47,2.66c-.37.67,1.83,1.97,2.7,1.79l15.1-3.17c21.64-4.54,43.31-4.29,64.9.82-2.23,2.95-4.9,3.91-8.3,5.02-4.34,1.42-8.46,7.81-14.11,10.07-2.97-.4-5.24-.47-7.71,1.97-15.79-3.58-31.47-5.68-47.76-6.59l-2.22,2.08c-.57.53.97,2.32,1.75,2.51,14.14.45,27.49,1.86,41.45,5.08-1.87,1.31-4.34,2.24-5.84,2.38-2.43-1.14-4.01-1.36-6.23-.52l-15.32,5.81c-3.08-1.21-6.85-2.29-10.43-1.46l-15.31,3.57c-5.03,1.17-10.79.81-15.85-.06l-7.08-1.22-18.32.96c-2.73.14-4.48-1.57-6.7-2.31-7.33-2.41-21.3.3-27.86-3.12-3.78-1.96-6.4-3.44-11.24-4.07l9.48-8.8c2.29-2.13,3.06-5.37.49-7.77l-7.09,1.13-10.08,12.6-12.37-5.09c-.07-7.64-8.6-6.11-12.35-14.45.92-.85,2.02-2.26,1.91-3.01-.6-3.88-4.1-7.15-7.77-8.1l-1.97-6.13c-.6-1.85-.97-3.75-.83-5.62l4.46,1.81c.73.3,2.25-1.46,2.28-2.26.15-3.95-5.1-2.36-5.57-8.16-.23-2.82-.26-4.51,1.07-7.36l6.65,6.27c.56.53,1.96,1.16,2.71.98.88-.22,1.71-2.99,1.07-3.65l-5.92-6.18c4.95-3.96-.48-14.74,1.66-24.21,2.13-.98,3.1-2.52,3.27-4.77l1.69-22.44c.18-2.41,1.34-3.83,1.83-6.11l3.36-15.83c3.67-3.84,2.1-9.46,5.17-14.6,2.01-.49,4.05-1.48,4.77-3.13,4.6-10.58,1.87-18.65-1.93-17.41-3.03.99-4.82,3.75-6.34,6.52-9.48-3.8-18.87.22-27.13-4.82-.39-2.16-1.42-3.29-3.15-4.24l-7.21-3.96c-3.18-1.75-6.66-3.62-8.71-6.46.02-1.22-.22-3.31-.87-4.14l-6.85-8.8c-.45-3.05-1.91-5.09-4.99-6.19l-4.93-12.82c4.45-3.1-.71-10.99,1.07-23.36l1.63-11.3c5.01-5.49,3.21-14.05,8.85-21.66,1.31.42,3.85.44,4.46-.37l7.01-9.35c2.44-3.26,5.75-6.78,9.11-8.87,5.42.35,13.19-2.86,17.95-5.78,1.17-4.24,9.55-6.08,14.5-3.87,3.37.58,6.47.62,9.47-.87,4.96.58,10.13,1.48,14.72,3.28,3.65,7.81,11.88,6.32,14.42,6.91,5.72,1.33,10.61,6.92,14.7,10.6-2.76,8.09,7.98,9.7,11.2,17.11-.88,1.47-1.75,3.87-1.32,5.13l2.41,7.15c.88,2.6,1.76,5.54,1.27,8.12l-11.11,8.16-2.64-1.52c-2.48-1.43-9.62,8.94-12.65,14.87-.92,1.8-.11,4.65,1.29,5.45,2.14,1.22,4,.55,5.7-1.25l10.63-11.27,1.07.48c3.76,4.75,5.75-3.65,13.13-7.61.13,1.79.31,3.59,1.03,4.4.73.81,3.57.98,4.52.39l11.29-7.08c3.92-2.46,8.29-4.56,12.44-5.93.92,1.78,2.46,2.44,4.27,1.78l14.9-5.35c.4,1.91.73,3.3,1.37,3.8.75.58,2.96.92,3.9.71l13.07-2.93c1.68,2.91,3.48,3.06,6.53,2.87l13.87-.86c1.03,2.15,2.49,3.57,4.42,4.18l10.2,3.23-2.62,10.65c-.19.75-.48,2.92.08,3.31l2.76,1.94,1.42,2.49c.4.69,2.71.53,3.36.03,1.68-1.28,2.72-4.24,2.51-6.28-.6-5.86,1.78-9.58,3.97-14.48,3.18-7.13,5.79-15.15,11.6-20.58,5.81,1.5,10.03-9.93,19.14-14.66,2.14,1.32,4.48,1.73,6.89.04,7.61-5.33,16.27-8.97,25.54-9.95.27,2.37,1.89,4.36,4.21,3.97l12.37-2.08c4.55-.77,10.54,1.21,15.09,2.16,1.14,2.22,2.61,3.95,4.76,5.11,3.02,1.07,5.27,1.55,8.69,1.1l12.67,8.41c-.47,6.91,7.47,5.56,8.77,11.24-.78,1.67-1.81,4.01-.76,5.8l7.52,12.85c1.25,2.14,2.71,2.68,3.08,5.46.94,6.98,2.16,13.7.65,20.61-2.7,2.19-3.43,5.08-2.2,8.86-4.9,3.51-4.18,10.09-6.12,14.43-3.08,3.88-7.58,6.88-7.66,12.78l-7.3,7.95c-2.29-.59-3.73-.44-5.21,1.08-4.09,4.22-8.37,7.56-13.45,10.53l-4.15-.35-15.82,6.75c-3.05,1.3-8.04-.16-11.44-.25-17.25-.44-24.32-10.39-25.67-.14l-2.39,2.15c-.7.63.54,3.5,1.43,3.76l12.21,3.54c-.09,3.28,1.52,6.38,4.04,8.26-.62,12.64-15.14,19.97-4.41,23.32l-9.62,16.81c-.46.81-.83,3.02-.37,3.84.45.81,1.92,1.55,3.33,2.21l-11.08,13.88c-.74.93-1.13,3.26-.69,4.26.6,1.35,2.66,2.09,4.59,2.43-.97,1.46-3.05,4.24-2.89,5.95.31,3.33,4.36,4.27,7.01,3.35,2.77-.96,4.22-4.34,2.88-7.35l7.31-7.51c.93-.95.96-4.02.31-5.13-.72-1.23-3-1.72-5.02-1.6,2.92-5.85,6.7-10.53,11.29-15.27.98-1.01,1.55-3.71,1.37-5.17-.18-1.41-2.21-2.96-4.06-3.54l4.82-12.32c3.72-2.39,6.42-6.65,3.91-10.97-.48-.19-2.2-.9-2.03-1.42l.76-2.38c1.18-3.68,2.13-7.3,1.58-10.84,8.08.68,12.39-4.03,19.01-4.36l5.52-.27c7.37-.37,11.13-8.95,16.52-6.29,6.52-2.37,11.27-7.27,15.31-12.67,1.3-1.74,3.22-2.36,5.21-2.39l8.83-13.73,2.56-7.71c7.17-3.14,7.55-10.09,8-18.15,4.87-.18,10.03-1.03,14.79-2.67,4.89-1.69,9.17-1.24,14.24-1.02l10.82.46c1.23,2.07,2.81,3.11,5.15,3.35,9.48.97,18.26,2.38,27.47,4.69l.98,3.64,18.17,6.07,6.11,2.67c0,1.81.62,3.71,1.96,4.46l10.06,5.63,6.79,3.01c4.9,2.17,8.57,6.69,12.72,10.33l.73,4.75c4.84,6.19,9.14,12.4,12.83,19.39,1.15,2.17,3,2.93,4.85,4.46,3.88,3.22,5.58,9.23,7.6,13.93-1.04,3.4-.54,6.35.84,9.64,2.01,3.88,3.77,7.85,4.55,12.26l3.79,21.52c-1.11,2.26-1.85,4.76-1.84,7.31ZM976.53,363.62l-5.99,5.09c-7.08.87-12.11,6.32-17.88,6.69-2.24.15-4.79-.42-6.75.26l-6.73,2.36c-3.43-.55-7.12-.87-10.45.13-5.34,1.6-9.98,1.3-15.39.27l-15.3-.98-17.82-2.88c-4.9-.79-10.57-.68-14.7-3.66-3.88-2.8-7.74-5.81-12.87-5.3-1.66-1.7-3.45-3.14-5.48-4.29l-5.63-3.18.59-8.6c.06-.9,1.28-2.71,1.95-3.58l7.71,5.75c3.08,2.3,5.1,5,8.59,6.94,2.73,1.52,5.53.7,8.2,1.1,6.64,1.01,12.66,4.8,19.26,6.29l28.18,2.95c7.54.79,14.03.99,21.53-.91l14.64-2.06c8.98-1.27,19.36-10.45,24.71-18.07,3.03-1.76,5.26-5.21,4.54-8.96l-1.58-8.31c-.6-3.14.34-5.45-3.12-7.55-1.83-1.12-3.05-3.44-4.14-5.41-3.27-5.89-10.15-7.64-15.81-10.14-7.14-3.15-13.74-5.56-21.32-7.51,7.15-1.7,13.79-1.52,20.46.04,2.46,1.2,5.61,3.1,8.13,3.46,5.2.74,9.04,2.28,12.74,5.88l10.5,10.18,1.95,7.99,3.27,9.01c.97,2.67-.02,8.68-1.93,10.77-3.26,3.56-5.15,6.61-6.81,10.93l-7.22,5.3ZM466.99,362.43c-7.7,1.4-15.15-.8-21.35-5.79-6.85-5.5-9.02-18.73-2.96-19.08,1.22-.07,3.51,1.59,3.56,2.93.24,7.09,4.65,11.77,11.11,13.79,8.44,2.65,17.48-.1,23.22-7.09,1.21-1.47,3.6-2.07,4.92-1.21,5.53,3.63-3.4,13.7-18.49,16.45ZM390.81,329.82c-3.14,5.01-7.49,8.87-13.06,10.38-3.45.93-7.41,2.32-10.98,2.18-12.46-.48-23.04-10.24-21.51-22.68.18-1.43,2.46-2.97,3.67-3.08,1.27-.12,3.5,1.59,3.44,2.97-.26,5.69,2.11,10.22,6.98,12.96,8.75,4.84,19.66,2.15,25.29-6.38,1.01-.68,2.97-1.28,3.99-.98,1.29.38,1.98,2.32,2.17,4.64ZM276.31,453.15l16.58,11.83c-1.43,2.25-2.87.98-4.92.33-30.86-9.89-61.07-21.28-90.06-35.62-.25-.43-.72-1.78-.32-1.89l2.61-.73,33.71,14.81,43.52,16.88c-9.92-8.17-20.6-12.59-31.55-17.79l-16.74-7.94c-.49-.23-1.42-1.13-1.67-1.4-.33-.37.77-1.29,1.7-1.74l26.3,10.67c11.94,4.9,23.77,9.19,35.89,15.21-5.67,1.72-9.77-2.14-15.04-2.6Z"/>
  <g id="extra">
    <path d="M1035.02,431.81c-.53-.52-2.36-.74-3.03-.37l-27.1,14.93c-3.66-10.58-7.27-20.11-12.25-29.83-.61-1.19-3.24-.83-3.92-.12l-3.85,3c-.27,7.99.89,15.92,1.44,24.04l.54,8.05-23.92-4.73-9.04-2.81c-.75-.23-2.69.2-3.11.84-.35.53-.47,1.77-.41,2.52l30.77,16.38-15.21,22.09c-.39.56-.59,2.18-.4,2.79.57,1.85,8.65-1.31,12.22-4.3l15.38-12.88,7.86,27.98c2.56-.22,3.46-2.08,2.88-4.33l-5.48-21.58c-.1-.19,1.04-2.25.91-1.9l7.71,2.48,2.35,14.19c.14.84,1.81,2.04,2.51,1.7.56-.28,1.11-1.68,1.06-2.31l-.92-11.77,12.97,3.19c2.53.62,5.94-1.06,6.75-3.5l-17.69-21.07,20.58-19.66c.57-.54.94-2.52.42-3.04ZM981.56,472.74c-.19-1.8.66-3.43,1.87-4.72l1.71-1.83c.46-.49,1.99.68,3.32,1.94-1.73,1.87-3.69,3.26-6.9,4.61ZM992.45,451.37l-.54-19.22c.33-.28,1.77-1.19,2.01-1.18l6.95,16.79c-2.62,1.73-4.49,2.56-8.42,3.61ZM996.18,462.84c-.82-1.13-1.85-3.24-1.42-4.13.64-1.32,3.43-1.59,5.33.37l-3.91,3.76ZM1000.14,465.98l4.13-3.47,1.37,5.52-5.49-2.05ZM1024.58,472.98c-5.39-.37-9-1.37-13.66-2.69l-1.79-11.06,2.32-1.39,13.13,15.13Z"/>
    <path d="M92.91,139.63l-9.35,1.26-3.77-17.33,6.54-1.98c.6-.18,1.47-1.84,1.16-2.29-.31-.45-1.51-.99-2.09-.89l-6.44,1.17-5.28-23.36c-.19-.84-2.32-2.55-2.79-1.95l-1.74,2.25,5.44,23.98-19.9,5.1-5.25-23.56c-.21-.92-1.93-2.2-2.67-2.04-2.4.51-1.97,5.32-.82,10.05l4.1,16.83-18.78,5.5-3.84-20.06c-.41-2.13-1.52-4.58-3.02-6.36-1.41-.1-3.17,2.26-2.87,3.68l5.02,24.38-18.86,5.58c-.99.29-2.31,2.2-2,3.02.31.82,1.82,1.41,3.1,1.7l18.88-5.99,3.55,18.34-19.5,8.38c-.8.34-1.78,2.1-1.5,2.86.23.64,2.11,1.28,2.77,1.03l19.62-7.4c3.3,12.53,2.78,23.73,7.88,36.64.27.69,2.08,2.45,2.43,1.82l1.43-2.57-7.14-37.84,18.84-6.75,7.93,33.12,2.44,1.61c.44.29,1.15-1.77,1.23-2.2l-6.87-33.54,19.38-6.04,3.97,18.03c.15.67,1.63,2.06,2.18,1.7.56-.36,1.5-2.13,1.36-2.9l-3.26-17.66,8.51-2.16c.59-.15,1.54-1.08,1.73-1.59.19-.51-1.15-1.64-1.76-1.56ZM36,155.13l-3.85-18.13,18.94-5.99,4.09,17.58-19.17,6.54ZM59.43,147.28l-3.81-17.13,19.88-5.7,3.83,17.14-19.91,5.69Z"/>
  </g>
</svg>