<?xml version="1.0" encoding="UTF-8"?>
<svg id="Layer_1" xmlns="http://www.w3.org/2000/svg" version="1.1" viewBox="0 0 1678.72 310.23">
  <!-- Generator: Adobe Illustrator 30.4.0, SVG Export Plug-In . SVG Version: 2.1.4 Build 226)  -->
  <path d="M61.38,154.24c-17.14-13.24-34.04-25.05-44.29-40.76C-26.08,24.71,76.55-20.13,148.71,8.7c45.93,17.95,60.12,61.08,38.09,104.68-10.79,16.57-28.66,29.03-44.02,41.83,22.52,12.28,45.83,25.51,56.05,47.9,31.11,98.68-92.7,128.15-162.41,92.68C-.71,276.35-9.64,228.85,10.5,193.43c12.22-16.93,32.73-27.94,50.88-39.19ZM102.06,140.06l42.2-28.63c13.76-14.4,24.75-35.41,14.04-54.38C130.74,12.73,1.95,33.63,54.02,106.09l48.05,33.97ZM102.7,172.12l-47.34,25.25c-31.93,26.58-25.64,61.84,13.78,75.06,56.24,18.81,131.94-12.66,89.25-69.02l-55.69-31.29ZM1652.66,303.8c6.39,4.65,23.68-3.24,25.48-9.86,2.25-8.28-2.33-19.12-10.17-24.77l-125.79-90.69,51.08-4.24c34.44-2.86,68.37-26.49,73.54-62.57,1.91-13.35,2.04-32.35-1.04-44.87-8.45-34.29-41.48-56.2-76.05-56.55l-127.33-1.3c-11.83-.12-22.41,10.87-22.4,23.9l.18,250.85c0,11.71,11.23,21.13,20.15,20.31,6.84-.63,18.6-9.78,18.6-18.78l.05-239.73,119.25,2.61c22.53.49,36.61,24.01,33.7,44.19,4.41,41.75-36.36,44.78-86.24,47.99-17.92,1.15-31.12,15.8-34.54,29.98-4.39,18.22,3.93,33.55,19.76,45.05l121.76,88.47ZM908.22,303.7l-106.93.72c-8.43.06-17.3-10.54-16.81-18.83V24.05c1.27-5.22,11.39-15.53,16.74-15.46l126.4,1.73c63.35.87,108.46,46.29,117.92,107.52,7.21,46.69,3.4,93.9-26.27,132.3-26.2,33.91-66.93,53.27-111.05,53.56ZM1011.01,171.78c3.52-27.48-1.06-53.9-10.66-78.04-12.54-28.52-38.53-46.27-70.7-46.39l-109.14-.39.21,222.14,94.56-1.46c53.18-.82,92.42-41.24,95.73-95.87ZM1230.22,310.04c-86.33-2.75-128.33-42.02-139.53-126.37-6.61-49.78,5.55-101.95,41.19-138.12C1167.56,9.36,1216.7.13,1266.05,4.67c60.91,5.6,105.85,49.47,114.43,110.73,3.54,25.25,5.28,54.47.08,78.97-15.58,73.51-76.63,118.02-150.36,115.67ZM1332.64,220.99c23.11-45.63,21.39-104.77-6.38-147.04-29.96-45.61-145.14-52.88-185.26,17.75-15.54,27.36-14.78,60.85-13.69,90.84,2.07,57.02,41.84,92.01,97.55,92.07,42.01.04,86.13-10.92,107.77-53.63ZM613.91,233.74c2.99-29.47-10.62-56.08-38.14-72.13-55.54-32.39-174.01-12.88-166.24-77.91,5.97-50.01,100.76-55.14,154.16-29.55,12.35,5.92,21.35,7.34,30.51-4.78,21.18-28.01-82.84-65.71-168.34-34.18-34.03,12.55-55.44,44.39-52.55,78.84,5.6,66.68,74.04,75.13,134.73,84.22,23.01,3.45,48.53,7.59,61.91,26.83,14.33,20.6,6.68,46.37-14.78,57.03-21,10.44-44.04,11.95-67.49,12.18-37.4.36-70.48-6.41-100.31-29.99-6.9-5.46-22.96,1.51-25.6,9.17-8.8,25.59,52.17,52.04,95.43,55.06,69.85,4.88,149.55-4.46,156.69-74.79ZM711.98,20.75c-.01-5.69-16.19-13.79-20.95-10.72s-10.8,8.97-14.85,14.48l.09,260.79c.46,10.38,8.76,19.28,17.11,19.14,10.54-.17,19.1-7.87,19.07-20.97l-.47-262.72Z"/>
</svg>