<?xml version="1.0" encoding="UTF-8"?>
<svg id="Layer_1" xmlns="http://www.w3.org/2000/svg" version="1.1" viewBox="0 0 1678.72 479.9">
  <!-- Generator: Adobe Illustrator 30.4.0, SVG Export Plug-In . SVG Version: 2.1.4 Build 226)  -->
  <path d="M531.16,158.27c2.86,3.44,4.29,8.69,4.29,15.73v94.88c-.01,7.22-1.44,12.55-4.29,15.99-2.83,3.44-7.44,5.16-13.83,5.15h-2.25c-6.23,0-10.81-1.6-13.72-4.8-2.95-3.16-4.41-8.61-4.4-16.34v-94.88c-.01-7.56,1.45-12.92,4.4-16.11,2.91-3.2,7.49-4.79,13.72-4.79h2.25c6.38,0,11,1.73,13.83,5.17ZM1107.56,166.45l-11.29,65.19h23.84l-11.17-65.19h-1.38ZM842.62,201.69c2.76-3.02,4.14-7.81,4.13-14.35v-14.6c0-6.54-1.37-11.24-4.13-14.09h0c-2.76-2.83-7.67-4.26-14.73-4.26h-11.3v51.82h11.3c7.06,0,11.97-1.5,14.73-4.52ZM830.17,230.62h-13.58v58.15h13.58c7.2,0,12.19-1.47,14.98-4.4,2.76-2.94,4.15-7.68,4.15-14.23v-20.89c-.01-6.37-1.4-11.07-4.15-14.09-2.79-3.02-7.78-4.54-14.98-4.55ZM1273.85,154.4h-17.59v134.37h17.59c7.56,0,12.72-1.51,15.48-4.51,2.78-3.02,4.17-8.32,4.16-15.89v-93.6c0-7.54-1.38-12.83-4.16-15.86-2.75-3.01-7.91-4.51-15.48-4.51ZM1634.69,237.84v67.86l12.81,10.11v48.61H547.56c-11.7,0-25.67-3.89-33.71-8.27-16.73-9.1-37.86-23.54-54.25-43.43v51.7h-86.85l-47.84-37.76v-43.03h-45.01v22.06l12.83,10.12v48.61H47.85L0,326.67v-48.6h12.6l29.44-161.59h73.97l43.81,34.58v-34.58h283.15l17.19,13.56c2.89-2.96,6.16-5.59,9.92-7.75,7.93-4.52,17.88-6.82,29.63-6.82h32.98c11.75,0,21.7,2.29,29.6,6.81,5.81,3.08,15.52,9.82,26.36,18.64v-24.44h259.12c15.31,0,27.33,4.28,35.76,12.71,6.62,5.66,13.02,11.55,19.22,17.67v-30.37h85.09l47.83,37.78v48.61h-12.84v34.9h10.58l18.71,14.79,24.78-136.08h74l43.78,34.58v-34.58h96.53c16.32,0,25.53,4.42,29.48,6.9,9.25,5.88,18.1,12.37,26.49,19.42v-26.32h283.67l47.86,37.78v83.57h-44.03ZM147.87,288.77h-10.82l-29.95-161.57h-56.12l-29.44,161.57h-10.85v27.19h51.34v-27.19h-10.57l5.19-29.96h33.23l5.12,29.96h-11.32v27.19h64.17v-27.19ZM279,127.2h-108.45v27.19h10.82v134.38h-10.82v27.19h63.64v-27.19h-12.82v-53.61h38.52v-26.93h-38.52v-53.83h28.19v34.97h29.44v-62.17ZM432.27,127.2h-128.86v62.16h29.96v-34.96h15.08v134.38h-12.81v27.19h65.41v-27.19h-12.83v-134.38h14.61v34.97h29.44v-62.17ZM575.73,169.48c0-8.73-1.56-16.33-4.68-22.79-3.02-6.36-7.94-11.63-14.07-15.08h0c-6.29-3.62-14.39-5.42-24.29-5.41h-32.99c-9.9,0-18,1.79-24.28,5.4-6.3,3.62-10.95,8.65-13.96,15.08-3.03,6.47-4.54,14.07-4.54,22.79v103.95c0,8.88,1.51,16.56,4.54,23.03,2.94,6.39,7.82,11.68,13.96,15.11,6.28,3.6,14.37,5.4,24.28,5.4h32.99c9.9,0,17.99-1.81,24.29-5.4,6.14-3.46,11.06-8.74,14.07-15.11,3.13-6.47,4.69-14.15,4.68-23.04v-103.93ZM740.81,127.2h-51.59v27.19s10.82,0,10.82,0v91.45l-43.76-118.64h-56.9v27.2h11.08v134.38h-11.08v27.19h52.61v-27.19h-10.83v-100.19l49.07,127.37h40.02v-161.57h10.56v-27.19ZM889.55,247.99c0-7.37-1.38-13.53-4.14-18.49-2.76-4.96-7.02-8.68-12.72-11.2h0c-3.41-1.5-7.57-2.45-12.09-3.12,2.8-.54,5.54-1.35,8.18-2.43,5.8-2.51,10.03-6.27,12.71-11.3,2.69-5.03,4.03-11.16,4.03-18.39v-18.36c0-12.26-3.18-21.57-9.56-27.94-6.37-6.36-15.77-9.55-28.19-9.56h-82.04v27.19h10.82v134.38h-10.82v27.19h86.06c12.42,0,21.82-3.24,28.19-9.69,6.36-6.45,9.55-15.72,9.56-27.81v-30.48ZM1022.69,248.51h-29.72v40.26s-28.67,0-28.67,0v-134.37h12.82v-27.2h-63.66v27.2h10.82v134.38h-10.82v27.19h109.23v-67.46ZM1182.76,288.77h-10.84l-29.94-161.57h-56.14l-29.44,161.57h-10.82v27.19h51.34v-27.19h-10.57l5.19-29.96h33.21l5.13,29.96h-11.33v27.19h64.19v-27.19ZM1333.75,170.73c0-8.88-1.55-16.56-4.65-23.04-2.98-6.32-7.8-11.58-13.84-15.08h0c-6.12-3.61-14.12-5.41-24.03-5.41h-85.82v27.2h10.82v134.38h-10.82v27.19h85.82c9.9-.01,17.91-1.82,24.03-5.41,6.04-3.51,10.87-8.79,13.84-15.11,3.1-6.45,4.65-14.13,4.65-23.04v-101.67ZM1467.65,251.03h-29.71v37.74s-29.19,0-29.19,0v-56.37h39.27v-27.43h-39.27v-50.58h28.45v34.97h29.44v-62.16h-108.74v27.2h10.82v134.38h-10.82v27.19h109.75v-64.94ZM1620.15,127.2h-128.87v62.16h29.97v-34.96h15.09v134.38h-12.83v27.19h65.42v-27.19h-12.83v-134.38h14.61v34.97h29.44v-62.17ZM72.68,166.45l-11.28,65.19h23.85l-11.17-65.19h-1.41ZM1678.72,453.81H0v5h1678.72v-5ZM1678.72,466.9H0v13h1678.72v-13ZM1678.72,21.09H0v5h1678.72v-5ZM1678.72,0H0v13h1678.72V0Z"/>
</svg>