<?xml version="1.0" encoding="UTF-8"?>
<svg id="Layer_1" xmlns="http://www.w3.org/2000/svg" version="1.1" viewBox="0 0 1194.14 860.72">
  <!-- Generator: Adobe Illustrator 30.4.0, SVG Export Plug-In . SVG Version: 2.1.4 Build 226)  -->
  <path d="M9.52,742.95h4.05l.85.94c.12,5.86.44,10.88.94,15.06,1.95,3.28,5.31,5.95,10.08,8,4.77,2.06,9.48,3.09,14.13,3.09,6.66,0,11.98-1.99,15.97-5.96,3.99-3.98,5.98-8.72,5.98-14.23,0-3-.72-5.6-2.17-7.79-1.45-2.2-3.63-4.01-6.55-5.44-2.92-1.43-8.15-3.12-15.69-5.07-6.47-1.67-10.99-2.98-13.57-3.92-2.58-.94-5.06-2.53-7.44-4.76-2.39-2.23-4.21-4.97-5.46-8.21-1.26-3.24-1.88-6.82-1.88-10.72,0-9.34,3.34-16.82,10.03-22.44,6.69-5.61,15.03-8.42,25.02-8.42,4.21,0,8.79.65,13.76,1.94,4.96,1.29,8.73,2.53,11.31,3.71l.85,1.46c-.5,2.79-.82,10.11-.94,21.97l-.85.94h-3.77l-.85-.94c-.25-4.25-.6-7.23-1.04-8.94-.44-1.71-1.57-3.56-3.39-5.54-1.82-1.99-4.4-3.66-7.73-5.02-3.33-1.36-6.85-2.04-10.55-2.04s-7.05.63-9.66,1.88c-2.61,1.25-4.71,3.16-6.31,5.7-1.6,2.55-2.4,5.63-2.4,9.26,0,2.65.49,5.02,1.46,7.11.97,2.09,2.46,3.78,4.48,5.07,2.01,1.29,4.11,2.21,6.31,2.77l10.27,2.93c8.79,2.37,15.09,4.43,18.89,6.17,3.8,1.74,6.74,4.38,8.81,7.9,2.07,3.52,3.11,7.79,3.11,12.82,0,9.62-3.58,17.89-10.74,24.79-7.16,6.9-16.36,10.36-27.61,10.36-3.96,0-8.87-.49-14.75-1.46-5.87-.98-10.88-2.06-15.03-3.24l-.47-1.36.94-7.01c.31-2.16.5-4.34.57-6.54.06-2.2.12-6.82.19-13.86l.85-.94ZM129.83,775.59l-5.84-16.42-6.97-17.89-19.32-49.9c-1.26-3.28-2.37-5.44-3.34-6.49-.97-1.05-1.96-1.67-2.97-1.88-1.01-.21-3.01-.38-6.03-.52l-.75-.84v-4.5l.85-.94c8.79.49,15.77.73,20.92.73,7.29,0,14.6-.24,21.95-.73l.75.84v4.6l-.75.84c-6.53.21-10.33.72-11.4,1.52-1.07.8-1.6,1.83-1.6,3.09,0,2.09,1.26,6.59,3.77,13.5l11.49,31.8,9.05,23.75,9.42-23.75,7.82-21.55c3.01-8.16,4.96-13.95,5.84-17.37.88-3.42,1.32-5.68,1.32-6.8,0-1.32-.69-2.28-2.07-2.88-1.38-.59-4.87-1.03-10.46-1.31l-.75-.84v-4.5l.85-.94c7.79.49,13.63.73,17.52.73,3.27,0,8.86-.24,16.77-.73l.85.94v4.5l-.75.84c-3.71.35-6.17.94-7.4,1.78-1.23.84-2.42,2.46-3.58,4.86-1.16,2.41-4.51,9.89-10.03,22.44l-9.04,21.45c-1.51,3.63-6.94,17.82-16.3,42.58h-9.8ZM270.79,758.33l-3.01,7.53c-6.53,4.67-12.36,7.71-17.48,9.1-5.12,1.39-9.69,2.09-13.71,2.09-7.54,0-14.68-1.64-21.44-4.92-6.75-3.28-12.25-8.82-16.49-16.63-4.24-7.81-6.36-17.23-6.36-28.25,0-7.32.82-13.93,2.45-19.82,1.63-5.89,3.34-10.27,5.13-13.13,1.79-2.86,4.82-6.03,9.09-9.52,4.27-3.49,8.79-6.28,13.57-8.37,4.77-2.09,9.92-3.14,15.45-3.14,7.54,0,14.18,1.97,19.93,5.91,5.75,3.94,9.78,8.98,12.11,15.12,2.32,6.14,3.49,12.66,3.49,19.56,0,2.16-.09,4.25-.28,6.28l-1.04,1.15c-4.27,1.05-10.02,1.74-17.24,2.09-7.22.35-12,.52-14.32.52h-30.24c.12,14.44,3.39,25.07,9.8,31.91,6.41,6.84,14.26,10.25,23.55,10.25,4.4,0,8.62-.84,12.67-2.51s8.34-4.01,12.86-7.01l1.51,1.78ZM210.39,715.54c1.13.21,5.48.45,13.05.73,7.57.28,13.17.42,16.82.42,8.73,0,14.04-.17,15.92-.52.06-1.67.09-2.96.09-3.87,0-10.81-1.98-18.85-5.94-24.11-3.96-5.26-9.36-7.9-16.21-7.9-7.48,0-13.3,2.97-17.48,8.89-4.18,5.93-6.27,14.72-6.27,26.36ZM316.11,674.01l1.79,1.36c-.38,4.04-.66,11.23-.85,21.55l7.07-9.94c2.32-3.28,4.38-5.81,6.17-7.58s3.88-3.16,6.27-4.13c2.39-.98,4.84-1.46,7.35-1.46,2.76,0,5.37.63,7.82,1.88l.66,1.46c-1.01,9.28-1.57,17.44-1.7,24.48h-4.24c-2.51-6.42-6.56-9.62-12.15-9.62-3.9,0-7.29,1.38-10.18,4.13-2.89,2.76-4.82,6.21-5.79,10.36-.97,4.15-1.46,9.4-1.46,15.74v11.61c0,2.09.12,7.22.38,15.38.25,8.16.52,12.87.8,14.12.28,1.25.72,2.18,1.32,2.77.6.59,1.38.99,2.36,1.2.97.21,5.45.56,13.43,1.05l.85.84v4.39l-.85.94c-8.35-.56-17.09-.84-26.19-.84-7.22,0-14.76.28-22.61.84l-.85-.94v-4.39l.85-.84c6.09-.42,9.53-.73,10.32-.94.79-.21,1.48-.64,2.07-1.31.6-.66,1-1.67,1.22-3.03.22-1.36.47-5.86.75-13.5.28-7.64.42-13.41.42-17.31v-20.61c0-2.79-.13-6.59-.38-11.4-.25-4.81-.46-7.78-.61-8.89-.16-1.11-.64-1.93-1.46-2.46-.82-.52-2.45-.78-4.9-.78l-7.92-.11-.85-.84v-4.5l.75-.84c12-1.6,22.11-4.22,30.34-7.85ZM391.3,674.01l1.79,1.36c-.69,9.14-1.04,20.75-1.04,34.83v23.64c0,1.54.13,6.47.38,14.8.25,8.33.52,13.2.8,14.59.28,1.4.71,2.41,1.27,3.03.57.63,1.26,1.03,2.07,1.2.82.17,4.21.47,10.18.89l.85.84v4.39l-.75.94c-7.85-.56-15.42-.84-22.71-.84s-14.76.28-22.61.84l-.85-.94v-4.39l.85-.84c6.09-.42,9.53-.73,10.32-.94.79-.21,1.48-.64,2.07-1.31.6-.66,1-1.67,1.22-3.03.22-1.36.47-5.86.75-13.5.28-7.64.42-13.41.42-17.31v-20.61c0-2.79-.13-6.59-.38-11.4-.25-4.81-.46-7.78-.61-8.89-.16-1.11-.64-1.93-1.46-2.46s-2.45-.78-4.9-.78l-7.91-.11-.85-.84v-4.5l.75-.84c12-1.6,22.11-4.22,30.34-7.85ZM383.29,627.25c2.95,0,5.46,1.15,7.54,3.45,2.07,2.3,3.11,5.09,3.11,8.37s-1.04,5.96-3.11,8.26c-2.07,2.3-4.59,3.45-7.54,3.45s-5.39-1.13-7.49-3.4c-2.1-2.27-3.16-5.04-3.16-8.32s1.05-6.07,3.16-8.37,4.6-3.45,7.49-3.45ZM516.23,681.23l.75,1.88c-2.58,4.39-4.18,7.25-4.81,8.58h-17.52c1.76,3.84,2.64,7.85,2.64,12.03,0,4.95-1.02,9.76-3.06,14.44-2.04,4.67-4.88,8.65-8.53,11.93-3.64,3.28-7.77,5.89-12.39,7.85-4.62,1.95-9.88,2.93-15.78,2.93h-4.33c-3.71,3.28-6.09,5.72-7.16,7.32-1.07,1.61-1.6,3.24-1.6,4.92,0,3.07,1.27,5.23,3.82,6.49,2.54,1.26,7.8,1.88,15.78,1.88l21.11-.31c6.66,0,11.76.87,15.31,2.62,3.55,1.74,6.42,4.87,8.62,9.36,2.2,4.5,3.3,9.26,3.3,14.28,0,7.67-2.25,15.33-6.74,22.96-4.49,7.64-10.98,13.44-19.46,17.42-8.48,3.97-17.52,5.96-27.13,5.96-5.46,0-10.6-.66-15.41-1.99-4.81-1.33-9.01-3.33-12.62-6.01-3.61-2.69-6.52-6.19-8.72-10.51-2.2-4.33-3.3-8.82-3.3-13.5,0-2.58.34-5.28,1.04-8.11.69-2.82,2.01-5.88,3.96-9.15l17.05-10.57c-5.46-1.88-8.9-3.75-10.32-5.6-1.41-1.85-2.12-4.06-2.12-6.64s.79-5.79,2.36-9.42l15.17-12.13c-8.92-2.58-14.93-6.45-18.04-11.61-3.11-5.16-4.66-10.81-4.66-16.95,0-5.65,1.1-11.04,3.3-16.16,2.2-5.13,5.51-9.22,9.94-12.29,4.43-3.07,9.39-5.49,14.89-7.27,5.5-1.78,10.51-2.67,15.03-2.67,7.85,0,15.33,2.82,22.42,8.47,11.37,0,20.45-.14,27.23-.42ZM467.24,775.7c-10.11,0-15.94.14-17.48.42-1.54.28-3.72,1.46-6.55,3.56-2.83,2.09-5.13,4.93-6.93,8.53-1.79,3.59-2.68,7.62-2.68,12.08,0,7.88,2.64,14.3,7.91,19.25,5.28,4.95,12.31,7.43,21.11,7.43,6.6,0,12.69-1.54,18.28-4.6,5.59-3.07,9.72-7.18,12.39-12.34,2.67-5.16,4-10.11,4-14.86s-1.12-8.81-3.34-12.19c-2.23-3.38-5.12-5.44-8.67-6.17-3.55-.73-9.56-1.1-18.04-1.1ZM439.63,705.5c0,4.25.75,8.82,2.26,13.7,1.51,4.88,3.94,8.58,7.3,11.09s7.14,3.77,11.35,3.77c5.59,0,10.41-2.02,14.46-6.07,4.05-4.04,6.08-10.36,6.08-18.93,0-7.25-1.85-13.77-5.56-19.56-3.71-5.79-8.95-8.68-15.73-8.68-5.72,0-10.51,2.08-14.37,6.22-3.86,4.15-5.79,10.3-5.79,18.46ZM602.91,758.33l-3.01,7.53c-6.53,4.67-12.36,7.71-17.48,9.1-5.12,1.39-9.69,2.09-13.71,2.09-7.54,0-14.68-1.64-21.44-4.92-6.75-3.28-12.25-8.82-16.49-16.63-4.24-7.81-6.36-17.23-6.36-28.25,0-7.32.82-13.93,2.45-19.82,1.63-5.89,3.34-10.27,5.13-13.13,1.79-2.86,4.82-6.03,9.09-9.52,4.27-3.49,8.79-6.28,13.57-8.37,4.77-2.09,9.92-3.14,15.45-3.14,7.54,0,14.18,1.97,19.93,5.91,5.75,3.94,9.78,8.98,12.11,15.12,2.32,6.14,3.49,12.66,3.49,19.56,0,2.16-.09,4.25-.28,6.28l-1.04,1.15c-4.27,1.05-10.02,1.74-17.24,2.09-7.22.35-12,.52-14.32.52h-30.24c.12,14.44,3.39,25.07,9.8,31.91,6.41,6.84,14.26,10.25,23.55,10.25,4.4,0,8.62-.84,12.67-2.51s8.34-4.01,12.86-7.01l1.51,1.78ZM542.52,715.54c1.13.21,5.48.45,13.05.73,7.57.28,13.17.42,16.82.42,8.73,0,14.04-.17,15.92-.52.06-1.67.09-2.96.09-3.87,0-10.81-1.98-18.85-5.94-24.11-3.96-5.26-9.36-7.9-16.21-7.9-7.48,0-13.3,2.97-17.48,8.89-4.18,5.93-6.27,14.72-6.27,26.36ZM621.57,742.95h4.05l.85.94c.12,5.86.44,10.88.94,15.06,1.95,3.28,5.31,5.95,10.08,8,4.77,2.06,9.48,3.09,14.13,3.09,6.66,0,11.98-1.99,15.97-5.96,3.99-3.98,5.98-8.72,5.98-14.23,0-3-.72-5.6-2.17-7.79-1.45-2.2-3.63-4.01-6.55-5.44-2.92-1.43-8.15-3.12-15.69-5.07-6.47-1.67-10.99-2.98-13.57-3.92-2.58-.94-5.06-2.53-7.44-4.76-2.39-2.23-4.21-4.97-5.46-8.21-1.26-3.24-1.88-6.82-1.88-10.72,0-9.34,3.34-16.82,10.03-22.44,6.69-5.61,15.03-8.42,25.02-8.42,4.21,0,8.79.65,13.76,1.94,4.96,1.29,8.73,2.53,11.31,3.71l.85,1.46c-.5,2.79-.82,10.11-.94,21.97l-.85.94h-3.77l-.85-.94c-.25-4.25-.6-7.23-1.04-8.94-.44-1.71-1.57-3.56-3.39-5.54-1.82-1.99-4.4-3.66-7.73-5.02-3.33-1.36-6.85-2.04-10.55-2.04s-7.05.63-9.66,1.88c-2.61,1.25-4.71,3.16-6.31,5.7-1.6,2.55-2.4,5.63-2.4,9.26,0,2.65.49,5.02,1.46,7.11.97,2.09,2.46,3.78,4.48,5.07,2.01,1.29,4.11,2.21,6.31,2.77l10.27,2.93c8.79,2.37,15.09,4.43,18.89,6.17,3.8,1.74,6.74,4.38,8.81,7.9,2.07,3.52,3.11,7.79,3.11,12.82,0,9.62-3.58,17.89-10.74,24.79-7.16,6.9-16.36,10.36-27.61,10.36-3.96,0-8.87-.49-14.75-1.46-5.87-.98-10.88-2.06-15.03-3.24l-.47-1.36.94-7.01c.31-2.16.5-4.34.57-6.54.06-2.2.12-6.82.19-13.86l.85-.94ZM778.26,674.01l1.79,1.36c-.38,4.04-.66,11.23-.85,21.55l7.07-9.94c2.32-3.28,4.38-5.81,6.17-7.58s3.88-3.16,6.27-4.13c2.39-.98,4.84-1.46,7.35-1.46,2.76,0,5.37.63,7.82,1.88l.66,1.46c-1.01,9.28-1.57,17.44-1.7,24.48h-4.24c-2.51-6.42-6.56-9.62-12.15-9.62-3.9,0-7.29,1.38-10.18,4.13-2.89,2.76-4.82,6.21-5.79,10.36-.97,4.15-1.46,9.4-1.46,15.74v11.61c0,2.09.12,7.22.38,15.38.25,8.16.52,12.87.8,14.12.28,1.25.72,2.18,1.32,2.77.6.59,1.38.99,2.36,1.2.97.21,5.45.56,13.43,1.05l.85.84v4.39l-.85.94c-8.35-.56-17.09-.84-26.19-.84-7.22,0-14.76.28-22.61.84l-.85-.94v-4.39l.85-.84c6.09-.42,9.53-.73,10.32-.94.79-.21,1.48-.64,2.07-1.31.6-.66,1-1.67,1.22-3.03.22-1.36.47-5.86.75-13.5.28-7.64.42-13.41.42-17.31v-20.61c0-2.79-.13-6.59-.38-11.4-.25-4.81-.46-7.78-.61-8.89-.16-1.11-.64-1.93-1.46-2.46-.82-.52-2.45-.78-4.9-.78l-7.92-.11-.85-.84v-4.5l.75-.84c12-1.6,22.11-4.22,30.34-7.85ZM838.27,702.78l-3.67-1.05-.75-1.05v-12.97c11.18-9.21,22.05-13.81,32.6-13.81,7.22,0,13.22,1.5,18,4.5,4.77,3,8.23,6.75,10.36,11.25,2.13,4.5,3.2,9.75,3.2,15.74l-.47,21.03v31.17c0,4.25.27,6.84.8,7.74.53.91,1.15,1.52,1.84,1.83.69.31,1.98.58,3.86.78l5.37.52.75.94v4.18l-.75.84c-4.59-.42-8.86-.63-12.81-.63s-8.29.21-13.57.63l-1.41-1.46.38-16.84-20.54,17.78c-3.46,1.6-7.22,2.41-11.31,2.41-5.03,0-9.34-1.01-12.96-3.03-3.61-2.02-6.38-4.85-8.29-8.47-1.92-3.63-2.87-8.02-2.87-13.18,0-10.25,2.89-18.25,8.67-24.01,5.78-5.75,21.54-10.65,47.3-14.7,0-10.32-2.07-17.59-6.22-21.81-4.15-4.22-9.71-6.33-16.68-6.33-3.64,0-6.96.59-9.94,1.78-2.98,1.19-4.7,2.14-5.14,2.88-.44.73-2.14,5-5.09,12.81l-.66.52ZM881.99,719.31c-17.59,3.28-28.55,6.8-32.88,10.57-4.33,3.77-6.5,9.59-6.5,17.47,0,10.88,4.87,16.32,14.6,16.32,8.35,0,16.61-5.37,24.78-16.11v-28.25ZM978.19,631.85v-4.39l.75-.94c12-1.53,22.11-4.11,30.34-7.74l1.79,1.26c-.69,8.02-1.04,24.1-1.04,48.23v68.52c0,7.04.11,13.2.33,18.46.22,5.27.61,8.39,1.18,9.36.57.98,1.49,1.78,2.78,2.41,1.29.63,4.95,1.22,10.98,1.78l.85.84v3.98l-.85.94c-6.78-.49-12.06-.73-15.83-.73-3.39,0-8.23.24-14.51.73l-1.04-1.15c.19-6.83.28-11.61.28-14.33,0-.35.03-1.67.09-3.98-3.46,2.79-6.91,5.89-10.36,9.31-5.09,5.02-8.42,8.16-9.99,9.42-2.89,1.6-7,2.41-12.34,2.41-8.67,0-16.03-2.37-22.09-7.11-6.06-4.74-10.38-10.79-12.96-18.15-2.58-7.36-3.86-14.91-3.86-22.65s1.33-15.46,4-22.75c2.67-7.29,6.47-12.61,11.4-15.95,4.93-3.35,10.3-6.82,16.11-10.41,5.81-3.59,11.57-5.39,17.29-5.39,7.98,0,15.58,2.2,22.8,6.59l-.38-23.33c-.13-8.09-.31-13.72-.57-16.89-.25-3.17-.57-5.06-.94-5.65-.38-.59-1.02-1.03-1.93-1.31-.91-.28-4.73-.42-11.45-.42l-.85-.94ZM994.3,698.28c-3.9-4.88-8.21-8.61-12.96-11.19-4.74-2.58-9.5-3.87-14.27-3.87-5.28,0-10.19,1.59-14.75,4.76-4.55,3.17-7.84,7.88-9.85,14.12-2.01,6.24-3.01,13.02-3.01,20.35,0,12.21,2.78,22,8.34,29.4,5.56,7.39,12.55,11.09,20.96,11.09,4.58,0,8.65-1.17,12.2-3.5,3.55-2.34,6.47-5.49,8.76-9.47,2.29-3.98,3.63-7.95,4-11.93s.57-11.26.57-21.86v-17.89ZM1067.79,674.01l1.79,1.36c-.69,9.14-1.04,20.75-1.04,34.83v23.64c0,1.54.13,6.47.38,14.8.25,8.33.52,13.2.8,14.59.28,1.4.71,2.41,1.27,3.03.57.63,1.26,1.03,2.07,1.2.82.17,4.21.47,10.18.89l.85.84v4.39l-.75.94c-7.85-.56-15.42-.84-22.71-.84s-14.76.28-22.61.84l-.85-.94v-4.39l.85-.84c6.09-.42,9.53-.73,10.32-.94.79-.21,1.48-.64,2.07-1.31.6-.66,1-1.67,1.22-3.03.22-1.36.47-5.86.75-13.5.28-7.64.42-13.41.42-17.31v-20.61c0-2.79-.13-6.59-.38-11.4-.25-4.81-.46-7.78-.61-8.89-.16-1.11-.64-1.93-1.46-2.46s-2.45-.78-4.9-.78l-7.91-.11-.85-.84v-4.5l.75-.84c12-1.6,22.11-4.22,30.34-7.85ZM1059.79,627.25c2.95,0,5.46,1.15,7.54,3.45,2.07,2.3,3.11,5.09,3.11,8.37s-1.04,5.96-3.11,8.26c-2.07,2.3-4.59,3.45-7.54,3.45s-5.39-1.13-7.49-3.4c-2.1-2.27-3.16-5.04-3.16-8.32s1.05-6.07,3.16-8.37,4.6-3.45,7.49-3.45ZM1095.21,725.8c0-8.3,1.54-16.3,4.62-24.01,3.08-7.71,8.43-14.37,16.06-19.98,7.63-5.61,16.69-8.42,27.18-8.42,13.19,0,23.93,4.62,32.22,13.86,8.29,9.24,12.44,21.12,12.44,35.62,0,15.97-4.76,29.12-14.27,39.44-9.52,10.32-21,15.48-34.44,15.48-8.79,0-16.65-2.63-23.56-7.9-6.91-5.26-12.01-11.7-15.31-19.3-3.3-7.6-4.95-15.87-4.95-24.79ZM1113.02,718.58c0,9.77,1.13,18.5,3.39,26.21s5.84,13.9,10.74,18.57c4.9,4.67,10.49,7.01,16.77,7.01,7.41,0,13.54-3.26,18.37-9.78,4.84-6.52,7.25-16.34,7.25-29.45,0-14.85-2.62-27.02-7.87-36.51-5.25-9.48-12.8-14.23-22.66-14.23-8.17,0-14.54,3.28-19.13,9.83-4.59,6.56-6.88,16.01-6.88,28.35ZM1074.81,855.72H119.33v5h955.48v-5ZM152.49,261.54l227.84,245.59h-201.77c-14.4,0-26.06-11.67-26.06-26.07v-219.52ZM820.3,256.48h91.35c63.33,0,114.67-51.34,114.67-114.67v-27.15c0-63.33-51.34-114.67-114.67-114.67h-213.55v5.84h92.14c29.28,2.08,52.4,26.48,52.4,56.3v137.9c0,24.29-15.34,44.98-36.85,52.94h-194.7l224.47,253.44h206.1l-221.36-249.93ZM501.17,250.65h-121.75c-29.28-2.08-52.4-26.48-52.4-56.3V56.46c0-27.81,20.12-50.91,46.6-55.57l227.02,244.71V26.07c0-14.4-11.67-26.07-26.06-26.07h-307.42c-63.33,0-114.67,51.34-114.67,114.67v27.15c0,63.33,51.34,114.67,114.67,114.67h121.75c29.28,2.08,52.4,26.48,52.4,56.3v137.9c0,29.81-23.12,54.21-52.4,56.3v.16h112.27c63.33,0,114.67-51.34,114.67-114.67v-27.15c0-63.33-51.34-114.67-114.67-114.67Z"/>
</svg>