<?xml version="1.0" encoding="UTF-8"?>
<svg id="Layer_1" xmlns="http://www.w3.org/2000/svg" version="1.1" viewBox="0 0 1439.28 891.54">
  <!-- Generator: Adobe Illustrator 30.4.0, SVG Export Plug-In . SVG Version: 2.1.4 Build 226)  -->
  <path d="M47.99,748.94v23.97h-1.89c-.61-4.6-1.72-8.26-3.32-10.99-.78-1.36-1.76-2.59-2.94-3.68-1.18-1.09-2.45-2.02-3.83-2.79s-2.85-1.36-4.4-1.79c-1.55-.43-3.11-.64-4.68-.64-1.74,0-3.36.3-4.85.89-1.5.6-2.8,1.39-3.91,2.38-1.11.99-1.97,2.12-2.58,3.4-.61,1.28-.92,2.6-.92,3.96,0,1.91.44,3.57,1.33,4.98.89,1.41,2.1,2.72,3.65,3.91,1.55,1.19,3.37,2.35,5.47,3.48s4.37,2.33,6.82,3.63c2.76,1.47,5.38,2.9,7.87,4.29,2.49,1.4,4.68,2.94,6.57,4.62,1.89,1.69,3.4,3.61,4.52,5.77,1.12,2.16,1.69,4.76,1.69,7.79,0,2.59-.54,5.05-1.61,7.38s-2.57,4.38-4.5,6.13c-1.93,1.75-4.22,3.15-6.9,4.19-2.67,1.04-5.61,1.56-8.81,1.56-1.19,0-2.22-.02-3.07-.05-.85-.03-1.67-.11-2.45-.23s-1.59-.31-2.43-.56c-.83-.26-1.83-.61-2.99-1.05-.82-.31-1.65-.59-2.5-.84-.85-.26-1.64-.47-2.35-.64-.72-.17-1.32-.31-1.81-.41-.49-.1-.81-.15-.95-.15-.85,0-1.52.25-2.02.77-.49.51-.86,1.57-1.1,3.17h-1.89v-23.76h1.89c.44,2.49.96,4.66,1.56,6.52.6,1.86,1.27,3.42,2.02,4.68.75,1.23,1.72,2.37,2.91,3.42,1.19,1.06,2.53,1.97,4.01,2.73,1.48.77,3.08,1.36,4.8,1.79,1.72.43,3.48.64,5.29.64,2.15,0,4.07-.31,5.77-.92,1.7-.61,3.15-1.44,4.34-2.48,1.19-1.04,2.1-2.25,2.73-3.63.63-1.38.95-2.82.95-4.32,0-2.21-.46-4.08-1.38-5.6-.92-1.52-2.16-2.87-3.71-4.06-1.55-1.19-3.36-2.33-5.42-3.42-2.06-1.09-4.23-2.32-6.52-3.68-2.59-1.53-5.08-2.99-7.49-4.37s-4.52-2.9-6.36-4.55c-1.84-1.65-3.31-3.53-4.42-5.65-1.11-2.11-1.66-4.63-1.66-7.56,0-2.45.51-4.79,1.53-7s2.44-4.16,4.24-5.83c1.81-1.67,3.94-2.99,6.41-3.96,2.47-.97,5.17-1.46,8.1-1.46,3.61,0,7.51.9,11.7,2.71,1.84.85,3.19,1.28,4.04,1.28s1.61-.26,2.17-.79c.56-.53,1.01-1.59,1.35-3.19h1.89ZM146.85,750.52v1.89c-1.47.27-2.72.66-3.76,1.17-1.04.51-1.95,1.18-2.73,1.99-.78.82-1.47,1.8-2.07,2.94-.6,1.14-1.2,2.45-1.81,3.91l-24.17,58.97h-1.89l-25.96-59.74c-1.36-3.13-2.3-5.01-2.81-5.62-.85-1.06-1.89-1.88-3.12-2.48-1.23-.6-2.91-.98-5.06-1.15v-1.89h28.31v1.89c-1.64.17-2.96.39-3.96.66-1.01.27-1.78.61-2.33,1-.55.39-.91.84-1.1,1.33-.19.49-.28,1.05-.28,1.66,0,1.74.78,4.39,2.35,7.97l17.63,40.63,16.35-40.12c1.6-3.99,2.4-6.73,2.4-8.23,0-1.06-.55-2.05-1.66-2.99-1.11-.94-3.01-1.58-5.7-1.92v-1.89h21.36ZM184.34,754.3v27.39h15.23c2.21,0,4.01-.2,5.39-.59,1.38-.39,2.46-1,3.24-1.84s1.33-1.88,1.64-3.14c.31-1.26.51-2.76.61-4.5h1.89v24.12h-1.89c-.24-1.7-.48-3.09-.72-4.17-.24-1.07-.48-1.85-.72-2.33-.31-.61-.7-1.15-1.18-1.61-.48-.46-1.09-.86-1.84-1.2-.75-.34-1.65-.6-2.71-.77-1.06-.17-2.3-.26-3.73-.26h-15.23v22.84c0,3.03.14,4.91.41,5.62.14.31.31.6.51.87.2.27.5.5.89.69.39.19.9.33,1.53.43.63.1,1.42.15,2.38.15h11.75c2.01,0,3.69-.06,5.03-.18,1.35-.12,2.52-.32,3.53-.61s1.89-.7,2.66-1.23,1.58-1.2,2.43-2.02c1.06-1.02,2.13-2.33,3.22-3.94,1.09-1.6,2.18-3.47,3.27-5.62h2.04l-5.98,17.38h-53.4v-1.89h2.45c.65,0,1.33-.07,2.04-.21.72-.14,1.39-.36,2.02-.66.63-.31,1.2-.69,1.71-1.15.51-.46.87-1,1.07-1.61.41-1.05.61-3.29.61-6.69v-45.02c0-4.36-.44-7.07-1.33-8.12-1.23-1.36-3.27-2.04-6.13-2.04h-2.45v-1.89h53.4v15.18h-1.23c-.38-1.84-.75-3.36-1.12-4.55-.38-1.19-.8-2.18-1.28-2.96-.48-.78-1.02-1.41-1.64-1.87s-1.35-.88-2.2-1.25c-1.4-.51-3.8-.77-7.21-.77h-19.01ZM311.46,819.82h-18.5l-23.46-32.4c-.89.03-1.68.06-2.38.08-.7.02-1.32.03-1.87.03-.44,0-.92,0-1.43-.03-.51-.02-1.04-.04-1.58-.08v20.13c0,4.36.48,7.07,1.43,8.12,1.29,1.5,3.24,2.25,5.83,2.25h2.71v1.89h-29.69v-1.89h2.61c2.9,0,4.99-.95,6.29-2.86.72-1.06,1.07-3.56,1.07-7.51v-44.77c0-4.36-.48-7.07-1.43-8.12-1.33-1.5-3.3-2.25-5.93-2.25h-2.61v-1.89h25.24c7.29,0,12.71.55,16.25,1.64,1.74.51,3.36,1.28,4.88,2.3,1.52,1.02,2.84,2.23,3.99,3.63,1.14,1.4,2.04,2.96,2.71,4.7.66,1.74,1,3.6,1,5.57,0,2.15-.34,4.15-1.02,6-.68,1.86-1.73,3.55-3.14,5.08-1.41,1.53-3.19,2.86-5.34,3.99-2.15,1.12-4.67,2.01-7.56,2.66l14.31,19.88c3.3,4.6,6.11,7.63,8.43,9.1,2.38,1.5,5.45,2.45,9.2,2.86v1.89ZM262.25,784.2c.65,0,1.21,0,1.69.03.48.02.87.03,1.18.03,3.3,0,6.21-.38,8.71-1.15,2.5-.77,4.59-1.83,6.26-3.19,1.67-1.36,2.92-2.97,3.76-4.83.83-1.86,1.25-3.88,1.25-6.06s-.36-4.11-1.07-5.9c-.72-1.79-1.73-3.33-3.04-4.62-1.31-1.29-2.88-2.3-4.7-3.02-1.82-.71-3.82-1.07-6-1.07-.99,0-2.15.08-3.48.23s-2.85.4-4.55.74v28.82ZM357.17,817.93v1.89h-29.69v-1.89h2.45c2.9,0,4.97-.83,6.23-2.5.82-1.06,1.23-3.68,1.23-7.87v-44.77c0-1.63-.03-2.96-.1-3.99-.07-1.02-.2-1.87-.38-2.53-.19-.66-.46-1.18-.82-1.56-.36-.37-.84-.73-1.46-1.07-1.5-.82-3.07-1.23-4.7-1.23h-2.45v-1.89h29.69v1.89h-2.5c-2.86,0-4.92.83-6.18,2.5-.85,1.06-1.28,3.68-1.28,7.87v44.77c0,1.64.03,2.96.1,3.99.07,1.02.2,1.86.38,2.5.19.65.47,1.17.84,1.56.37.39.87.76,1.48,1.1,1.46.82,3.02,1.23,4.65,1.23h2.5ZM438.3,748.94l1.79,21.87h-1.79c-1.77-5.42-4.11-9.52-7-12.32-4.16-3.99-9.45-5.98-15.89-5.98-8.82,0-15.54,3.49-20.13,10.48-3.85,5.89-5.77,12.91-5.77,21.05,0,6.61,1.28,12.64,3.83,18.09,1.12,2.42,2.47,4.6,4.04,6.54,1.57,1.94,3.32,3.59,5.26,4.96,1.94,1.36,4.05,2.42,6.31,3.17,2.27.75,4.66,1.12,7.18,1.12s5.02-.32,7.38-.97c2.37-.65,4.68-1.6,6.92-2.86v-20.03c0-1.77-.07-3.19-.2-4.27-.14-1.07-.33-1.93-.59-2.58-.26-.65-.6-1.14-1.02-1.48-.43-.34-.91-.65-1.46-.92-1.09-.58-3.03-.87-5.83-.87v-1.94h26.83v1.94h-1.28c-1.16,0-2.15.13-2.96.38-.82.26-1.49.74-2.02,1.46-.53.71-.91,1.74-1.15,3.07-.24,1.33-.36,3.07-.36,5.21v21.21c-2.04,1.09-4.02,2.02-5.93,2.79-1.91.77-3.84,1.4-5.8,1.89-1.96.49-3.97.86-6.03,1.1-2.06.24-4.25.36-6.57.36-13.39,0-23.56-4.29-30.51-12.88-5.21-6.44-7.82-13.87-7.82-22.28,0-2.35.24-4.71.72-7.08.48-2.37,1.16-4.68,2.04-6.92.89-2.25,1.98-4.4,3.27-6.46,1.29-2.06,2.74-3.96,4.34-5.7,3.41-3.82,7.3-6.63,11.68-8.43,4.38-1.81,9.26-2.71,14.64-2.71,1.6,0,3,.06,4.19.18,1.19.12,2.35.31,3.48.56,1.12.26,2.31.6,3.55,1.02,1.24.43,2.72.95,4.42,1.56,1.87.71,3.15,1.07,3.83,1.07s1.2-.3,1.66-.89c.46-.6.74-1.76.84-3.5h1.89ZM485.86,754.3v27.39h15.23c2.21,0,4.01-.2,5.39-.59,1.38-.39,2.46-1,3.24-1.84s1.33-1.88,1.64-3.14c.31-1.26.51-2.76.61-4.5h1.89v24.12h-1.89c-.24-1.7-.48-3.09-.72-4.17-.24-1.07-.48-1.85-.72-2.33-.31-.61-.7-1.15-1.18-1.61-.48-.46-1.09-.86-1.84-1.2-.75-.34-1.65-.6-2.71-.77-1.06-.17-2.3-.26-3.73-.26h-15.23v22.84c0,3.03.14,4.91.41,5.62.14.31.31.6.51.87.2.27.5.5.89.69.39.19.9.33,1.53.43.63.1,1.42.15,2.38.15h11.75c2.01,0,3.69-.06,5.03-.18,1.35-.12,2.52-.32,3.53-.61s1.89-.7,2.66-1.23,1.58-1.2,2.43-2.02c1.06-1.02,2.13-2.33,3.22-3.94,1.09-1.6,2.18-3.47,3.27-5.62h2.04l-5.98,17.38h-53.4v-1.89h2.45c.65,0,1.33-.07,2.04-.21.72-.14,1.39-.36,2.02-.66.63-.31,1.2-.69,1.71-1.15.51-.46.87-1,1.07-1.61.41-1.05.61-3.29.61-6.69v-45.02c0-4.36-.44-7.07-1.33-8.12-1.23-1.36-3.27-2.04-6.13-2.04h-2.45v-1.89h53.4v15.18h-1.23c-.38-1.84-.75-3.36-1.12-4.55-.38-1.19-.8-2.18-1.28-2.96-.48-.78-1.02-1.41-1.64-1.87s-1.35-.88-2.2-1.25c-1.4-.51-3.8-.77-7.21-.77h-19.01ZM590.24,748.94v23.97h-1.89c-.61-4.6-1.72-8.26-3.32-10.99-.78-1.36-1.76-2.59-2.94-3.68-1.18-1.09-2.45-2.02-3.83-2.79s-2.85-1.36-4.4-1.79c-1.55-.43-3.11-.64-4.68-.64-1.74,0-3.36.3-4.85.89-1.5.6-2.8,1.39-3.91,2.38-1.11.99-1.97,2.12-2.58,3.4-.61,1.28-.92,2.6-.92,3.96,0,1.91.44,3.57,1.33,4.98.89,1.41,2.1,2.72,3.65,3.91,1.55,1.19,3.37,2.35,5.47,3.48s4.37,2.33,6.82,3.63c2.76,1.47,5.38,2.9,7.87,4.29,2.49,1.4,4.68,2.94,6.57,4.62,1.89,1.69,3.4,3.61,4.52,5.77,1.12,2.16,1.69,4.76,1.69,7.79,0,2.59-.54,5.05-1.61,7.38s-2.57,4.38-4.5,6.13c-1.93,1.75-4.22,3.15-6.9,4.19-2.67,1.04-5.61,1.56-8.81,1.56-1.19,0-2.22-.02-3.07-.05-.85-.03-1.67-.11-2.45-.23s-1.59-.31-2.43-.56c-.83-.26-1.83-.61-2.99-1.05-.82-.31-1.65-.59-2.5-.84-.85-.26-1.64-.47-2.35-.64-.72-.17-1.32-.31-1.81-.41-.49-.1-.81-.15-.95-.15-.85,0-1.52.25-2.02.77-.49.51-.86,1.57-1.1,3.17h-1.89v-23.76h1.89c.44,2.49.96,4.66,1.56,6.52.6,1.86,1.27,3.42,2.02,4.68.75,1.23,1.72,2.37,2.91,3.42,1.19,1.06,2.53,1.97,4.01,2.73,1.48.77,3.08,1.36,4.8,1.79,1.72.43,3.48.64,5.29.64,2.15,0,4.07-.31,5.77-.92,1.7-.61,3.15-1.44,4.34-2.48,1.19-1.04,2.1-2.25,2.73-3.63.63-1.38.95-2.82.95-4.32,0-2.21-.46-4.08-1.38-5.6-.92-1.52-2.16-2.87-3.71-4.06-1.55-1.19-3.36-2.33-5.42-3.42-2.06-1.09-4.23-2.32-6.52-3.68-2.59-1.53-5.08-2.99-7.49-4.37s-4.52-2.9-6.36-4.55c-1.84-1.65-3.31-3.53-4.42-5.65-1.11-2.11-1.66-4.63-1.66-7.56,0-2.45.51-4.79,1.53-7s2.44-4.16,4.24-5.83c1.81-1.67,3.94-2.99,6.41-3.96,2.47-.97,5.17-1.46,8.1-1.46,3.61,0,7.51.9,11.7,2.71,1.84.85,3.19,1.28,4.04,1.28s1.61-.26,2.17-.79c.56-.53,1.01-1.59,1.35-3.19h1.89ZM713.97,750.52v16.25h-1.18c-.27-2.18-.72-4.03-1.35-5.54-.63-1.51-1.46-2.74-2.48-3.68-1.02-.94-2.27-1.62-3.73-2.04-1.47-.43-3.17-.64-5.11-.64h-9.76v52.94c0,4.26.46,6.92,1.38,7.97,1.26,1.43,3.25,2.15,5.98,2.15h2.4v1.89h-29.38v-1.89h2.45c2.93,0,5.01-.89,6.23-2.66.75-1.06,1.12-3.54,1.12-7.46v-52.94h-8.33c-2.11,0-3.95.15-5.52.46-1.57.31-2.9.89-3.99,1.74-1.09.85-1.98,2.06-2.66,3.63-.68,1.57-1.19,3.59-1.53,6.08h-1.94v-16.25h57.39ZM753.55,754.3v27.39h15.23c2.21,0,4.01-.2,5.39-.59,1.38-.39,2.46-1,3.24-1.84s1.33-1.88,1.64-3.14c.31-1.26.51-2.76.61-4.5h1.89v24.12h-1.89c-.24-1.7-.48-3.09-.72-4.17-.24-1.07-.48-1.85-.72-2.33-.31-.61-.7-1.15-1.18-1.61-.48-.46-1.09-.86-1.84-1.2-.75-.34-1.65-.6-2.71-.77-1.06-.17-2.3-.26-3.73-.26h-15.23v22.84c0,3.03.14,4.91.41,5.62.14.31.31.6.51.87.2.27.5.5.89.69.39.19.9.33,1.53.43.63.1,1.42.15,2.38.15h11.75c2.01,0,3.69-.06,5.03-.18,1.35-.12,2.52-.32,3.53-.61s1.89-.7,2.66-1.23,1.58-1.2,2.43-2.02c1.06-1.02,2.13-2.33,3.22-3.94,1.09-1.6,2.18-3.47,3.27-5.62h2.04l-5.98,17.38h-53.4v-1.89h2.45c.65,0,1.33-.07,2.04-.21.72-.14,1.39-.36,2.02-.66.63-.31,1.2-.69,1.71-1.15.51-.46.87-1,1.07-1.61.41-1.05.61-3.29.61-6.69v-45.02c0-4.36-.44-7.07-1.33-8.12-1.23-1.36-3.27-2.04-6.13-2.04h-2.45v-1.89h53.4v15.18h-1.23c-.38-1.84-.75-3.36-1.12-4.55-.38-1.19-.8-2.18-1.28-2.96-.48-.78-1.02-1.41-1.64-1.87s-1.35-.88-2.2-1.25c-1.4-.51-3.8-.77-7.21-.77h-19.01ZM869.94,800.65l1.69.36-5.93,18.81h-53.66v-1.89h2.61c2.9,0,4.99-.95,6.29-2.86.72-1.06,1.07-3.58,1.07-7.56v-44.72c0-4.36-.48-7.07-1.43-8.12-1.33-1.5-3.3-2.25-5.93-2.25h-2.61v-1.89h31.38v1.89c-1.87,0-3.43.08-4.68.25-1.24.17-2.27.43-3.07.77-.8.34-1.43.74-1.89,1.2s-.84.96-1.15,1.51c-.54,1.06-.82,3.66-.82,7.82v43.54c0,1.19.04,2.21.13,3.07.08.85.23,1.56.43,2.12.2.56.48,1.02.82,1.38.34.36.78.64,1.33.84.82.34,3.48.51,7.97.51h5.06c5.28,0,9.01-.39,11.19-1.18,1.09-.37,2.11-.89,3.07-1.53.95-.65,1.88-1.51,2.78-2.58.9-1.07,1.79-2.38,2.66-3.91.87-1.53,1.76-3.39,2.68-5.57ZM910.09,754.3v27.39h15.23c2.21,0,4.01-.2,5.39-.59,1.38-.39,2.46-1,3.24-1.84s1.33-1.88,1.64-3.14c.31-1.26.51-2.76.61-4.5h1.89v24.12h-1.89c-.24-1.7-.48-3.09-.72-4.17-.24-1.07-.48-1.85-.72-2.33-.31-.61-.7-1.15-1.18-1.61-.48-.46-1.09-.86-1.84-1.2-.75-.34-1.65-.6-2.71-.77-1.06-.17-2.3-.26-3.73-.26h-15.23v22.84c0,3.03.14,4.91.41,5.62.14.31.31.6.51.87.2.27.5.5.89.69.39.19.9.33,1.53.43.63.1,1.42.15,2.38.15h11.75c2.01,0,3.69-.06,5.03-.18,1.35-.12,2.52-.32,3.53-.61s1.89-.7,2.66-1.23,1.58-1.2,2.43-2.02c1.06-1.02,2.13-2.33,3.22-3.94,1.09-1.6,2.18-3.47,3.27-5.62h2.04l-5.98,17.38h-53.4v-1.89h2.45c.65,0,1.33-.07,2.04-.21.72-.14,1.39-.36,2.02-.66.63-.31,1.2-.69,1.71-1.15.51-.46.87-1,1.07-1.61.41-1.05.61-3.29.61-6.69v-45.02c0-4.36-.44-7.07-1.33-8.12-1.23-1.36-3.27-2.04-6.13-2.04h-2.45v-1.89h53.4v15.18h-1.23c-.38-1.84-.75-3.36-1.12-4.55-.38-1.19-.8-2.18-1.28-2.96-.48-.78-1.02-1.41-1.64-1.87s-1.35-.88-2.2-1.25c-1.4-.51-3.8-.77-7.21-.77h-19.01ZM1040.79,750.52v1.89c-1.47.27-2.72.66-3.76,1.17-1.04.51-1.95,1.18-2.73,1.99-.78.82-1.47,1.8-2.07,2.94-.6,1.14-1.2,2.45-1.81,3.91l-24.17,58.97h-1.89l-25.96-59.74c-1.36-3.13-2.3-5.01-2.81-5.62-.85-1.06-1.89-1.88-3.12-2.48-1.23-.6-2.91-.98-5.06-1.15v-1.89h28.31v1.89c-1.64.17-2.96.39-3.96.66-1.01.27-1.78.61-2.33,1-.55.39-.91.84-1.1,1.33-.19.49-.28,1.05-.28,1.66,0,1.74.78,4.39,2.35,7.97l17.63,40.63,16.35-40.12c1.6-3.99,2.4-6.73,2.4-8.23,0-1.06-.55-2.05-1.66-2.99-1.11-.94-3.01-1.58-5.7-1.92v-1.89h21.36ZM1088.7,817.93v1.89h-29.69v-1.89h2.45c2.9,0,4.97-.83,6.23-2.5.82-1.06,1.23-3.68,1.23-7.87v-44.77c0-1.63-.03-2.96-.1-3.99-.07-1.02-.2-1.87-.38-2.53-.19-.66-.46-1.18-.82-1.56-.36-.37-.84-.73-1.46-1.07-1.5-.82-3.07-1.23-4.7-1.23h-2.45v-1.89h29.69v1.89h-2.5c-2.86,0-4.92.83-6.18,2.5-.85,1.06-1.28,3.68-1.28,7.87v44.77c0,1.64.03,2.96.1,3.99.07,1.02.2,1.86.38,2.5.19.65.47,1.17.84,1.56.37.39.87.76,1.48,1.1,1.46.82,3.02,1.23,4.65,1.23h2.5ZM1153.58,748.94v23.97h-1.89c-.61-4.6-1.72-8.26-3.32-10.99-.78-1.36-1.76-2.59-2.94-3.68-1.18-1.09-2.45-2.02-3.83-2.79s-2.85-1.36-4.4-1.79c-1.55-.43-3.11-.64-4.68-.64-1.74,0-3.36.3-4.85.89-1.5.6-2.8,1.39-3.91,2.38-1.11.99-1.97,2.12-2.58,3.4-.61,1.28-.92,2.6-.92,3.96,0,1.91.44,3.57,1.33,4.98.89,1.41,2.1,2.72,3.65,3.91,1.55,1.19,3.37,2.35,5.47,3.48s4.37,2.33,6.82,3.63c2.76,1.47,5.38,2.9,7.87,4.29,2.49,1.4,4.68,2.94,6.57,4.62,1.89,1.69,3.4,3.61,4.52,5.77,1.12,2.16,1.69,4.76,1.69,7.79,0,2.59-.54,5.05-1.61,7.38s-2.57,4.38-4.5,6.13c-1.93,1.75-4.22,3.15-6.9,4.19-2.67,1.04-5.61,1.56-8.81,1.56-1.19,0-2.22-.02-3.07-.05-.85-.03-1.67-.11-2.45-.23s-1.59-.31-2.43-.56c-.83-.26-1.83-.61-2.99-1.05-.82-.31-1.65-.59-2.5-.84-.85-.26-1.64-.47-2.35-.64-.72-.17-1.32-.31-1.81-.41-.49-.1-.81-.15-.95-.15-.85,0-1.52.25-2.02.77-.49.51-.86,1.57-1.1,3.17h-1.89v-23.76h1.89c.44,2.49.96,4.66,1.56,6.52.6,1.86,1.27,3.42,2.02,4.68.75,1.23,1.72,2.37,2.91,3.42,1.19,1.06,2.53,1.97,4.01,2.73,1.48.77,3.08,1.36,4.8,1.79,1.72.43,3.48.64,5.29.64,2.15,0,4.07-.31,5.77-.92,1.7-.61,3.15-1.44,4.34-2.48,1.19-1.04,2.1-2.25,2.73-3.63.63-1.38.95-2.82.95-4.32,0-2.21-.46-4.08-1.38-5.6-.92-1.52-2.16-2.87-3.71-4.06-1.55-1.19-3.36-2.33-5.42-3.42-2.06-1.09-4.23-2.32-6.52-3.68-2.59-1.53-5.08-2.99-7.49-4.37s-4.52-2.9-6.36-4.55c-1.84-1.65-3.31-3.53-4.42-5.65-1.11-2.11-1.66-4.63-1.66-7.56,0-2.45.51-4.79,1.53-7s2.44-4.16,4.24-5.83c1.81-1.67,3.94-2.99,6.41-3.96,2.47-.97,5.17-1.46,8.1-1.46,3.61,0,7.51.9,11.7,2.71,1.84.85,3.19,1.28,4.04,1.28s1.61-.26,2.17-.79c.56-.53,1.01-1.59,1.35-3.19h1.89ZM1210.43,817.93v1.89h-29.69v-1.89h2.45c2.9,0,4.97-.83,6.23-2.5.82-1.06,1.23-3.68,1.23-7.87v-44.77c0-1.63-.03-2.96-.1-3.99-.07-1.02-.2-1.87-.38-2.53-.19-.66-.46-1.18-.82-1.56-.36-.37-.84-.73-1.46-1.07-1.5-.82-3.07-1.23-4.7-1.23h-2.45v-1.89h29.69v1.89h-2.5c-2.86,0-4.92.83-6.18,2.5-.85,1.06-1.28,3.68-1.28,7.87v44.77c0,1.64.03,2.96.1,3.99.07,1.02.2,1.86.38,2.5.19.65.47,1.17.84,1.56.37.39.87.76,1.48,1.1,1.46.82,3.02,1.23,4.65,1.23h2.5ZM1265.6,748.94c8.96,0,16.74,3.42,23.35,10.27,6.61,6.81,9.91,15.33,9.91,25.55s-3.32,19.27-9.96,26.22c-6.64,6.95-14.68,10.42-24.12,10.42s-17.6-3.39-24.07-10.17c-6.47-6.78-9.71-15.55-9.71-26.32s3.75-19.98,11.24-26.93c6.51-6.03,14.29-9.05,23.35-9.05ZM1264.63,752.67c-3.51,0-6.63.75-9.35,2.25-2.73,1.5-5.02,3.64-6.87,6.41-1.86,2.78-3.27,6.14-4.24,10.09-.97,3.95-1.46,8.38-1.46,13.29s.48,9.33,1.43,13.39c.95,4.05,2.36,7.54,4.22,10.45,1.86,2.91,4.15,5.18,6.87,6.8,2.73,1.62,5.88,2.43,9.45,2.43,3.2,0,6.17-.61,8.92-1.84,2.74-1.23,5.12-3.12,7.13-5.7,2.01-2.57,3.59-5.85,4.73-9.84,1.14-3.99,1.71-8.74,1.71-14.26s-.47-9.99-1.41-14.13c-.94-4.14-2.35-7.64-4.24-10.5-1.89-2.86-4.24-5.05-7.05-6.57-2.81-1.52-6.09-2.27-9.84-2.27ZM1315.87,750.52h18.81l42.36,51.97v-39.96c0-4.26-.48-6.92-1.43-7.97-1.29-1.43-3.29-2.15-5.98-2.15h-2.4v-1.89h24.12v1.89h-2.45c-2.93,0-5.01.89-6.23,2.66-.75,1.06-1.12,3.54-1.12,7.46v58.41h-1.84l-45.69-55.8v42.67c0,4.26.46,6.92,1.38,7.97,1.26,1.43,3.25,2.15,5.98,2.15h2.45v1.89h-24.12v-1.89h2.4c2.96,0,5.06-.89,6.29-2.66.75-1.06,1.12-3.54,1.12-7.46v-48.19c-1.02-1.19-1.87-2.15-2.56-2.86-.68-.72-1.33-1.3-1.94-1.76s-1.28-.83-1.99-1.12c-.72-.29-1.6-.62-2.66-1-.99-.31-2.49-.46-4.5-.46v-1.89ZM6.59,889.04h1383.2M6.59,690.04h1383.2M278.97,459.68c-21.02,89.37-129.28,114.12-220.25,85.35l-54.96-17.38-2.21-115.26c4.24-3.62,19.81-3.46,25.31.13,18.72,68.86,57.94,125.6,130.74,113.58,29-4.79,50.19-25.07,54.59-52.23,4.3-26.55-8.1-54.47-34.93-67.77l-101.1-50.13C23.61,329.91-2.26,276.23,9.08,219.73c10.85-54.04,58.49-90.77,116.72-95.19,43.43-3.29,85.77,7.01,127.79,22.51l3.01,106.68-24.26-1.36c-16.83-59.41-52.14-110.35-111.52-95.59-23.02,5.72-40.51,21.41-45.57,41.63-19.85,79.39,99.69,82.9,166.77,139.6,35.21,29.76,47.83,75.39,36.94,121.68ZM549.48,155.18c12.51,6.45,32.43,3.49,43.01,18.54,3.86,5.49,5.07,20.57,2.29,28.29l-85.37,236.53-93.01-244.45c-2.07-5.45.5-21.89,4.87-25.67,14.87-12.82,38.44-7.77,38.48-14.02l.16-21.32-187.6-.22-.84,24.76c29.05,1.57,43.27,15.45,52.61,39.02l140.28,354.23c13.78.78,24.98.49,35.89-1.55l139.3-356.66c8.11-20.77,23.74-31.54,46.09-35.46,1.1-6.33.06-19.58-2.61-23.9l-129.69-.55c-4.38,1.51-8.75,19.88-3.85,22.41ZM822.36,429.85l.19-258.25,110.89-1.08.13-37.28-111.19-.51.8-111.84c-2.3-1.83-12.15-6.06-14.97-4.14-2.82,1.93-5.88,5.94-9.08,10.62-28.91,42.11-63.06,76.76-101.82,111.25l-.39,31.35,40.66,1,1.04,290.36c.18,51.7,37.61,88.83,87.02,92.8,50.45,4.05,94.87-19.28,123.4-60.03-2.54-6.85-11.2-15.51-17.08-14.6-24.43,20.03-62.23,31.98-89.85,7.44-14.61-12.98-19.77-37.62-19.76-57.08ZM1272.7,291.51l-19.14-64.17,50.77-40.82c55.7-12.82,116.09,19.13,134.96,74.53-6.98-2.3-13.84-4.46-19.82-5.68-2.15-.38-4.65-1.07-6.67-.32-2.96,1.75.82,5.82-.2,9.41-.78,3.48-5.02,4.02-7.38,5.96-1.02.85-.65,1.79-.19,2.77,1.88,4.89-7.74,3.82-9.49,7.29-.66,1.19-.28,2.59-.04,3.88.58,2.52.89,5.71,1.47,8.13.86,4.04,3.07,6.64,3.17,11.21,0,2.3-.72,4.67-1.46,6.86-1.67,5.09-4.06,9.89-8.05,13.46-.95,1.01-3.59,3.1-2.67,3.98,1.82,1.5,13.58-.12,18.34-.35-43.36,24.06-105.23,8.02-133.59-36.14ZM1380.33,58.49c-1.16,4.53-3.06,16.24-4.93,17.48-1.07.54-2.22-2.65-2.87-3.85-2.19-5.2-6.31-8.95-10.93-12.22-1.86-1.35-3.86-2.76-6.01-3.51-3.54-1.17-5.96-.18-9.15-.23-3.25.11-6.41-1.18-9.82-1.43-1.79-.2-4.15,0-4.99-1.94-1.69-2.94,1.77-11.31-3.41-10.52-1.03.2-2.05.41-2.54-.82-1.12-3.13-.19-7.98-4-9.51-3.1-1.48-7.65.63-8.47-2.48-.12-2,1.22-4,2.17-5.79,3.02-5.31,7.29-11.18,11.8-17.14-58.52.83-107.56,48.39-112.59,105.32l23.13,60.89,66.95,1.62c50.76-13.32,85.13-67.2,75.65-115.88ZM1097.07,37.41l1.01,9.28-15.43-8.61c2.26,9.43,3.06,12.76,1.8,7.51-8.89-1.25-13.67-2.44-13.75-.52l-.52,12.49c-6.49-5.18-12.89-12.71-19.69-23.06-17.3,55.91,12.78,117.25,65.38,139.62l65.06-3.18,22.23-63.17c3.02-52.39-37.61-101.73-86.83-107.76l18.01,11.11c-3.97-.15-14.59-1.18-17.47,1.56l-9.52,9.05c-2.93.71-6.99,1.58-6.02,2.9l5.17,6.97c-6.05,2.77-9.61,4.03-9.42,5.82ZM1008.74,262.88l9.14,1.91-12.96,12.01c9.67.76,13.08,1.03,7.7.61-3.93,8.07-6.55,12.25-4.75,12.92l11.71,4.36c-6.94,4.57-16.08,8.33-28.02,11.6,47.83,33.73,115.46,24.08,152.99-19.03l17.08-62.86-53.21-40.66c-48.9-19.06-108.37,4.33-129.32,49.28l16.13-13.69c-1.37,3.73-5.64,13.51-3.92,17.1l5.67,11.85c-.23,3-.65,7.14.9,6.62l8.23-2.76c.76,6.61.86,10.39,2.63,10.76ZM1158.32,435.52c-1.5-4.17-5.8-13.86-4.34-16.43,1.39-1.99,4.81-.22,7.3.26,2.9.79,6.05,1.69,9.09,1.94,5.22.45,9.14-1.64,12.83-3.31,1.59-.76,3.11-1.55,4.56-2.55,2.73-1.76,5.39-5.07,8.31-5.73,3.6-.89,6.88,1.49,9.64,2.98,2.63,1.88,4.8,2.68,7.95,3.44,2.36.93,5.01,2.14,7.67,2.09,2.45.1,5.45-.71,7.06.1,4.89,2.26,3.17,21.42,3.47,28.02,46.86-35.06,58.58-102.37,29.18-151.38l-54.51-35.67-55.12,38.04c-33.24,40.61-29.37,104.41,6.91,138.22Z"/>
</svg>